<?xml version="1.0" encoding="utf-8"?>
<!-- Generator: Adobe Illustrator 25.0.0, SVG Export Plug-In . SVG Version: 6.00 Build 0)  -->
<svg version="1.1" id="Layer_1" xmlns="http://www.w3.org/2000/svg" xmlns:xlink="http://www.w3.org/1999/xlink" x="0px" y="0px"
	 viewBox="0 0 1920 1080" style="enable-background:new 0 0 1920 1080;" xml:space="preserve">
<style type="text/css">
	.st0{fill:#916D46;}
	.st1{fill:#5FC447;}
	.st2{fill:#24AE5F;}
	.st3{fill:#E64C3C;}
	.st4{fill:#C64946;}
</style>
<path class="st0" d="M803.41,180.18c-0.62,1.06,0.06,1.83-0.57,4.44c-0.39,1.65-0.95,2.53-2.07,4.65c-1.99,3.78-1.96,4.31-2.99,6.18
	c-2.24,4.07-5.05,6.51-7.75,8.85c-4.16,3.61-7.95,3.16-10.02,6.51c-0.31,0.5-1.07,1.77-1.19,3.54c-0.04,0.6-0.13,2.03,0.67,3.36
	c0.84,1.4,2.37,2.19,3.77,2.12c1.16-0.05,1.5-0.66,3.93-1.96c1.84-0.98,2.22-0.94,3.51-1.6c1.91-0.97,3.07-2.08,5.32-4.24
	c3.27-3.13,5.45-5.91,5.99-6.61c1.24-1.6,3.12-4.04,5.01-7.56c2.6-4.82,1.8-5.33,4.75-11.28c1.77-3.58,2.52-4.34,2.17-5.46
	C812.97,177.98,805.1,177.31,803.41,180.18z"/>
<path class="st1" d="M825.95,182.24c3.41,4.25,6.14,7.99,8.17,10.88c3.04,4.32,4.02,6.06,4.81,8.4c0.31,0.93,1.49,4.6,1.35,9.6
	c-0.08,2.72-0.48,3.43-2.63,11.96c-2.18,8.62-2.26,9.82-3.56,10.61c-0.58,0.35-1.76,0.83-10.65-3c-4.24-1.83-6.36-2.74-7.96-3.89
	c-1.65-1.19-5.36-3.92-8.01-9.22c-0.44-0.88-1.94-4.01-2.59-8.53c-0.13-0.91-0.53-3.97,0-8.61c0.76-6.77,1.61-13.52,6.25-17.24
	C816.93,178.56,824.88,181.79,825.95,182.24z"/>
<path class="st2" d="M817.63,184.05c1.22,3.18-0.37,4.78,0.21,9.86c0.22,1.92,0.63,3.26,1.45,5.92c0.85,2.75,1.66,4.61,3.05,7.77
	c1.69,3.85,2.54,5.78,3.21,6.56c1.64,1.92,3.35,2.75,3.78,4.99c0.08,0.41,0.31,1.66-0.31,2.42c-0.31,0.38-0.74,0.52-1.19,0.67
	c0,0-0.93,0.3-1.86,0.17c-2.28-0.32-5.33-7.24-5.33-7.24c-3.9-8.86-3.62-6.69-4.91-10.46c-2.78-8.1-2.82-14.38-2.8-18.39
	c0.02-5.05,0.68-5.83,1.13-6C815.07,179.94,816.81,181.91,817.63,184.05z"/>
<path class="st3" d="M801.5,183.63c3.86-0.39,9.5-0.31,15.09,2.75c4.76,2.6,5.28,5.05,10.03,7.84c7.84,4.6,16.03,3.55,18.35,3.16
	c10.68-1.78,17.36-9.48,19.12-11.49c14.09-16.22,10.48-41.74,9.12-51.3c0,0-4.78-33.78-27.52-49.42c-1.73-1.19-4.4-3.03-8.06-3.08
	c-4.14-0.06-5.14,2.22-10.7,3.14c-2.01,0.33-6.09,0.96-10.18-0.89c-3.51-1.59-4.54-3.88-6.31-5.31c-7.05-5.71-23.44,4.14-32.4,11.85
	c-2.36,2.03-14.54,12.8-21.43,32.51c-6.03,17.22-4.64,31.6-4.17,35.54c1,8.35,2.02,16.94,8.38,23.61c7.23,7.58,16.69,7.8,19.95,7.88
	C791.08,190.65,798.66,185.7,801.5,183.63z"/>
<path class="st4" d="M795.46,182.03c2.75-11.1-15.41-19.55-16.09-32.38c-1.09-20.49,40.66-52,67.94-42.56
	c3.85,1.33,12.99,8.72,15.82,5.71c0.73-0.78,0.76-1.94,0.77-3.18c0.05-4.63-2.48-6.78-10.96-17.79c-1.13-1.46-3.44-4.25-7.21-6.96
	c-0.32-0.23-0.64-0.43-1.01-0.65c-6.96-4.05-12.34-2.41-13.39-1.71c-0.02,0.01-0.09,0.06-0.2,0.13c-0.46,0.3-1.61,1-3.19,1.61
	c-0.49,0.19-1.04,0.35-1.68,0.49c-1.31,0.27-4.47,0.69-9.72-1.65c-4.45-1.99-6.72-4.33-8.48-5.59c-9.64-6.93-26.15,2.45-27.24,3.08
	c-10.75,6.27-15.53,16.68-20.4,27.31c-5.06,11.03-6.7,20.68-8.1,28.89c-1.1,6.47-1.35,10.81-1.18,15.01
	c0.26,6.37,1.44,11.14,2.23,14.22c1.48,5.82,2.45,9.63,5.23,13.78c1.39,2.07,3.79,5.63,8.17,8.01c3.99,2.17,7.83,2.41,10.7,2.6
	c1.91,0.12,3.27,0.03,5.53-0.11c4.59-0.3,6.93-0.47,8.68-1.76C794.32,186.59,795.17,183.2,795.46,182.03z"/>
</svg>
