<?xml version="1.0" encoding="utf-8"?>
<!-- Generator: Adobe Illustrator 25.0.0, SVG Export Plug-In . SVG Version: 6.00 Build 0)  -->
<svg version="1.1" id="Layer_1" xmlns="http://www.w3.org/2000/svg" xmlns:xlink="http://www.w3.org/1999/xlink" x="0px" y="0px"
	 viewBox="0 0 1920 1080" style="enable-background:new 0 0 1920 1080;" xml:space="preserve">
<style type="text/css">
	.st0{fill:#916D46;}
	.st1{fill:#5FC447;}
	.st2{fill:#24AE5F;}
	.st3{fill:#E64C3C;}
	.st4{fill:#C64946;}
</style>
<path class="st0" d="M984.81,874.34c1.04-1.7-0.68-2.69-0.11-6.66c0.36-2.52,1.31-3.95,3.11-7.32c3.2-6.02,2.99-6.78,4.68-9.77
	c3.67-6.5,9.09-10.72,14.28-14.77c8.02-6.26,16.45-6.44,19.97-11.84c0.53-0.81,1.82-2.85,1.53-5.48c-0.1-0.89-0.33-3.02-2.5-4.81
	c-2.27-1.87-5.84-2.69-8.91-2.28c-2.53,0.34-3.08,1.31-8,3.77c-3.72,1.86-4.57,1.88-7.21,3.15c-3.88,1.86-6.09,3.76-10.36,7.44
	c-6.2,5.35-10.13,9.93-11.11,11.09c-2.23,2.63-5.6,6.65-8.68,12.26c-4.22,7.69-2.33,8.25-6.98,17.68c-2.79,5.67-4.2,6.95-3.09,8.53
	C964.55,879.73,982,878.94,984.81,874.34z"/>
<path class="st1" d="M934.85,876.36c-8.75-5.5-15.86-10.39-21.19-14.19c-7.96-5.69-10.64-8.02-13.08-11.3
	c-0.97-1.3-4.66-6.44-5.87-13.84c-0.65-4.02,0-5.16,2.13-18.21c2.15-13.19,1.96-14.98,4.58-16.43c1.17-0.65,3.59-1.61,24.23,2.03
	c9.84,1.74,14.76,2.61,18.61,3.94c3.98,1.38,12.93,4.57,20.35,11.78c1.23,1.2,5.47,5.48,8.26,11.98c0.56,1.31,2.36,5.74,2.62,12.68
	c0.39,10.14,0.58,20.28-8.44,26.79C955.72,879.77,937.32,876.79,934.85,876.36z"/>
<path class="st2" d="M952.51,871.84c-3.63-4.42-0.64-7.13-3.46-14.48c-1.07-2.78-2.37-4.66-4.97-8.4
	c-2.69-3.86-5.04-6.42-9.04-10.76c-4.88-5.29-7.32-7.94-9.01-8.94c-4.17-2.46-8.18-3.3-9.78-6.5c-0.3-0.59-1.19-2.37-0.06-3.63
	c0.57-0.64,1.47-0.94,2.4-1.25c0,0,1.94-0.65,4.02-0.67c5.08-0.05,13.86,9.47,13.86,9.47c11.24,12.18,9.95,9.04,13.94,14.31
	c8.56,11.31,10.53,20.55,11.71,26.46c1.49,7.45,0.29,8.75-0.66,9.1C959.36,877.31,954.95,874.8,952.51,871.84z"/>
<path class="st3" d="M987.95,868.83c-8.33,1.45-20.71,2.59-33.88-0.66c-11.2-2.76-13.11-6.26-24.34-9.29
	c-18.57-5.02-36.17-1.63-41.14-0.54c-22.83,5.02-35.14,17.86-38.37,21.23c-25.93,27.05-10.27,63.84-4.41,77.61
	c0,0,20.73,48.69,75.25,66.62c4.16,1.37,10.55,3.47,18.59,2.72c9.08-0.84,10.58-4.42,22.47-7.03c4.29-0.94,13.04-2.79,22.56-0.98
	c8.17,1.55,11.11,4.7,15.42,6.41c17.17,6.82,50.07-11.36,67.34-24.73c4.56-3.53,27.94-22.12,37.06-52.71
	c7.97-26.72,0.57-47.59-1.66-53.28c-4.71-12.08-9.56-24.5-25.52-32.9c-18.13-9.54-38.91-7.74-46.08-7.12
	C1008.64,856.14,993.54,865.13,987.95,868.83z"/>
<path class="st4" d="M1001.67,869.82c-2.66,16.97,39.67,25.34,45.06,44.09c8.61,29.94-73.25,85.73-135.85,77.95
	c-8.85-1.1-31.09-9.94-36.37-4.86c-1.37,1.32-1.08,3.03-0.73,4.86c1.3,6.82,7.48,9.44,29.41,23.75c2.91,1.9,8.82,5.49,17.9,8.64
	c0.77,0.27,1.53,0.49,2.41,0.73c16.47,4.4,27.74,0.78,29.83-0.49c0.04-0.02,0.18-0.11,0.39-0.24c0.92-0.55,3.22-1.84,6.49-3.08
	c1.01-0.38,2.17-0.75,3.53-1.09c2.79-0.69,9.58-2.03,21.78,0.25c10.35,1.93,16.02,4.86,20.26,6.33c23.21,8.04,56.51-9.48,58.7-10.65
	c21.64-11.65,28.93-28.06,36.38-44.82c7.72-17.38,8.4-31.97,8.97-44.37c0.45-9.79-0.32-16.23-1.97-22.38
	c-2.51-9.33-6.54-16.08-9.2-20.45c-5-8.24-8.28-13.64-15.63-19.13c-3.66-2.74-10.01-7.44-20.32-9.97c-9.39-2.3-17.89-1.8-24.22-1.42
	c-4.21,0.25-7.17,0.69-12.07,1.41c-9.97,1.47-15.02,2.25-18.48,4.54C1002.78,862.85,1001.95,868.03,1001.67,869.82z"/>
</svg>
