<?xml version="1.0" encoding="UTF-8"?>
<svg id="Layer_1" data-name="Layer 1" xmlns="http://www.w3.org/2000/svg" version="1.1" viewBox="0 0 1920 1080">
  <defs>
    <style>
      .cls-1 {
        fill: #916d46;
      }

      .cls-1, .cls-2, .cls-3, .cls-4 {
        stroke-width: 0px;
      }

      .cls-2 {
        fill: #5fc447;
      }

      .cls-3 {
        fill: #e64c3c;
      }

      .cls-5 {
        fill: none;
        stroke: #000;
        stroke-miterlimit: 10;
      }

      .cls-4 {
        fill: #c64946;
      }
    </style>
  </defs>
  <path class="cls-5" d="M97.87,681.76"/>
  <path class="cls-1" d="M967.68,548.04c.63-1-.38-1.6,0-3.94.24-1.49.81-2.32,1.91-4.3,1.95-3.53,1.83-3.98,2.86-5.74,2.23-3.81,5.47-6.25,8.58-8.6,4.8-3.63,9.78-3.65,11.91-6.81.32-.48,1.1-1.67.95-3.23-.05-.53-.17-1.79-1.43-2.87-1.32-1.13-3.43-1.65-5.24-1.43-1.5.18-1.83.75-4.77,2.15-2.22,1.06-2.72,1.07-4.29,1.79-2.31,1.07-3.64,2.17-6.2,4.3-3.72,3.1-6.08,5.78-6.67,6.45-1.34,1.53-3.37,3.88-5.24,7.17-2.57,4.51-1.46,4.86-4.29,10.4-1.7,3.33-2.55,4.07-1.91,5.02,1.8,2.64,12.11,2.34,13.82-.36Z"/>
  <path class="cls-2" d="M938.13,548.75c-5.12-3.34-9.28-6.3-12.39-8.6-4.65-3.44-6.21-4.85-7.63-6.81-.56-.78-2.7-3.86-3.34-8.24-.35-2.38.05-3.05,1.43-10.75,1.39-7.79,1.3-8.84,2.86-9.68.7-.37,2.14-.92,14.3,1.43,5.8,1.12,8.7,1.68,10.96,2.51,2.34.85,7.6,2.83,11.91,7.17.72.72,3.18,3.29,4.77,7.17.32.78,1.34,3.42,1.43,7.53.13,6.01.15,12.01-5.24,15.77-6.76,4.72-17.61,2.79-19.06,2.51Z"/>
  <path class="cls-3" d="M969.59,544.81c-4.94.78-12.26,1.33-20.02-.72-6.59-1.74-7.69-3.83-14.3-5.74-10.93-3.15-21.36-1.31-24.3-.72-13.54,2.75-20.94,10.23-22.88,12.19-15.58,15.76-6.67,37.68-3.34,45.88,0,0,11.79,29.01,43.84,40.15,2.44.85,6.2,2.16,10.96,1.79,5.38-.41,6.29-2.51,13.34-3.94,2.55-.52,7.73-1.52,13.34-.36,4.82,1,6.52,2.89,9.05,3.94,10.08,4.2,29.7-6.24,40.03-13.98,2.73-2.04,16.72-12.82,22.4-30.83,4.96-15.73.78-28.15-.48-31.54-2.67-7.19-5.42-14.59-14.77-19.72-10.62-5.82-22.92-4.96-27.16-4.66-13.39.94-22.39,6.11-25.73,8.24Z"/>
  <path class="cls-4" d="M977.69,545.53c-1.73,10.02,23.2,15.38,26.21,26.53,4.8,17.8-44.1,50.02-81.02,44.81-5.22-.74-18.28-6.18-21.45-3.23-.82.77-.67,1.78-.48,2.87.71,4.05,4.33,5.66,17.16,14.34,1.7,1.15,5.16,3.34,10.49,5.28.45.17.9.3,1.42.45,9.69,2.76,16.39.73,17.63,0,.02-.01.11-.06.23-.14.55-.31,1.92-1.06,3.86-1.76.6-.22,1.29-.42,2.1-.61,1.65-.38,5.68-1.11,12.87.36,6.1,1.24,9.42,3.03,11.91,3.94,13.64,4.98,33.49-5.06,34.79-5.74,12.9-6.69,17.36-16.32,21.92-26.17,4.73-10.21,5.26-18.84,5.72-26.17.36-5.79-.03-9.61-.95-13.26-1.39-5.55-3.72-9.58-5.24-12.19-2.88-4.92-4.77-8.15-9.05-11.47-2.14-1.66-5.85-4.5-11.91-6.09-5.53-1.45-10.55-1.24-14.3-1.08-2.49.11-4.24.34-7.15.72-5.9.77-8.9,1.19-10.96,2.51-3.09,1.98-3.63,5.04-3.81,6.09Z"/>
</svg>