<?xml version="1.0" encoding="UTF-8"?>
<svg id="Layer_1" data-name="Layer 1" xmlns="http://www.w3.org/2000/svg" version="1.1" viewBox="0 0 1920 1080">
  <defs>
    <style>
      .cls-1 {
        fill: #916d46;
      }

      .cls-1, .cls-2, .cls-3, .cls-4, .cls-5, .cls-6 {
        stroke-width: 0px;
      }

      .cls-2 {
        fill: #5fc447;
      }

      .cls-3 {
        fill: #e64c3c;
      }

      .cls-4 {
        fill: #b2413b;
      }

      .cls-7 {
        fill: none;
        stroke: #000;
        stroke-miterlimit: 10;
      }

      .cls-5 {
        fill: #24ae5f;
      }

      .cls-6 {
        fill: #c64946;
      }
    </style>
  </defs>
  <path class="cls-7" d="M97.98,683.85"/>
  <path class="cls-7" d="M1693.2,595.67"/>
  <path class="cls-4" d="M1252.74,121.12"/>
  <path class="cls-1" d="M1412.69,461.84c.95.83,1.74-.13,4.16.65,1.53.5,2.31,1.24,4.22,2.72,3.4,2.63,3.9,2.59,5.57,3.96,3.65,2.98,5.69,6.79,7.65,10.46,3.03,5.65,2.24,10.91,5.22,13.68.45.42,1.57,1.43,3.24,1.54.56.03,1.92.12,3.26-1.03,1.41-1.21,2.3-3.34,2.37-5.29.06-1.61-.48-2.05-1.48-5.38-.75-2.51-.68-3.04-1.18-4.81-.74-2.61-1.68-4.19-3.51-7.24-2.66-4.43-5.09-7.36-5.7-8.09-1.4-1.67-3.54-4.19-6.69-6.7-4.33-3.45-4.88-2.34-10.25-6.23-3.23-2.34-3.87-3.36-4.97-2.83-3.07,1.46-4.46,12.38-1.9,14.62Z"/>
  <path class="cls-2" d="M1416.8,430.59c4.36-4.85,8.17-8.74,11.11-11.64,4.39-4.34,6.13-5.75,8.43-6.91.91-.46,4.51-2.21,9.24-2.16,2.57.03,3.21.56,11.1,3.28,7.97,2.75,9.11,2.82,9.73,4.61.28.8.62,2.4-3.86,14.83-2.14,5.93-3.21,8.89-4.45,11.14-1.28,2.33-4.23,7.54-9.52,11.38-.88.64-3.99,2.81-8.34,3.84-.87.21-3.82.85-8.17.27-6.35-.85-12.68-1.82-15.76-8.12-3.87-7.9-.04-19.01.49-20.5Z"/>
  <path class="cls-5" d="M1417.71,442.05c3.14-1.78,4.5.37,9.38-.59,1.85-.36,3.15-.97,5.76-2.19,2.69-1.26,4.53-2.44,7.66-4.46,3.82-2.46,5.72-3.69,6.53-4.64,1.98-2.32,2.93-4.72,5.1-5.38.4-.12,1.6-.48,2.27.35.33.42.43,1.01.52,1.62,0,0,.2,1.28-.01,2.57-.52,3.16-7.38,7.59-7.38,7.59-8.79,5.67-6.69,5.21-10.4,7.12-7.96,4.1-13.91,4.34-17.72,4.44-4.79.13-5.47-.76-5.59-1.39-.26-1.39,1.78-3.86,3.88-5.05Z"/>
  <path class="cls-3" d="M1415.77,464.38c0-5.33.62-13.14,4.05-20.98,2.92-6.66,5.3-7.47,8.4-14.12,5.12-11,4.9-22.29,4.76-25.5-.67-14.72-7.33-23.75-9.08-26.11-14.04-19.01-38.61-13.23-47.8-11.07,0,0-32.51,7.65-49.53,39.6-1.3,2.44-3.29,6.18-3.69,11.26-.45,5.73,1.61,7.04,1.96,14.71.13,2.77.33,8.4-1.82,14.12-1.85,4.91-4.12,6.4-5.65,8.89-6.09,9.93,1.69,32.32,8.14,44.49,1.7,3.21,10.76,19.73,28.8,28.68,15.76,7.82,29.54,5.46,33.32,4.69,8.02-1.63,16.27-3.31,23.21-12.32,7.88-10.24,9-23.34,9.38-27.86,1.22-14.26-2.75-24.6-4.45-28.48Z"/>
  <path class="cls-6" d="M1413.68,472.8c-10.27-3.47-20.03,21.92-32.27,23.26-19.55,2.13-45.45-54.7-33.88-92.75,1.63-5.38,9.52-18.24,6.93-22.07-.67-.99-1.77-.99-2.94-.97-4.38.08-6.67,3.63-17.93,15.72-1.49,1.6-4.36,4.89-7.29,10.19-.25.45-.47.9-.71,1.42-4.51,9.76-3.46,17.15-2.9,18.58,0,.03.05.12.1.27.24.63.8,2.2,1.22,4.36.13.67.24,1.43.3,2.31.13,1.81.23,6.17-2.5,13.5-2.31,6.22-4.75,9.43-6.12,11.91-7.5,13.55-.18,36.12.32,37.61,4.92,14.69,14.34,20.98,23.97,27.41,9.98,6.66,18.98,8.65,26.63,10.33,6.04,1.33,10.13,1.55,14.13,1.18,6.07-.56,10.71-2.34,13.71-3.52,5.66-2.22,9.37-3.68,13.58-7.65,2.1-1.98,5.7-5.42,8.38-11.55,2.44-5.58,3.04-10.92,3.49-14.89.3-2.64.34-4.53.42-7.65.16-6.35.21-9.57-.84-11.96-1.58-3.58-4.71-4.66-5.79-5.02Z"/>
</svg>