<?xml version="1.0" encoding="utf-8"?>
<!-- Generator: Adobe Illustrator 25.0.0, SVG Export Plug-In . SVG Version: 6.00 Build 0)  -->
<svg version="1.1" id="Layer_1" xmlns="http://www.w3.org/2000/svg" xmlns:xlink="http://www.w3.org/1999/xlink" x="0px" y="0px"
	 viewBox="0 0 1920 1080" style="enable-background:new 0 0 1920 1080;" xml:space="preserve">
<style type="text/css">
	.st0{fill:#5FC447;}
	.st1{fill:#24AE5F;}
	.st2{fill:#E64C3C;}
</style>
<path class="st0" d="M837.1,750.23c-10.32,0.64-18.94,0.82-25.49,0.84c-9.79,0.03-13.32-0.31-17.22-1.54
	c-1.54-0.49-7.54-2.51-12.84-7.81c-2.88-2.88-3.01-4.19-8.9-16.03c-5.95-11.97-7.15-13.3-5.87-16.01
	c0.57-1.21,1.98-3.41,20.85-12.49c9.01-4.33,13.51-6.5,17.41-7.66c4.04-1.21,13.17-3.84,23.4-2.31c1.7,0.25,7.64,1.25,13.7,4.91
	c1.22,0.73,5.26,3.28,9.53,8.77c6.23,8.01,12.3,16.13,8.78,26.68C856.03,740.82,839.35,749.14,837.1,750.23z"/>
<path class="st1" d="M848.8,736.24c-5.53-1.47-4.68-5.41-11.26-9.74c-2.49-1.64-4.64-2.4-8.94-3.92c-4.44-1.57-7.84-2.27-13.62-3.46
	c-7.05-1.45-10.58-2.18-12.54-2c-4.82,0.43-8.56,2.09-11.74,0.43c-0.59-0.31-2.35-1.23-2.17-2.92c0.09-0.85,0.65-1.62,1.22-2.42
	c0,0,1.2-1.66,2.87-2.89c4.1-3,16.78-0.4,16.78-0.4c16.24,3.33,13.36,1.53,19.67,3.49c13.55,4.19,20.54,10.54,24.95,14.65
	c5.56,5.18,5.34,6.93,4.77,7.77C857.56,736.7,852.51,737.23,848.8,736.24z"/>
<path class="st2" d="M974,743.31c26.11,11.78,10.23,53.01,9.68,57.72c-2.07,17.84-10.27,45.94-24.14,47.4
	c-3.49,0.37-7.01-0.98-12.62,1.08c-6.53,2.41-10.47,7.46-12.38,9.97c-5.29,6.95-4.05,10.45-8.77,14.83
	c-4.18,3.87-9.08,4.77-12.27,5.36c-41.84,7.66-82.34-23.3-82.34-23.3c-11.46-8.76-42.06-32.16-43.06-64.6
	c-0.12-4.04-0.6-19.43,9.56-32.78c2.21-2.9,10.32-12.8,23.93-16.29c8.24-2.11,11.38-0.06,19.43-2.38
	c9.47-2.73,15.9-8.69,19.84-13.25c1.04-5.27,4.43-18.68,16.27-29.46c0.52-0.47,1.18-1.07,1.97-1.76l0,0
	c22.39,37.14,62.33,58.06,92.26,48.32L974,743.31z"/>
</svg>
