<?xml version="1.0" encoding="utf-8"?>
<!-- Generator: Adobe Illustrator 25.0.0, SVG Export Plug-In . SVG Version: 6.00 Build 0)  -->
<svg version="1.1" id="Layer_1" xmlns="http://www.w3.org/2000/svg" xmlns:xlink="http://www.w3.org/1999/xlink" x="0px" y="0px"
	 viewBox="0 0 1920 1080" style="enable-background:new 0 0 1920 1080;" xml:space="preserve">
<style type="text/css">
	.st0{fill:#916D46;}
	.st1{fill:#5FC447;}
	.st2{fill:#24AE5F;}
	.st3{fill:#E64C3C;}
	.st4{fill:#C64946;}
	.st5{fill:#B2413B;}
	.st6{display:none;}
	.st7{font-family:'ComicBook';}
	.st8{font-size:121.0785px;}
</style>
<path class="st0" d="M135.91,546.09c1.09-0.82,0.73-1.89,2.47-4.28c1.11-1.51,2.05-2.18,4.09-3.86c3.64-3.01,3.84-3.55,5.69-5.01
	c4.02-3.19,7.93-4.47,11.67-5.71c5.79-1.91,9.45,0.18,12.99-2.35c0.53-0.38,1.85-1.34,2.72-3.1c0.29-0.59,1-2.02,0.75-3.72
	c-0.26-1.78-1.48-3.24-2.94-3.77c-1.21-0.44-1.81,0.03-4.84,0.32c-2.29,0.21-2.66,0.01-4.26,0.13c-2.36,0.18-4.02,0.81-7.23,2.05
	c-4.67,1.8-8.07,3.7-8.93,4.18c-1.94,1.1-4.9,2.79-8.33,5.56c-4.7,3.81-4.11,4.66-9.66,9.47c-3.33,2.89-4.42,3.34-4.54,4.64
	C125.23,544.25,132.97,548.3,135.91,546.09z"/>
<path class="st1" d="M113.82,534.37c-1.66-5.79-2.85-10.76-3.68-14.58c-1.25-5.7-1.51-7.89-1.32-10.62
	c0.08-1.08,0.44-5.32,2.72-10.36c1.24-2.74,1.95-3.29,7.79-11.07c5.9-7.86,6.49-9.05,8.16-9.29c0.74-0.11,2.14-0.09,9.57,7.6
	c3.54,3.67,5.32,5.51,6.45,7.36c1.18,1.92,3.79,6.28,4.23,12.82c0.07,1.09,0.27,4.92-1,9.8c-0.25,0.98-1.16,4.27-3.67,8.77
	c-3.67,6.57-7.41,13.09-13.72,14.9C121.44,541.98,114.72,535.29,113.82,534.37z"/>
<path class="st2" d="M123.07,536.08c0.12-3.76,2.42-4.72,4-10.14c0.6-2.05,0.75-3.59,1.05-6.66c0.31-3.17,0.27-5.41,0.2-9.22
	c-0.08-4.65-0.12-6.97-0.47-8.05c-0.85-2.65-2.24-4.23-1.72-6.7c0.1-0.45,0.39-1.82,1.35-2.33c0.48-0.26,0.98-0.22,1.5-0.17
	c0,0,1.08,0.09,1.97,0.62c2.19,1.29,2.34,9.65,2.34,9.65c0.19,10.7,0.83,8.36,0.54,12.76c-0.62,9.45-3.27,15.85-5,19.94
	c-2.18,5.14-3.18,5.66-3.72,5.63C123.92,541.36,122.99,538.61,123.07,536.08z"/>
<path class="st3" d="M139.33,543.39c-4.1-1.25-9.81-3.74-14.21-9.24c-3.74-4.68-3.23-7.41-6.88-12.27
	c-6.03-8.04-14.82-10.46-17.35-11.06c-11.64-2.74-21.74,2.25-24.39,3.55c-21.28,10.51-28.5,38.07-31.2,48.38
	c0,0-9.54,36.47,6.95,62.11c1.26,1.95,3.19,4.96,6.9,6.58c4.19,1.83,6.18-0.06,12.24,1.36c2.19,0.52,6.62,1.62,10,5.25
	c2.9,3.12,2.97,5.89,4.16,8.11c4.75,8.83,25.66,5.79,38.08,1.76c3.28-1.06,20.28-6.84,35.72-23.98
	c13.49-14.98,18.22-30.22,19.42-34.43c2.55-8.94,5.18-18.13,1.54-27.64c-4.13-10.81-13.68-15.07-16.97-16.54
	C152.95,540.69,143.11,542.49,139.33,543.39z"/>
<path class="st4" d="M144.81,547.6c-7.54,10.14,7.35,26.5,2.57,39.87c-7.64,21.35-63.64,35.63-87.41,14.37
	c-3.36-3.01-9.51-14.44-13.68-12.57c-1.08,0.48-1.6,1.65-2.15,2.91c-2.02,4.69-0.37,7.97,3.58,22.82c0.52,1.97,1.69,5.8,4.37,10.17
	c0.23,0.37,0.47,0.71,0.76,1.09c5.37,7.1,11.54,7.72,12.91,7.46c0.02,0,0.12-0.02,0.26-0.05c0.6-0.11,2.07-0.34,3.93-0.28
	c0.58,0.02,1.21,0.08,1.92,0.22c1.45,0.28,4.85,1.2,9.2,5.83c3.69,3.93,5,7.28,6.25,9.32c6.87,11.18,27.69,8.67,29.07,8.49
	c13.64-1.8,22.94-10.37,32.45-19.13c9.86-9.08,15.66-18.22,20.59-25.98c3.89-6.13,6-10.44,7.61-14.8c2.45-6.61,3.28-11.97,3.8-15.44
	c0.98-6.56,1.62-10.86,0.56-16.28c-0.53-2.7-1.46-7.35-4.91-11.65c-3.14-3.91-6.95-5.81-9.8-7.21c-1.89-0.94-3.32-1.43-5.68-2.24
	c-4.81-1.66-7.26-2.48-9.6-1.91C147.91,543.44,145.61,546.53,144.81,547.6z"/>
<path class="st5" d="M1512.75,954.63"/>
<text transform="matrix(0.6685 0 0 1 585.124 536.37)" class="st6 st7 st8">I ate gravity?!</text>
</svg>
