<?xml version="1.0" encoding="utf-8"?>
<!-- Generator: Adobe Illustrator 25.0.0, SVG Export Plug-In . SVG Version: 6.00 Build 0)  -->
<svg version="1.1" id="Layer_1" xmlns="http://www.w3.org/2000/svg" xmlns:xlink="http://www.w3.org/1999/xlink" x="0px" y="0px"
	 viewBox="0 0 1920 1080" style="enable-background:new 0 0 1920 1080;" xml:space="preserve">
<style type="text/css">
	.st0{fill:#916D46;}
	.st1{fill:#5FC447;}
	.st2{fill:#24AE5F;}
	.st3{fill:#E64C3C;}
	.st4{fill:#C64946;}
</style>
<path class="st0" d="M1007.75,424.05c2.85-5.59-1.9-8.84-0.35-21.92c0.98-8.28,3.59-12.97,8.51-24.05
	c8.77-19.78,8.2-22.29,12.83-32.1c10.07-21.34,24.96-35.18,39.24-48.47c22.06-20.52,45.29-21.03,54.96-38.76
	c1.46-2.67,4.98-9.34,4.16-18c-0.28-2.93-0.95-9.95-6.92-15.83c-6.26-6.17-16.14-8.9-24.58-7.57c-6.98,1.1-8.47,4.28-22.04,12.32
	c-10.25,6.07-12.57,6.14-19.85,10.29c-10.69,6.1-16.77,12.31-28.51,24.38c-17.06,17.54-27.85,32.57-30.54,36.37
	c-6.12,8.63-15.38,21.84-23.81,40.25c-11.57,25.26-6.36,27.13-19.08,58.1c-7.65,18.63-11.53,22.83-8.44,28.04
	C951.93,441.61,1000.04,439.18,1007.75,424.05z"/>
<path class="st1" d="M870,430.29c-24.18-18.17-43.83-34.3-58.56-46.87c-22.01-18.77-29.41-26.49-36.17-37.27
	c-2.68-4.28-12.92-21.22-16.3-45.57c-1.84-13.23-0.03-16.98,5.71-59.88c5.8-43.38,5.26-49.25,12.47-54.01
	c3.22-2.12,9.89-5.28,66.81,6.88c27.16,5.8,40.73,8.7,51.35,13.11c10.99,4.57,35.7,15.14,56.21,38.94
	c3.41,3.95,15.14,18.06,22.87,39.48c1.55,4.3,6.55,18.89,7.34,41.73c1.15,33.37,1.77,66.71-23.04,88.06
	C927.58,441.66,876.81,431.72,870,430.29z"/>
<path class="st2" d="M918.68,415.54c-10.05-14.56-1.84-23.45-9.66-47.67c-2.96-9.17-6.57-15.34-13.79-27.67
	c-7.45-12.73-13.96-21.15-25.03-35.46c-13.5-17.45-20.25-26.18-24.93-29.48c-11.51-8.13-22.57-10.93-27.03-21.48
	c-0.82-1.95-3.3-7.81-0.19-11.95c1.56-2.09,4.05-3.08,6.6-4.09c0,0,5.35-2.13,11.08-2.17c14.02-0.11,38.3,31.26,38.3,31.26
	c31.1,40.17,27.52,29.83,38.56,47.2c23.69,37.28,29.22,67.68,32.53,87.15c4.17,24.52,0.87,28.77-1.74,29.92
	C937.61,433.63,925.41,425.31,918.68,415.54z"/>
<path class="st3" d="M1016.36,405.97c-22.96,4.69-57.07,8.33-93.43-2.46c-30.91-9.17-36.19-20.7-67.2-30.79
	c-51.24-16.67-99.75-5.68-113.43-2.13c-62.91,16.31-96.74,58.44-105.61,69.49c-71.27,88.76-27.75,209.92-11.46,255.27
	c0,0,57.59,160.33,208.09,219.79c11.47,4.53,29.12,11.5,51.29,9.12c25.04-2.69,29.13-14.44,61.89-22.93
	c11.83-3.07,35.93-9.05,62.21-3.01c22.56,5.19,30.67,15.54,42.59,21.22c47.4,22.59,137.96-36.94,185.47-80.76
	c12.54-11.56,76.86-72.54,101.72-173.05c21.73-87.82,1.14-156.53-5.04-175.29c-13.11-39.79-26.58-80.69-70.67-108.45
	c-50.06-31.53-107.36-25.8-127.12-23.83C1073.3,364.42,1031.75,393.85,1016.36,405.97z"/>
<path class="st4" d="M1054.21,409.34c-7.18,55.81,109.6,83.7,124.63,145.43c24,98.56-201.22,281.36-373.89,255.23
	c-24.4-3.69-85.81-32.95-100.32-16.29c-3.77,4.33-2.94,9.96-1.97,15.97c3.65,22.46,20.71,31.11,81.3,78.38
	c8.03,6.27,24.36,18.15,49.42,28.56c2.13,0.88,4.21,1.62,6.66,2.41c45.45,14.63,76.5,2.79,82.25-1.35c0.1-0.07,0.5-0.36,1.08-0.77
	c2.54-1.79,8.86-6.03,17.87-10.08c2.79-1.26,5.97-2.46,9.72-3.56c7.68-2.25,26.4-6.58,60.05,1.01
	c28.57,6.44,44.23,16.14,55.92,21.01c64.07,26.65,155.75-30.68,161.76-34.53c59.56-38.15,79.52-92.04,99.92-147.11
	c21.15-57.1,22.87-105.1,24.34-145.88c1.16-32.18-1.02-53.41-5.63-73.64c-7-30.72-18.19-52.96-25.54-67.34
	c-13.87-27.14-22.96-44.93-43.26-63.06c-10.13-9.05-27.67-24.55-56.12-32.96c-25.9-7.66-49.34-6.07-66.78-4.89
	c-11.61,0.79-19.76,2.19-33.28,4.53c-27.47,4.75-41.4,7.27-50.9,14.78C1057.2,386.44,1054.97,403.46,1054.21,409.34z"/>
</svg>
