<?xml version="1.0" encoding="utf-8"?>
<!-- Generator: Adobe Illustrator 25.0.0, SVG Export Plug-In . SVG Version: 6.00 Build 0)  -->
<svg version="1.1" id="Layer_1" xmlns="http://www.w3.org/2000/svg" xmlns:xlink="http://www.w3.org/1999/xlink" x="0px" y="0px"
	 viewBox="0 0 1920 1080" style="enable-background:new 0 0 1920 1080;" xml:space="preserve">
<style type="text/css">
	.st0{fill:#916D46;}
	.st1{fill:#5FC447;}
	.st2{fill:#24AE5F;}
	.st3{fill:#E64C3C;}
	.st4{fill:#C64946;}
	.st5{fill:#B2413B;}
	.st6{display:none;}
	.st7{font-family:'ComicBook';}
	.st8{font-size:121.0785px;}
</style>
<path class="st0" d="M1549.36,864.94c0.5-1.18-0.3-1.89,0-4.68c0.19-1.76,0.65-2.75,1.53-5.1c1.56-4.19,1.47-4.73,2.29-6.8
	c1.79-4.52,4.38-7.42,6.86-10.2c3.84-4.3,7.83-4.33,9.53-8.08c0.26-0.56,0.88-1.98,0.76-3.83c-0.04-0.63-0.14-2.12-1.14-3.4
	c-1.06-1.34-2.74-1.96-4.19-1.7c-1.2,0.21-1.46,0.88-3.81,2.55c-1.77,1.26-2.17,1.27-3.43,2.13c-1.85,1.26-2.91,2.57-4.96,5.1
	c-2.97,3.68-4.87,6.85-5.34,7.65c-1.07,1.82-2.7,4.61-4.19,8.5c-2.05,5.35-1.17,5.76-3.43,12.33c-1.36,3.95-2.04,4.83-1.53,5.95
	C1539.74,868.49,1547.99,868.14,1549.36,864.94z"/>
<path class="st1" d="M1525.72,865.79c-4.1-3.96-7.42-7.47-9.92-10.2c-3.72-4.08-4.97-5.75-6.1-8.08c-0.45-0.92-2.16-4.57-2.67-9.78
	c-0.28-2.83,0.04-3.62,1.14-12.75c1.12-9.23,1.04-10.49,2.29-11.48c0.56-0.44,1.71-1.09,11.44,1.7c4.64,1.33,6.96,2,8.77,2.98
	c1.87,1.01,6.08,3.35,9.53,8.5c0.57,0.86,2.55,3.91,3.81,8.5c0.25,0.92,1.07,4.05,1.14,8.93c0.11,7.12,0.12,14.24-4.19,18.7
	C1535.56,868.42,1526.88,866.12,1525.72,865.79z"/>
<path class="st2" d="M1534.11,862.81c-1.68-3.14-0.25-5.01-1.53-10.2c-0.48-1.97-1.08-3.29-2.29-5.95
	c-1.24-2.74-2.34-4.56-4.19-7.65c-2.27-3.77-3.4-5.65-4.19-6.38c-1.95-1.77-3.84-2.41-4.58-4.68c-0.14-0.42-0.54-1.68,0-2.55
	c0.27-0.44,0.7-0.64,1.14-0.85c0,0,0.92-0.44,1.91-0.43c2.4,0.03,6.48,6.8,6.48,6.8c5.22,8.68,4.64,6.46,6.48,10.2
	c3.96,8.04,4.82,14.54,5.34,18.7c0.65,5.24,0.07,6.14-0.38,6.38C1537.3,866.74,1535.23,864.92,1534.11,862.81z"/>
<path class="st3" d="M1550.89,861.11c-3.95,0.92-9.81,1.58-16.02-0.85c-5.28-2.06-6.15-4.54-11.44-6.8
	c-8.74-3.74-17.09-1.56-19.45-0.85c-10.84,3.26-16.75,12.13-18.31,14.45c-12.47,18.68-5.34,44.68-2.67,54.41
	c0,0,9.44,34.4,35.09,47.61c1.96,1.01,4.96,2.56,8.77,2.13c4.3-0.49,5.04-2.98,10.68-4.68c2.04-0.61,6.19-1.81,10.68-0.43
	c3.85,1.18,5.22,3.42,7.25,4.68c8.07,4.99,23.76-7.4,32.03-16.58c2.18-2.42,13.38-15.2,17.92-36.56
	c3.97-18.66,0.63-33.39-0.38-37.41c-2.14-8.53-4.34-17.3-11.82-23.38c-8.5-6.9-18.34-5.88-21.74-5.53
	C1560.77,852.45,1553.56,858.58,1550.89,861.11z"/>
<path class="st4" d="M1557.37,861.96c-1.38,11.88,18.57,18.24,20.97,31.46c3.84,21.11-35.29,59.31-64.83,53.14
	c-4.17-0.87-14.63-7.33-17.16-3.83c-0.66,0.91-0.53,2.11-0.38,3.4c0.56,4.8,3.47,6.71,13.73,17c1.36,1.36,4.13,3.96,8.4,6.26
	c0.36,0.2,0.72,0.36,1.14,0.54c7.76,3.28,13.11,0.86,14.11,0c0.02-0.02,0.09-0.08,0.19-0.16c0.44-0.37,1.54-1.26,3.09-2.09
	c0.48-0.26,1.03-0.5,1.68-0.73c1.32-0.45,4.55-1.31,10.3,0.43c4.88,1.47,7.54,3.6,9.53,4.68c10.92,5.91,26.8-6,27.84-6.8
	c10.32-7.93,13.89-19.36,17.54-31.03c3.78-12.11,4.21-22.34,4.58-31.03c0.29-6.86-0.03-11.4-0.76-15.73
	c-1.12-6.58-2.97-11.36-4.19-14.45c-2.3-5.84-3.82-9.66-7.25-13.6c-1.71-1.97-4.68-5.33-9.53-7.23c-4.42-1.72-8.45-1.47-11.44-1.28
	c-1.99,0.13-3.39,0.4-5.72,0.85c-4.72,0.92-7.12,1.41-8.77,2.98C1557.95,857.09,1557.51,860.71,1557.37,861.96z"/>
<path class="st5" d="M849.01,99.52"/>
<text transform="matrix(0.6685 0 0 1 585.124 536.37)" class="st6 st7 st8">I ate gravity?!</text>
</svg>
