<?xml version="1.0" encoding="utf-8"?>
<!-- Generator: Adobe Illustrator 25.0.0, SVG Export Plug-In . SVG Version: 6.00 Build 0)  -->
<svg version="1.1" id="Layer_1" xmlns="http://www.w3.org/2000/svg" xmlns:xlink="http://www.w3.org/1999/xlink" x="0px" y="0px"
	 viewBox="0 0 1920 1080" style="enable-background:new 0 0 1920 1080;" xml:space="preserve">
<style type="text/css">
	.st0{fill:#28A7E0;}
	.st1{fill:#79B7E4;}
	.st2{fill:#F8B72B;}
	.st3{fill:#F4BA26;}
	.st4{fill:#FFFFFF;}
</style>
<path d="M726.76,774.33c3.61-6.75,7.36-13.41,11.17-20.06c0.3-0.51,0.19-1.08,0.39-1.43c7.1-12.28,15.67-24.74,25.39-35.08
	c0.48-0.2,0.59-0.1,0.96,0.17c0.9,0.65,4.78,6.27,5.34,6.09c6.26-6.37,12.38-13.24,20.07-17.95c5.93,9.56,11.95,19.53,13.63,30.83
	l12.7-8.07l7.93-4.09c-1.6,14.08-7.24,27.42-13.46,40.06c3.12,18.71,1.86,40.97-7.3,57.89c-1.93,3.57-4.87,6.46-5.09,10.62
	l7.45,0.14l22.13-13.32c-0.47,1.89-1.64,3.58-2.46,5.32c-0.15,0.32-0.55,0.28-0.02,0.88l6.67-2.49c-0.63,1.02-1.55,4.35-2.3,4.98
	c-1.12,0.92-4.07,1.2-5.36,2.21l3.53-0.5l-4.09,9.44l-2.02,1.48l3.17-0.93c0.85-0.24,5.6-2.65,5.9-2.05l-2.2,5.04l-6.95,2.91
	l4.51-0.81c0.53,0.6,0.12,0.56-0.03,0.88c-0.6,1.29-1.46,2.52-1.96,3.87l-19.69,4.82c-3.18,0.48-11.55-0.42-13.9,0.56
	c-0.64,0.27-1.58,1.63-2.34,2.15c-6.15,4.19-17.56,1.73-22.45-3.65c-6.71,2.01-13.56,3.5-20.6,3.43
	c-18.5-0.19-36.4-11.53-43.65-28.8c-13.41,7.51-30.28,6.58-43.14-1.47c-1.02-0.64-4.73-3.81-5.5-3.89l-22.43,6.44l12.06-18.53
	l-27.12-6.26c5.93-6.01,12.01-12.54,20.23-15.4c0.22-4.49,0.41-8.93,1.35-13.33c6.64-31.02,42.83-46.51,69.54-29.14
	c9.63,6.26,16.7,16.07,19.97,27.06L726.76,774.33z M660.14,747.47c-34.85,20.27-27.44,73.47,11.06,83.74
	c13.05,3.48,34.93-0.64,40.14-14.7c2.55-6.89,3.26-14.93,6.24-21.75l8.11-18.16C718.85,747.63,686.38,732.21,660.14,747.47
	L660.14,747.47z M764.03,719.5c-8.74,9.43-16.33,20.52-22.89,31.56c-10.16,17.11-20.19,36.56-25.89,55.7
	c-0.37,1.25-2.32,8.66-2.13,9.34c0.39,1.38,6.43,4.61,7.96,5.25c16.79,7.06,36.21-1.26,49.48-12.2
	c8.59-7.08,11.03-11.83,13.33-22.48c4.62-21.33-1.07-41.9-13.7-59.51C768.3,724.5,766.2,721.96,764.03,719.5L764.03,719.5z
	 M789.49,707.89c-6.67,5.32-13.12,11.01-18.58,17.57c5.87,7.97,10.65,16.87,13.24,26.45l18-14.37
	C801.01,726.64,795.14,717.03,789.49,707.89L789.49,707.89z M636.15,791.18c-6.75,2.99-12.73,7.62-17.38,13.32l22.86,4.68
	C638.55,803.63,636.81,797.46,636.15,791.18L636.15,791.18z M651.73,822.13c-2.92-2.74-5.82-5.72-7.8-9.23l-9.54,13.83
	L651.73,822.13z M822.57,727.18c-13.37,7.6-26.64,15.8-37.67,26.59c1.93,9.42,2.81,18.64,1.43,28.19
	c-1.91,13.25-4.6,20.17-15.29,28.86c-16.24,13.2-40.55,21.54-58.65,7.29c-0.96,1.65-2.09,3.5-3.34,4.93
	c-1.68,1.89-3.54,2.98-5.24,4.58c-1.08,1.02,1.07,4.41,1.75,5.57c11.93,20.5,36.23,27.12,58.06,20.09
	c39.66-12.79,52.45-50.74,45.6-88.74C815.43,752.8,820.24,740.25,822.57,727.18L822.57,727.18z M797.06,832.73l-4.1,4.57
	c-0.24,0.73,0.42,1.46,0.72,2.1C795.21,837.41,796.77,835.32,797.06,832.73L797.06,832.73z M824.67,823.8l-17.63,11
	c-2.82,0.81-5.86,0.32-8.7,0.05l-1.58,3.17c3.43-0.16,7.73,0.29,11.06-0.2c5.42-0.8,11.38-3.07,16.83-4.13l0.73-1.16l-10.21,2.22
	c-0.76-1.16-0.72-1.59,0.53-2.12c3.85-1.64,9.26-2.88,12.8-4.72c0.62-0.32,0.94-0.89,0.86-1.59l-13.62,5.46l-1.24-1.2
	c2.93-2.2,6.54-3.35,9.42-5.62c0.39-0.31,0.93-0.48,0.74-1.14L824.67,823.8z M789.53,854.57c3.41-4.55,5.41-10.86,1.88-15.9
	c-6.67,6.68-15.09,11.32-23.76,14.91c2.17,2.05,4.8,3.68,7.74,4.33c1.9,0.42,7.88,0.61,9.51-0.02
	C787.29,856.97,788.14,856.43,789.53,854.57L789.53,854.57z M823.15,835.56c-4.91,1.11-10.38,3.08-15.32,3.75
	c-3.23,0.44-7.06-0.07-10.36,0.34c-0.92,0.12-2.93,0.21-3.18,1.32c-0.08,0.39,0.4,3.54,0.37,4.61c-0.03,0.96-0.16,1.92-0.49,2.84
	c0.19,0.35,5.48,0.32,6.33,0.34c0.62,0.01,0.53,0.67,2.02,0.08c2.36-1.39,5.44-2.78,7.66-4.31c0.53-0.37-0.01-0.72,0.53-1.09
	c3.21-2.21,7.42-4.15,10.8-6.3C821.9,836.9,823.24,836.08,823.15,835.56L823.15,835.56z M798.08,850.63
	c-0.19-0.02-0.54-0.4-0.97-0.45c-1.01-0.11-2.1,0.02-3.13-0.27l-1.78,4.25c3.64-0.75,7.66-0.05,11.27-0.44
	c6.33-0.69,13.07-3.45,19.44-4.43l1.15-1.71l-11.56,2.54c-0.76-1.16-0.72-1.59,0.53-2.12c4.02-1.71,8.86-2.87,12.78-4.71
	c1.06-0.49,2.17-1,2.46-2.24l-15.52,5.92l-0.77-1.5c2.89-2,7.45-3.66,10.15-5.63c0.47-0.35,1.02-0.93,0.92-1.58l-19.44,11.94
	C802.37,850.75,799.49,850.73,798.08,850.63z"/>
<path class="st0" d="M660.14,747.47c26.24-15.26,58.72,0.15,65.54,29.14l-8.11,18.16c-2.98,6.82-3.69,14.86-6.24,21.75
	c-5.21,14.06-27.09,18.17-40.14,14.7C632.7,820.95,625.28,767.75,660.14,747.47L660.14,747.47z M657.98,789.89
	c-3.25,10.6,12.35,17.85,16.93,7.02C679.73,785.52,661.64,777.95,657.98,789.89z"/>
<path class="st0" d="M822.57,727.18c-2.32,13.07-7.13,25.62-13.34,37.35c6.85,38-5.93,75.96-45.6,88.74
	c-21.83,7.04-46.13,0.42-58.06-20.09c-0.67-1.16-2.84-4.55-1.75-5.57c1.7-1.6,3.57-2.69,5.24-4.58c1.26-1.42,2.38-3.28,3.34-4.93
	c18.1,14.25,42.41,5.91,58.65-7.29c10.69-8.69,13.38-15.61,15.29-28.86c1.38-9.55,0.5-18.78-1.43-28.19
	C795.93,742.97,809.2,734.78,822.57,727.18L822.57,727.18z"/>
<path class="st1" d="M764.03,719.5c2.16,2.46,4.26,5,6.17,7.67c12.63,17.61,18.32,38.17,13.7,59.51
	c-2.31,10.65-4.74,15.4-13.33,22.48c-13.27,10.93-32.7,19.25-49.48,12.2c-1.53-0.64-7.57-3.87-7.96-5.25
	c-0.19-0.68,1.75-8.09,2.13-9.34c5.7-19.15,15.74-38.59,25.89-55.7C747.7,740.02,755.3,728.93,764.03,719.5L764.03,719.5z"/>
<path class="st1" d="M789.49,707.89c5.65,9.14,11.52,18.76,12.67,29.65l-18,14.37c-2.6-9.59-7.37-18.49-13.24-26.45
	C776.38,718.9,782.83,713.2,789.49,707.89L789.49,707.89z"/>
<path class="st1" d="M789.53,854.57c-1.39,1.86-2.24,2.39-4.64,3.32c-1.63,0.63-7.6,0.44-9.51,0.02c-2.94-0.65-5.56-2.28-7.74-4.33
	c8.67-3.59,17.09-8.23,23.76-14.91C794.94,843.72,792.94,850.02,789.53,854.57L789.53,854.57z"/>
<path class="st2" d="M636.15,791.18c0.66,6.28,2.4,12.46,5.49,17.99l-22.86-4.68C623.42,798.79,629.4,794.17,636.15,791.18
	L636.15,791.18z"/>
<path class="st2" d="M798.08,850.63c1.41,0.1,4.29,0.12,5.52-0.42l19.44-11.94c0.11,0.65-0.44,1.23-0.92,1.58
	c-2.7,1.98-7.26,3.63-10.15,5.63l0.77,1.5l15.52-5.92c-0.29,1.23-1.4,1.74-2.46,2.24c-3.91,1.84-8.75,2.99-12.78,4.71
	c-1.25,0.53-1.3,0.97-0.53,2.12l11.56-2.54l-1.15,1.71c-6.36,0.98-13.1,3.74-19.44,4.43c-3.6,0.39-7.62-0.31-11.27,0.44l1.78-4.25
	c1.03,0.3,2.12,0.16,3.13,0.27C797.53,850.23,797.89,850.61,798.08,850.63z"/>
<path class="st3" d="M651.73,822.13l-17.33,4.6l9.54-13.83C645.91,816.41,648.81,819.39,651.73,822.13z"/>
<path class="st2" d="M824.67,823.8c0.18,0.66-0.35,0.83-0.74,1.14c-2.87,2.26-6.48,3.41-9.42,5.62l1.24,1.2l13.62-5.46
	c0.08,0.71-0.24,1.28-0.86,1.59c-3.54,1.84-8.95,3.08-12.8,4.72c-1.25,0.53-1.3,0.97-0.53,2.12l10.21-2.22l-0.73,1.16
	c-5.45,1.05-11.42,3.34-16.83,4.13c-3.32,0.49-7.63,0.03-11.06,0.2l1.58-3.17c2.84,0.27,5.88,0.77,8.7-0.05l17.63-11L824.67,823.8z"
	/>
<path class="st1" d="M797.06,832.73c-0.29,2.58-1.85,4.67-3.38,6.66c-0.29-0.64-0.96-1.37-0.72-2.1L797.06,832.73L797.06,832.73z"/>
<path d="M657.98,789.89c3.66-11.94,21.75-4.37,16.93,7.02C670.33,807.74,654.73,800.48,657.98,789.89z M665.71,786.28
	c-4.8-1.5-5.85,6.63-1.14,7.06C669.29,793.77,669.49,787.46,665.71,786.28z"/>
<path class="st4" d="M665.71,786.28c3.79,1.19,3.5,7.49-1.14,7.06C659.94,792.91,660.9,784.77,665.71,786.28z"/>
</svg>
