<?xml version="1.0" encoding="UTF-8"?>
<svg id="Layer_1" data-name="Layer 1" xmlns="http://www.w3.org/2000/svg" version="1.1" viewBox="0 0 1920 1080">
  <defs>
    <style>
      .cls-1 {
        fill: #000;
        stroke-width: 0px;
      }

      .cls-2 {
        fill: none;
        stroke: #000;
        stroke-miterlimit: 10;
      }
    </style>
  </defs>
  <path class="cls-2" d="M97.98,683.85"/>
  <path class="cls-2" d="M777.55,483.53"/>
  <path class="cls-1" d="M1070.78,503.84c1.17-1.39,1.54-1.41,2.88-.2.82-1.01,1.84-1.97.3-3.43-.03-.36-.01-.51,0-.66.29-.45.62-.94,1.22-.89,1.23.11,1.5-.71,1.79-1.82-1.03.57-1.76.26-2.32-.83-.03-.34-.02-.48,0-.61,1.3-1.29,1.81-1.24,2.84.41.28-.99.52-1.87.8-2.88-1.2.1-2.45.44-2.52-1.43.03-.17.05-.32.05-.32,1.05-1.18,1.91-.82,2.81.57.22-.88.39-1.55.59-2.36-.96-.29-2.14-.31-2.11-1.85.02-.16.05-.29.05-.29.57-.81,1.32-.99,2.19-.47.12-.25.28-.43.24-.51-.81-1.57-.8-2.99.38-4.45.36-.45.12-1.28-.63-1.73-.76-.46-.98-1.2-.53-2.14.02-.1.01-.09.01-.09,1.15-.69,1.47-1.95.61-3.11-.58-.78-.72-1.46-.23-2.5.06-.35.09-.48.12-.62-.1-2.21-.99-4.23-1.77-6.3-.64.19-1.31.01-1.59-.86-.35-1.07.67-1.13,1.25-1.54.02-1.66-.92-3.12-1.08-4.77.61-.26,1.23-.24,1.79-.62.73-.48,1.52-.21,1.73.69.18.78.65,1.04,1.3,1.16,2.24.44,4.38,1.66,6.78.82.37-.13.73.05,1.03.3.67.56,1.47.52,2.27.48.4-.02.9.11,1.07-.45.17-.55-.3-.7-.64-.95-.56-.4-.88-.93-.6-1.64.17-.44.53-.67,1-.64.57.04.97.3,1.17.89.78,2.32,1.85,2.76,4.25,1.92-1.02-1.59-2-3.22-2.56-5.32-.54-.24-1.27-.67-1.06-1.74.09-.44-.09-.68-.47-.89-.62-.33-.98-.85-.79-1.56.2-.76-.5-.82-.83-1.17-.41-.42-.56-.89-.3-1.44.21-.45.6-.58,1.06-.49.6.13.95.55.9,1.14-.06.66.01,1.11.71,1.37.48.18.69.66.63,1.18-.08.61.16.99.69,1.27.38.2.71.59.63,1.03-.13.76.59,1.04.75,1.48.55,1.5,2.1,2.59,1.86,4.5,1.28.1,2.28-.41,3.16-1.53-1.08-.49-1.42-1.21-1.36-2.39.04-.78-.76-1.67-1.17-2.34-.72-1.2-.61-2.65-1.57-3.72-.78-.87-.52-2.27-1.35-3.24-.32-.38.07-1.07.69-1.18.75-.13,1.21.27,1.32,1.02.23,1.6,1.37,2.82,1.79,4.3.39,1.38,1.45,2.46,1.52,3.92.02.4.05.71.4.95.76.53.84,1.29.56,2.36,1.2-.75,2.5-1.09,2.08-2.81-.12-.5.28-.88.62-1.36.05-.1.04-.1.04-.1,1.06.28,1.93-.01,2.3-1.06.4-1.13,1.97-2.09.54-3.57-.56-.58-.18-1.28.32-1.94.06-.09.05-.09.05-.09,1.2.4,1.74-.17,2.04-1.28.67-2.46,1.35-4.98,1.21-7.5-.08-1.44.52-3.03-.5-4.44-.48-.66.49-1.06.67-1.77-1.54-.8-1.17-1.78-.1-2.69-.1-.18-.12-.31-.2-.36-.44-.3-1.21-.32-1.06-1.16.09-.5.46-.67.94-.64.85.06.94.71,1.06,1.35.75,4.13,1.8,8.17,3.71,11.94.33.66.59,1.59,1.15,1.86,1.52.75,2.62,1.45,2.74,3.47.04.75,1.6,1.56,2.86,1.84-.1-.78-.2-1.6.76-1.92.49-.16.97.03,1.24.49.48.81-.04,1.39-.78,2.02,2.9,1,5.58.66,8.06-.41,2.78-1.2,5.61-2.42,7.78-4.69.44-.46.71-.72.52-1.45-.3-1.17.35-1.64,1.42-1.18.66.29,1.09.19,1.56-.26,2.13-2.06,4.33-4.08,6.08-6.47.74-1,1.18-2.2,2.73-2.53.21,2.14-.17,4.3.18,6.47,1.55-.03,2.71-.9,4.07-1.05.07-.65-.65-1.4.29-1.72.99-.33.83.68,1.23,1.26,3.56-.56,7.11-.29,10.52,1.09,3.94,1.59,7.11,4.14,9.42,7.72,1.98,3.09,2.02,3.12,4.84.93,2.37-1.85,4.7-3.76,7.3-5.4-1.52,1.66-3.07,3.3-4.56,5-1.18,1.35-2.3,2.77-3.41,4.18-.83,1.04-1.18,2.18-.83,3.55.28,1.07.36,2.18.53,3.31.56-.11,1.15-.52,1.57.14.12.19.12.54.03.74-.32.68-.96.43-1.59.27.09,2.55-.36,4.89-.61,7.42-.09.35-.18.54-.26.73-.58,2.26-1.59,4.35-2.68,6.39-.55,1.04-.29,1.57.82,1.92.43-.45.63-1.49,1.59-1.04,1.12.52.26,1.35.17,2.09,1.54,1,3.29,1.42,5.02,1.9.1.03.26.09.3.05,2.1-2.21,3.22,1.16,5.13.9,2.05-.27,4.2.2,6.31.35.04,0,.07.07.2.19-.54,1-2.16,1.4-1.86,2.94.02.09-.29.33-.47.36-3.37.62-5.42,3.27-7.9,5.22-.69.54-.53,1.36-.27,2.07.34.94.57,1.91-.7,2.13-1.18.21-1.29-.79-1.17-1.68-.62-.06-.86.26-.79.65.26,1.36-.2,1.96-1.6,1.67-.58-.12-.88.27-1.21.59-.53.52-1.02,1.07-1.55,1.59-1.31,1.29-1.29,1.52.33,2.77.06.33.05.48.04.64-.29.7-.84,1.3-1.56,1.09-1.54-.43-2.46.54-3.49,1.28-.83.59-1.46,1.25-.4,2.29.43.42.35,1.1-.14,1.58-.77.75-1.44.15-2.08-.25-.74.62-1.1,1.38-1.45,2.26.39.53,1.29.72,1.41,1.69.05.14.04.22.04.22-.71,1.22-1.62,1.44-2.68.49-.58.34-.8.84-.94,1.34-.27.98-.1,1.65,1.16,1.22.97-.33,1.65-.06,1.97,1.15,0,.25-.01.3-.02.35-.49,1.07-1.22,1-2.22.65-1.1-.38-2.21-.29-2.91,1.1,1.11.44,1.83,1.16,3.16,1.12.92-.03,2,.62,3.13.61.49,0,.71.57.8,1.19.02.12.02.14.02.14-.38.83-.91,1.23-1.88.87-1.51-.55-3.06-.93-4.7-.9-.46,0-.92-.15-1.35-.22-.42.38-.44.86-.52,1.24,1.48,1.14,3.55.76,4.87,2.15.09.1.39.03.59,0,1.36-.23,1.85.43,1.78,1.81,0,.12,0,.11,0,.11-1,.78-1.83-.18-2.66-.21-1.78-.06-3.23-1.54-5.13-.8-.27.71.87,2.34,1.96,2.34.81,0,1.49.07,1.83.88.19.44.46.29.77.23,1.01-.2,1.61.25,1.83,1.45-.09.4-.19.58-.28.76-.84.29-1.46.15-2.3-.4-.99-.64-2.32-.81-3.47-1.27-.36-.15-1.16-.29-1.28.49-.12.8.26,1.68.94,1.8.93.17,1.75.2,2.15,1.23.11.29.47.13.72.13,1.08-.02,1.54.55,1.49,1.7,0,.11,0,.12,0,.12-.96,1.01-1.81,1-2.49-.3-.13-.25-.22-.5-.57-.35-1.01.44-1.53-.38-2.22-.93-1.27,1.7.62,2.64.85,3.98,1.03-.29,1.9-.2,2.17,1.06.1.47.4.37.72.35,1.17-.08,1.64.52,1.6,1.74,0,.11.01.1.01.1-.9.72-1.72.77-2.4-.31-.13-.21-.37-.53-.53-.51-1.13.1-1.72-.6-2.24-1.61-1.48,1.9.76,3.48-.02,5.27.71-.59,1.33-.85,1.99-.3.4.34.53.79.33,1.29-.41.99-1.27.7-2.03.67-.27,1.95.79,3.57,1.22,5.44.71-.03,1.69-.2,1.81.99.1,1.02-.74,1.12-1.61,1.27.45,1.67.88,3.29,1.34,5-.79.2-1.62-.08-2.23.6-.26.29-.99.12-1.12-.26-.69-2.15-2.71-1.61-4.18-2.15-.48-.18-1.04-.14-1.64-.22-.2.7.31,1.67-.69,2.03-.43.15-.83,0-1.13-.36-.5-.61-.27-1.18.23-1.93-.8.2-1.42.1-2.08-.04-1.22-.27-2.58-.78-3.66.51-.37.44-1.02.52-1.46.15-.9-.76-1.79-.33-2.93-.12.65.71,1.07,1.44.49,2.25-.31.44-.82.51-1.29.33-.84-.31-.9-1.06-.86-1.85-.98.09-1.68.69-2.61,1.1.6.87,1.6,1.81.33,2.66-1.15.77-1.63-.4-2.13-1.17-.9.41-1.56.87-1.58,1.89,0,.53-.33,1-.8,1.08-2,.34-2.19,2.24-3.1,3.5-.28.38-.14.7.16,1.11.85,1.15.58,1.91-.76,2.09-.74.1-1.01.45-1.19,1.04-.84,2.69-1.41,5.44-1.57,8.26-.05.93.78,1.91-.18,2.8-.08.07,0,.48.12.56,1.26.9.65,1.67-.21,2.35q1.11,1.2.12,3.17c.1.09.19.26.31.28.51.1,1.13,0,1.16.78.01.34-.15.65-.51.71-.66.11-1.15-.2-1.37-.81-.19-.55-.3-1.12-.42-1.69-.77-3.65-1.85-7.18-3.64-10.47-.62-1.15-1.18-2.4-2.64-2.79-.42-.12-.76-.51-.78-.94-.07-1.7-1.38-2.21-2.54-2.91-.75.41-1.03,1.62-2.12,1.12-.97-.45-.52-1.36-.58-2.2-.89-.35-1.8-.52-2.85-.29-.14.87.19,2.14-1.18,2.17-1.12.03-1.17-1-1.16-1.84-1.56-.12-2.68.63-3.98,1.3.52.59.95,1.25.41,2.02-.26.37-.64.57-1.11.43-.84-.25-.84-.97-.86-1.75-1.92.82-3.45,2.06-4.86,3.47.51,2.04.35,2.21-1.76,1.84-.59-.1-1.03.2-1.4.59-1.89,2-3.86,3.94-5.62,6.05-.87,1.05-1.34,2.44-3.05,2.93-.24-2.48.32-5.01-.39-7.42-.84.1-.99.68-1.27,1.1-3.81,5.62-10.9,6.45-15.79,1.72-3.39-3.27-6.47-6.85-9.57-10.4-1.37-1.57-1.56-1.64-3.22-.32-2.03,1.61-4.18,3.08-5.93,5.03-.26.29-.55.65-1.07.56-.15-.59.32-.86.64-1.16,1.87-1.73,3.48-3.7,5.07-5.69,1.49-1.87,1.46-1.86-.21-3.65-4.3-4.61-8.53-9.27-12.57-14.12-3.26-3.92-3.61-8.09-1.72-12.62,1.68-4.04,4.43-7.31,7.44-10.4.37-.38.83-.68.92-1.25.12-.82.59-1.19,1.43-1.12.83.07,1.31-.63,1.93-1,2.18-1.32,4.39-2.55,6.81-3.39,1.04-.36,1.85-1.02,1.99-2.32-.02-.1-.03-.09-.03-.09.24-.81.67-1.37,1.57-1.58,1.14-.26,1.48-1.41,2.28-2.23-.85-.58-1.89-1.11-1.11-2.23.65-.94,1.48-.49,2.21.09.92-.68,1.48-1.54,1.94-2.64-.89-.09-1.57-.42-1.89-1.39-.05-.12-.04-.15-.04-.15M1165.96,491.15c1.04-2.55.2-4.67-1.55-6.53-2.73-2.9-5.08-6.11-7.64-9.15-.3-.35-.79-.69-.55-1.29.52.02.75.33.99.6,2.73,3.03,5.45,6.07,8.17,9.1,1.42,1.59,2.96,3.04,4.86,4.03,1.91,1.01,3.84,1.15,5.73-.09,3.25-2.13,3.8-5.5,1.43-8.58-1.78-2.32-4.11-4.12-6.04-6.3-.95-1.07-.98-1.75-.04-2.9,4.91-6.03,6.4-12.92,4.53-20.45-2.44-9.84-12.33-14.52-21.39-10.02-5.38,2.67-9.33,6.92-11.99,12.3-1.14,2.29-1.4,4.65-.13,7.02.05.1-.04.27-.06.41-6.59-.85-9.82,1.66-10.74,8.27-.27,1.95-.28,3.91-.23,5.87.09,4.13.22,8.26.24,12.39.01,2.1-.34,2.3-2.36,2.01-2.52-.37-4.97-1.07-7.44-1.66-3.31-.79-6.63-1.44-10.06-1.04-2.44.28-4.48,1.32-5.9,3.33-2.01,2.83-1.91,6.31.08,9.22.6.88,1.47,1.61,1.81,2.69-.61.25-.77-.19-1.04-.39-2.05-1.59-3.96-3.37-6.43-4.32-4.06-1.56-8.17,1.01-8.39,5.25-.14,2.65,1.47,4.15,3.5,5.42,4.27,2.68,8.4,5.54,11.46,9.67.77,1.03,1.38,2.13,1.83,3.33,1.09,2.89.64,5.46-1.38,7.14-2.18,1.81-4.62,1.68-7.02.51-2.9-1.42-5.21-3.6-7.3-6.02-2.39-2.77-4.41-5.83-6.6-8.75-1.16-1.56-2.75-2.09-4.62-1.83-4.96.69-7.04,5.87-3.88,10.16,3.58,4.86,7.39,9.57,12.03,13.48,4.14,3.48,8.8,5.81,14.38,5.23,10.93-1.14,18.38-12.13,15.57-22.78-.57-2.16-1.59-4.11-2.46-6.17,3.06,2.59,6.24,5,9.21,7.65,3.03,2.7,6.83,1.36,8.61-.75,2.26-2.66,1.81-5.71-1.1-8.2-2.69-2.31-5.4-4.59-8.03-6.97-1.28-1.16-2.72-2.23-3.81-4.08,1.42.25,2.5.44,3.59.63,2.3.41,4.62.66,6.96.46,5.59-.49,9.23-3.96,10.08-9.51.54-3.5.04-6.98-.04-10.47-.01-.59-.29-1.26.47-1.85.38.47.73.92,1.09,1.36,3.62,4.5,7.39,8.89,10.8,13.55,3.16,4.31,8.74,3.18,10.8-.97M1135.76,550.16c1.69-1.87,3.62-3.39,5.97-4.36,4.73-1.94,9.53-1.65,14.36-.53,1.67.39,3.33.82,4.98,1.24.08-.33.15-.44.13-.52-.41-1.7-.85-3.38-1.25-5.08-2.82-11.88-2.15-23.34,4-34.17.47-.83.92-1.67,1.35-2.52.34-.68.6-1.41.1-2.11-.49-.7-1.18-.23-1.76-.14-4.36.7-7.92-.75-10.81-3.99-.81-.91-1.52-1.9-2.33-2.82-.43-.49-.7-1.34-1.55-1.15-.73.17-.74.98-.94,1.56-1.53,4.4-4.44,7.5-8.72,9.34-2.03.87-2.06,1.19-.38,2.76,1.48,1.38,2.84,2.87,3.44,4.87,1.14,3.78.32,7.2-2.32,10.03-3.05,3.28-6.86,4.55-11.26,3.21-1.33-.4-1.88-.1-2.07,1.19-.06.42-.19.83-.3,1.24-2.46,9.87-11.81,18.49-22.78,17.33-1.74-.18-2.25.37-2.42,2.16-.33,3.4-1.16,6.68-2.57,9.79-.8,1.78-1.72,3.52-2.62,5.26-.41.79-.2,1.4.34,2.02.52.6,1.11.78,1.84.48,1.87-.77,3.66-1.5,5.16-3.08,2.15-2.26,4.77-4.02,7.6-5.41,6.06-2.97,11.69-1.26,15.14,4.51,1.23,2.06,2.14,4.24,3,6.45.15.38.16.88.91.79.19-1.68.39-3.39.59-5.1.57-4.75,1.89-9.23,5.13-13.25M1093.92,541.57c-.45-2.17-1.3-4.11-3.03-5.62-2.97-2.58-6.38-1.98-9.71-1.35-.48-.65-.33-1.26-.38-1.83-.73-9.11-8.6-17.87-20.37-12-6.49,3.24-10.83,8.52-13.64,15.12-.75,1.77-.48,3.56.55,5.17.66,1.02,1.41,1.99,2.22,2.89,7.18,7.91,14.37,15.83,21.61,23.69,1.57,1.7,2.99,3.59,5.1,4.73,2.26,1.22,4.63.72,6.21-1.32.84-1.08,1.3-2.32,1.46-3.64.14-1.22.64-2.22,1.43-3.11,1.81-2.02,3.36-4.23,4.65-6.61,2.69-4.95,4.78-10.06,3.89-16.13M1132.73,458.92c2.04-1.76,3.37-3.98,4.62-6.37-.78-.26-1.02.09-1.32.27-1.77,1.05-3.53,2.14-5.51,2.79-3.97,1.31-7.54.71-10.59-2.22-1.54-1.48-2.62-3.31-3.55-5.23-.39-.79-.96-1.7-2.02-1.48-1.01.2-1.06,1.21-1.15,2.06-.27,2.6-.96,5.11-1.96,7.51-2.67,6.48-7.33,10.35-14.5,10.85-4.09.29-8-.58-11.87-1.77-.64-.2-1.25-.57-2.32-.28,4.59,14.3,4.91,28.31-3.62,41.38.69.56,1.13.97,1.77.83,2.64-.61,5.24-.6,7.81.41.79.31,1.09-.12.94-.89-.07-.36-.17-.72-.27-1.08-1.97-6.97,3.19-13.75,10.44-13.63,1.17.02,1.7-.33,2.05-1.42.88-2.7,2.54-4.82,4.95-6.39,3.14-2.04,6.6-2.43,10.21-2.14,3.02.24,5.96.91,8.89,1.66,1.28.33,1.95-.08,1.85-1.48-.05-.63-.06-1.27-.09-1.9-.22-3.76-.37-7.51.14-11.26.53-3.87,1.78-7.41,5.12-10.23M1100.48,520.98c2.15,2.15,2.19,2.16,4.33.67-1.71-3.72-5.1-5.65-8.19-7.89-.83,1.05-.58,1.93.08,2.8,1.11,1.48,2.17,3.01,3.79,4.41Z"/>
  <path class="cls-1" d="M1105.27,453.36c-1.1-.04-1.43-.58-1.55-1.71-.14-1.36-.68-2.7-1.18-3.99-.22-.57-.54-1.02-.12-1.59.28-.38.64-.57,1.1-.37.6.27.64.84.84,1.4.49,1.41.6,2.95,1.45,4.23.51.77.41,1.38-.44,1.97-.11.07-.09.07-.09.07Z"/>
  <path class="cls-1" d="M1180.84,497.39c-.06-.24-.05-.4-.02-.67.24-.48.49-.99.91-.93,1.17.17,2.22-.05,3.28-.5.36-.15.71.11.83.54.12.43.08.84-.23,1.19-.71.82-3.65,1.11-4.77.37Z"/>
  <path class="cls-1" d="M1073.99,480.86c.95-.85,1.85-.86,2.43.36.3.63.65.32,1.03.29.74-.04,1.25.29,1.39,1.02.11.57-.15,1.05-.67,1.32-.63.33-1.18.09-1.5-.46-.34-.58-.72-.76-1.4-.73-.9.04-1.3-.57-1.3-1.59.01-.14.03-.21.03-.21Z"/>
  <path class="cls-1" d="M1075.78,491.39c-.84.82-1.69,1.24-2.53.1-.28-.38-.58-.33-.97-.21-.76.22-1.39,0-1.65-.78-.21-.63.08-1.17.68-1.42.78-.33,1.31.05,1.66.75.05.09.13.16.23.29,1.08-.48,2.13-.74,2.57.95.04.11.02.25,0,.32Z"/>
  <path class="cls-1" d="M1089.67,456.93c-.43-.95-.36-2.02-1.52-2.46-.42-.16-.45-.8-.18-1.28.19-.35.45-.59.88-.56.54.03,1.01.35,1.04.82.05.9.44,1.41,1.2,1.83.5.28.58.89.29,1.41-.39.7-.98.71-1.7.23Z"/>
  <path class="cls-1" d="M1086.41,448.23c.63.9.37,2.2,1.74,2.58.41.11.36.82.16,1.29-.17.39-.46.55-.88.48-.52-.09-.98-.39-.99-.87,0-.9-.35-1.43-1.14-1.82-.39-.19-.48-.69-.27-1.12.26-.54.68-.78,1.39-.52Z"/>
  <path class="cls-1" d="M1073.91,499.45c.04.24.02.39-.01.66-1.45,1.07-1.9.97-2.61-.58-.02-.13-.02-.15-.02-.15,1-1.44,1.55-1.45,2.64.07Z"/>
  <path class="cls-1" d="M1074.61,495.28c.01.25,0,.38-.03.62-1.71.92-2.18.73-2.57-1.06,0-.11-.01-.1-.01-.1,1.35-1.1,1.85-1.02,2.62.53Z"/>
  <path class="cls-1" d="M1077.11,487.43c-.14.16-.26.26-.4.34-.82.48-1.58.4-1.97-.48-.34-.77-.03-1.51.85-1.7,1.09-.23,1.52.44,1.55,1.55.01.1-.02.23-.04.29Z"/>
  <path class="cls-1" d="M1173.08,507.34c.91-1.58,1.41-1.64,2.67-.16.06.28.05.37.03.47-.88.95-1.75,1.53-2.67-.09-.04-.1-.03-.18-.03-.22Z"/>
  <path class="cls-1" d="M1172.59,511.77c.22-.31.41-.58.66-.76.6-.43,1.21-.38,1.69.18.42.49.44,1.1,0,1.59-.48.56-1.1.59-1.68.13-.24-.19-.38-.49-.63-.82-.05-.13-.05-.19-.03-.32Z"/>
  <path class="cls-1" d="M1072,494.73c-.17.26-.29.57-.51.79-.53.52-1.15.52-1.69.04-.56-.5-.55-1.15-.08-1.68.47-.55,1.1-.6,1.67-.11.23.2.35.51.57.87.04.1.04.09.04.09Z"/>
  <path class="cls-1" d="M1071.26,499.42c-.27.32-.48.73-.82.91-.63.35-1.24.16-1.61-.45-.33-.55-.25-1.13.26-1.54.5-.4,1.07-.41,1.54.09.21.22.35.51.58.86.06.09.06.11.06.13Z"/>
  <path class="cls-1" d="M1078.82,477.84c-.48.48-.96.99-1.75.7-.78-.29-.89-.94-.83-1.77,0-.11-.01-.1-.01-.1,1.61-.78,1.91-.67,2.56,1.06.02.12.03.11.03.11Z"/>
  <path class="cls-1" d="M1175.85,507.75c-.05-.19-.04-.29-.03-.45,1.15-1.47,1.65-1.45,2.64.13.04.1.04.08.04.08-.71,1.23-1.54,1.59-2.65.24Z"/>
  <path class="cls-1" d="M1171.73,526.64c.01-.29.11-.47.23-.75,1.32-.72,2.23-.47,2.31.54.05.56-.13,1.05-.71,1.25-.9.31-1.33-.32-1.83-1.04Z"/>
  <path class="cls-1" d="M1065.36,503.75s.06-.09.09-.13c.58-.82,1.3-1.36,2.18-.49.52.52.35,1.23-.25,1.63-1,.67-1.52,0-1.98-.93-.05-.09-.05-.08-.05-.08Z"/>
  <path class="cls-1" d="M1174.55,516.81c.08-.08.16-.15.23-.22.71-.69,1.47-.94,2.16-.06.46.59.3,1.28-.36,1.62-1.11.55-1.66-.08-1.99-1.21-.04-.11-.04-.12-.04-.13Z"/>
  <path class="cls-1" d="M1172.49,531.51c-.49.52-1.03.91-1.8.62-.73-.28-.8-.89-.78-1.67-.01-.11-.01-.12-.01-.12,1.61-.78,1.89-.67,2.56,1.07.03.11.03.1.03.1Z"/>
  <path class="cls-1" d="M1072.48,486.62c-.49-1.43-.02-2.3,1.01-2.07.68.15,1.16.62.98,1.35-.25,1.04-.94,1.29-1.98.72Z"/>
  <path class="cls-1" d="M1071.37,479.75c1.57-1.14,2.27-.9,2.6,1,.02.11,0,.18,0,.21-1.26.71-2.19.58-2.56-1.1-.03-.11-.04-.1-.04-.1Z"/>
  <path class="cls-1" d="M1079.23,471.53c.06.22.04.36,0,.6-.29.34-.54.66-.86.81-.53.24-1.05.12-1.42-.36-.32-.42-.34-.89-.06-1.33.33-.52.85-.65,1.39-.45.32.12.57.43.95.75Z"/>
  <path class="cls-1" d="M1146.71,555.64c-.07-.84.19-1.36.94-1.51.54-.11.92.17,1.15.63.24.46.22.96-.15,1.32-.76.75-1.4.49-1.95-.44Z"/>
  <path class="cls-1" d="M1173.31,521.89c.17-.26.31-.56.53-.78.53-.52,1.16-.5,1.7-.04.51.43.54,1.03.15,1.55-.45.62-1.07.62-1.66.21-.24-.17-.4-.48-.65-.83-.06-.12-.06-.11-.06-.11Z"/>
  <path class="cls-1" d="M1150.96,553.33c-.27-.87-.09-1.47.74-1.67.49-.12.92.11,1.19.55.3.49.33,1.01-.11,1.42-.63.59-1.23.36-1.81-.29Z"/>
  <path class="cls-1" d="M1076.24,476.65c-1.55.81-2.04.57-2.32-1.27-.01-.11-.02-.1-.02-.1,1.67-.88,2.21-.61,2.35,1.27,0,.12,0,.11,0,.1Z"/>
  <path class="cls-1" d="M1177.65,501.47c.75.6.83,1.21.27,1.83-.34.39-.81.5-1.29.26-.53-.26-.81-.71-.65-1.29.22-.78.74-1.12,1.67-.8Z"/>
  <path class="cls-1" d="M1070.67,485.87c-.91-.23-1.24-.74-1.03-1.54.14-.54.55-.74,1.06-.74.59,0,1.03.29,1.14.87.15.8-.23,1.3-1.17,1.41Z"/>
  <path class="cls-1" d="M1139.46,560.48c-.25-.05-.52-.07-.76-.16-.74-.27-1.1-.79-.82-1.57.26-.72.84-.93,1.51-.64.76.33.89.95.55,1.68-.09.18-.24.34-.42.6-.07.09-.06.09-.06.09Z"/>
  <path class="cls-1" d="M1176.16,511.3c.89-.35,1.47-.13,1.71.69.16.55-.02,1.07-.56,1.35-.45.24-.93.22-1.31-.19-.56-.61-.58-1.22.16-1.86Z"/>
  <path class="cls-1" d="M1070.78,503.9c-.15.3-.25.62-.46.84-.53.54-1.16.56-1.68.04-.55-.54-.46-1.23.07-1.69.81-.69,1.45-.24,2.01.64.06.11.06.15.06.17Z"/>
  <path class="cls-1" d="M1085.25,457.88c-.88.3-1.46.11-1.69-.73-.13-.49-.03-.95.45-1.23.41-.24.82-.15,1.17.14.64.52.74,1.11.07,1.82Z"/>
  <path class="cls-1" d="M1139.45,560.48s.09.05.14.06c.86.29,1.63.7,1.2,1.78-.27.69-.94.9-1.55.44-.91-.67-.62-1.42.14-2.2.09-.08.08-.09.07-.08Z"/>
  <path class="cls-1" d="M1143.31,558.62c-.89-.31-1.18-.87-.91-1.63.17-.47.57-.76,1.11-.71.6.05.96.45,1.05,1,.13.82-.29,1.28-1.25,1.34Z"/>
  <path class="cls-1" d="M1075.64,471.33c-.94-.22-1.22-.77-1.01-1.54.13-.5.53-.79,1.07-.71.55.08.99.37,1.08.97.1.75-.26,1.19-1.13,1.29Z"/>
  <path class="cls-1" d="M1065.36,503.73c-.11.17-.22.36-.34.53-.48.67-1.1.84-1.76.33-.55-.42-.58-1.03-.12-1.52.58-.62,1.22-.48,1.8.07.11.11.19.25.35.49.07.11.07.1.07.1Z"/>
  <path class="cls-1" d="M1179.14,513.68c-.77-.43-.98-.97-.58-1.63.31-.52.82-.64,1.38-.42.49.19.76.57.68,1.12-.12.77-.6,1.07-1.47.94Z"/>
  <path class="cls-1" d="M1069.03,478.37c1.68-.91,2.2-.66,2.34,1.27,0,.12,0,.11,0,.11-1.34.73-2.1.33-2.32-1.28-.02-.1-.03-.09-.03-.09Z"/>
  <path class="cls-1" d="M1068.91,493.49c.04,1.5-.59,2.13-1.49,1.63-.56-.31-.88-.84-.55-1.47.5-.94,1.22-.86,2.04-.16Z"/>
  <path class="cls-1" d="M1068.55,488.43c.89-.36,1.46-.13,1.7.67.15.5-.07.94-.5,1.21-.5.31-1.04.25-1.44-.17-.53-.55-.43-1.13.24-1.7Z"/>
  <path class="cls-1" d="M1167.26,541.57c-.33-.86,0-1.36.69-1.59.5-.17.95.08,1.22.52.31.52.24,1.05-.22,1.43-.61.5-1.17.33-1.69-.37Z"/>
  <path class="cls-1" d="M1066.04,498.58c.42-.76.97-.97,1.62-.6.51.28.68.79.49,1.35-.16.49-.53.8-1.06.75-.81-.08-1.21-.54-1.06-1.5Z"/>
  <path class="cls-1" d="M1073.9,475.26c-.24.1-.47.24-.72.29-.83.19-1.32-.22-1.48-.99-.13-.59.17-1.03.76-1.17.83-.19,1.28.24,1.44,1.02.04.2,0,.41,0,.74,0,.12,0,.11,0,.1Z"/>
  <path class="cls-1" d="M1172.49,531.52c.19-.08.37-.19.57-.25.85-.26,1.47.02,1.67.9.13.58-.17,1.05-.77,1.18-.91.2-1.39-.25-1.49-1.14-.02-.15.02-.31.03-.59,0-.12,0-.11,0-.1Z"/>
  <path class="cls-1" d="M1174.72,527.01c.67-.68,1.3-.7,1.85-.07.35.4.32.89.01,1.32-.32.43-.76.57-1.26.39-.73-.27-.93-.8-.6-1.64Z"/>
  <path class="cls-1" d="M1178.5,507.53c.06-.08.12-.17.17-.25.46-.77,1.07-1.25,1.92-.65.61.43.65,1.13.09,1.63-.85.75-1.53.33-2.11-.63-.07-.11-.07-.1-.07-.09Z"/>
  <path class="cls-1" d="M1114.99,568.11c-.86.44-1.32.1-1.56-.61-.17-.5.02-.94.46-1.25.45-.31.96-.28,1.31.1.5.55.42,1.16-.21,1.76Z"/>
  <path class="cls-1" d="M1169.96,536c.19-.08.37-.2.57-.24.83-.2,1.46.04,1.64.94.12.59-.16,1.04-.76,1.16-.92.19-1.35-.3-1.45-1.16-.02-.15.01-.31.02-.59,0-.12,0-.11,0-.1Z"/>
  <path class="cls-1" d="M1067.85,508.44c.07.93-.29,1.44-1.12,1.47-.5.02-.93-.22-1.05-.75-.14-.57.06-1.05.58-1.32.66-.36,1.2-.18,1.6.61Z"/>
  <path class="cls-1" d="M1069.04,478.35c-.19.08-.37.19-.56.26-.72.27-1.37.22-1.66-.61-.23-.65.04-1.18.7-1.34.8-.2,1.28.24,1.47,1.01.04.15.02.31.04.58,0,.11.01.1.01.09Z"/>
  <path class="cls-1" d="M1065.82,513.96c-.11.24-.17.51-.32.71-.45.61-1.05.69-1.66.28-.59-.4-.66-.96-.23-1.5.47-.59,1.08-.61,1.68-.16.16.12.27.32.47.58.07.11.07.09.07.09Z"/>
  <path class="cls-1" d="M1074.4,469.07c-.59.69-1.17.69-1.72.17-.38-.36-.44-.85-.2-1.32.26-.5.75-.61,1.23-.47.73.22.97.76.69,1.61Z"/>
  <path class="cls-1" d="M1177.33,523.84c-.85-.22-1.22-.66-.99-1.42.15-.5.55-.79,1.07-.79.59,0,1.02.32,1.1.92.1.77-.32,1.18-1.18,1.29Z"/>
  <path class="cls-1" d="M1120.5,568.38c-.74.52-1.28.35-1.67-.28-.27-.45-.2-.92.19-1.28.37-.35.83-.47,1.28-.17.64.43.64,1.01.2,1.72Z"/>
  <path class="cls-1" d="M1179.93,501.22c.85.22,1.17.69.96,1.42-.14.49-.53.79-1.05.77-.57-.02-1-.3-1.07-.93-.08-.76.31-1.17,1.16-1.26Z"/>
  <path class="cls-1" d="M1068.97,482.88c.52,1.05.37,1.76-.81,1.88-.43.05-.81-.22-1-.64-.19-.42-.16-.84.16-1.18.47-.5,1.01-.5,1.66-.06Z"/>
  <path class="cls-1" d="M1154.55,555.3c-.26.85-.76,1.13-1.47.87-.48-.17-.73-.59-.7-1.1.03-.51.27-.93.81-1,.8-.1,1.28.29,1.36,1.23Z"/>
  <path class="cls-1" d="M1067.59,488.72c-.32.78-.8,1.1-1.52.81-.55-.22-.8-.68-.68-1.27.11-.53.51-.82,1.02-.82.73,0,1.16.39,1.17,1.28Z"/>
  <path class="cls-1" d="M1065.15,497.84c.46.71.47,1.29-.18,1.71-.51.33-1.01.2-1.41-.21-.31-.32-.44-.75-.22-1.15.4-.73,1.02-.8,1.81-.35Z"/>
  <path class="cls-1" d="M1065.41,494.67c-.93-.1-1.33-.6-1.24-1.39.06-.52.5-.79,1.01-.84.53-.05.93.23,1.09.73.23.72-.04,1.22-.86,1.5Z"/>
  <path class="cls-1" d="M1108.48,446.7s-.08-.06-.12-.08c-.81-.42-1.44-.95-.85-1.95.37-.62.99-.64,1.46-.18.8.77.48,1.48-.4,2.14-.1.07-.09.07-.08.07Z"/>
  <path class="cls-1" d="M1144.86,558.96c.79.4.94.97.6,1.61-.27.51-.76.68-1.33.46-.51-.19-.73-.59-.67-1.1.09-.75.54-1.08,1.4-.97Z"/>
  <path class="cls-1" d="M1177.53,517.85c.1-.85.47-1.3,1.24-1.22.58.06.94.44.98,1.04.03.45-.11.85-.56,1.02-.76.28-1.33.06-1.65-.85Z"/>
  <path class="cls-1" d="M1065.03,509.31c-.46.71-.98.93-1.64.54-.47-.28-.57-.73-.4-1.22.19-.55.59-.87,1.18-.78.75.12,1.04.61.86,1.46Z"/>
  <path class="cls-1" d="M1133.77,445.57c-.34-.82-.15-1.35.58-1.61.42-.15.86-.07,1.13.33.28.42.38.9-.01,1.31-.5.54-1.06.66-1.7-.03Z"/>
  <path class="cls-1" d="M1134.97,566.84c-.65-.64-.56-1.2-.03-1.71.34-.33.76-.32,1.16-.08.46.28.62.72.45,1.22-.25.74-.76.95-1.58.57Z"/>
  <path class="cls-1" d="M1181.63,513.82c-.71-.62-.62-1.19-.06-1.69.4-.35.88-.33,1.32-.02.39.27.51.67.36,1.12-.26.76-.81.9-1.62.59Z"/>
  <path class="cls-1" d="M1109.62,569.4c-.45.75-.99.95-1.62.48-.36-.26-.46-.69-.31-1.13.17-.49.51-.83,1.03-.8.82.05.97.65.9,1.45Z"/>
  <path class="cls-1" d="M1151.35,559.79c.25.83,0,1.35-.73,1.52-.49.11-.94-.08-1.16-.56-.22-.47-.15-.93.25-1.27.6-.53,1.13-.33,1.65.32Z"/>
  <path class="cls-1" d="M1181.69,501.62c.61-.64,1.19-.67,1.74-.14.35.33.33.77.1,1.17-.26.47-.69.69-1.21.54-.77-.21-.95-.76-.64-1.58Z"/>
  <path class="cls-1" d="M1148.11,558.13c-.13-.86.14-1.37.94-1.44.55-.05.9.27,1.1.75.2.5.03.98-.38,1.27-.67.46-1.19.15-1.65-.57Z"/>
  <path class="cls-1" d="M1179.02,523.9c-.13-.87.14-1.36.95-1.42.56-.04.88.31,1.07.78.18.44.07.87-.32,1.12-.64.41-1.2.25-1.69-.48Z"/>
  <path class="cls-1" d="M1060.65,498.68c-.2-.91.18-1.31.93-1.39.44-.05.84.13,1.03.56.22.49.09.96-.32,1.26-.61.45-1.17.31-1.64-.43Z"/>
  <path class="cls-1" d="M1130.14,444.91c-.72.54-1.28.38-1.65-.25-.26-.43-.17-.9.22-1.27.38-.36.81-.51,1.26-.2.65.44.59,1.02.17,1.72Z"/>
  <path class="cls-1" d="M1124.71,442.81c.67.61.65,1.21.11,1.72-.38.37-.9.29-1.33.01-.4-.26-.53-.68-.37-1.12.26-.71.74-1.01,1.59-.62Z"/>
  <path class="cls-1" d="M1064.59,488.51c-.77.48-1.3.31-1.69-.34-.24-.4-.2-.82.14-1.16.37-.36.84-.49,1.3-.21.66.4.74.97.25,1.7Z"/>
  <path class="cls-1" d="M1113.14,570.32c-.09-.86.21-1.37.99-1.43.47-.04.79.27.95.7.19.52,0,.96-.43,1.24-.61.4-1.1.18-1.51-.51Z"/>
  <path class="cls-1" d="M1119.27,440.14c.61.65.61,1.21.02,1.73-.38.33-.8.26-1.17,0-.43-.32-.58-.77-.36-1.27.28-.65.77-.83,1.52-.45Z"/>
  <path class="cls-1" d="M1064.54,482.47c.34-.77.84-1.1,1.55-.77.45.22.68.65.57,1.18-.1.47-.39.76-.86.78-.74.04-1.2-.3-1.25-1.2Z"/>
  <path class="cls-1" d="M1070.81,471.96c.72.45.92.99.54,1.64-.27.47-.75.55-1.23.38-.48-.17-.77-.55-.73-1.07.06-.8.61-1,1.42-.95Z"/>
  <path class="cls-1" d="M1086.67,460.15c-.87.15-1.32-.2-1.44-.92-.09-.52.18-.91.67-1.09.49-.19.93-.06,1.23.37.45.64.24,1.16-.46,1.65Z"/>
  <path class="cls-1" d="M1175.24,534.22c-.43-.74-.35-1.3.36-1.64.47-.22.94-.1,1.26.3.32.39.39.88.06,1.29-.47.59-1.03.64-1.69.04Z"/>
  <path class="cls-1" d="M1160.31,554.31c-.08.81-.48,1.16-1.16,1.04-.58-.1-.89-.54-.91-1.11-.01-.46.25-.83.7-.93.71-.16,1.23.1,1.38,1Z"/>
  <path class="cls-1" d="M1107.21,443.51c-.65-.61-.66-1.19-.13-1.73.34-.35.76-.34,1.14-.05.41.31.61.73.45,1.25-.22.69-.69.88-1.46.53Z"/>
  <path class="cls-1" d="M1171.3,543.39c-.66.57-1.21.54-1.68-.07-.28-.36-.32-.78-.07-1.16.29-.44.76-.58,1.23-.4.72.27.84.84.52,1.63Z"/>
  <path class="cls-1" d="M1145.43,561.53c.88.06,1.27.47,1.21,1.22-.03.43-.27.8-.74.91-.52.11-.94-.09-1.17-.56-.33-.68-.11-1.21.69-1.56Z"/>
  <path class="cls-1" d="M1129.68,446.01c.56.63.72,1.21.12,1.75-.38.34-.89.38-1.31.06-.4-.3-.65-.75-.41-1.25.3-.63.76-1.02,1.6-.55Z"/>
  <path class="cls-1" d="M1062.27,509.38c-.45.74-.98.96-1.66.55-.42-.26-.49-.67-.36-1.12.13-.45.46-.74.93-.73.75,0,1.2.36,1.1,1.3Z"/>
  <path class="cls-1" d="M1186.37,501.83c-.03.89-.45,1.27-1.2,1.18-.44-.05-.76-.34-.85-.8-.09-.46.11-.84.51-1.05.68-.36,1.19-.15,1.54.67Z"/>
  <path class="cls-1" d="M1173.95,537.38c.65.6.68,1.17.14,1.7-.32.32-.75.36-1.15.13-.44-.26-.67-.66-.54-1.18.19-.79.74-.91,1.55-.64Z"/>
  <path class="cls-1" d="M1139.96,565.29c-.53-.72-.45-1.29.18-1.69.43-.27.91-.17,1.27.22.31.33.42.73.19,1.14-.37.66-.88.84-1.64.33Z"/>
  <path class="cls-1" d="M1073.87,461.89c.65-.64,1.2-.58,1.7.01.29.35.34.78.12,1.19-.24.44-.68.49-1.1.37-.73-.21-1.01-.71-.71-1.57Z"/>
  <path class="cls-1" d="M1136.17,442.58c-.37.73-.87.91-1.48.55-.47-.28-.58-.75-.39-1.25.16-.43.51-.7.99-.64.7.09.99.54.88,1.34Z"/>
  <path class="cls-1" d="M1063.46,492.52c.23.88-.11,1.35-.86,1.46-.44.07-.83-.12-1.03-.57-.19-.43-.14-.84.21-1.16.58-.53,1.13-.45,1.68.26Z"/>
  <path class="cls-1" d="M1140.72,566.55c.61-.54,1.15-.54,1.59.02.33.42.25.9-.06,1.32-.25.33-.62.44-.99.28-.69-.29-.95-.79-.53-1.62Z"/>
  <path class="cls-1" d="M1066.13,475.74c.42.66.41,1.19-.18,1.57-.45.29-.9.19-1.26-.2-.31-.32-.46-.73-.22-1.13.39-.66.95-.73,1.67-.24Z"/>
  <path class="cls-1" d="M1145.93,564.4c.73-.45,1.29-.32,1.66.33.22.39.14.82-.17,1.16-.31.35-.74.43-1.13.19-.62-.38-.8-.93-.36-1.68Z"/>
  <path class="cls-1" d="M1183.44,508.2c-.61.55-1.13.56-1.6.03-.35-.41-.34-.88-.03-1.31.28-.39.7-.51,1.12-.33.69.29.96.8.51,1.61Z"/>
  <path class="cls-1" d="M1077.78,456.4c-.08.79-.39,1.22-1.13,1.07-.52-.11-.77-.51-.8-1.03-.03-.47.24-.81.66-.96.71-.24,1.06.17,1.27.91Z"/>
  <path class="cls-1" d="M1124.24,439.84c.84.24,1.13.71.9,1.45-.14.44-.47.68-.95.65-.47-.02-.8-.28-.94-.71-.25-.78.2-1.16.99-1.39Z"/>
  <path class="cls-1" d="M1071.33,465.85c.84.25,1.13.75.9,1.46-.14.45-.55.6-1.01.56-.52-.05-.88-.33-.95-.86-.09-.68.2-1.1,1.05-1.15Z"/>
  <path class="cls-1" d="M1178.59,529.63c-.9.13-1.29-.3-1.4-1.01-.07-.46.2-.8.64-.97.49-.19.97-.1,1.25.34.4.63.29,1.2-.49,1.63Z"/>
  <path class="cls-1" d="M1180.57,517.6c.66-.48,1.21-.47,1.62.09.31.42.27.9-.1,1.31-.32.34-.73.49-1.15.27-.66-.35-.9-.87-.38-1.66Z"/>
  <path class="cls-1" d="M1067.4,472.24c-.47-.65-.45-1.19.13-1.57.42-.27.9-.25,1.28.16.3.32.49.71.27,1.13-.37.72-.96.68-1.68.28Z"/>
  <path class="cls-1" d="M1185.61,512.5c.53.61.56,1.15,0,1.58-.42.32-.9.3-1.31-.06-.36-.31-.47-.73-.25-1.14.32-.59.83-.78,1.56-.38Z"/>
  <path class="cls-1" d="M1062.76,514.2c.08.89-.3,1.3-1.06,1.31-.47,0-.78-.29-.9-.73-.13-.43-.04-.85.35-1.11.65-.43,1.18-.23,1.61.53Z"/>
  <path class="cls-1" d="M1155.53,556.62c.61.63.62,1.21.08,1.73-.34.34-.78.29-1.16.03-.43-.29-.6-.73-.43-1.24.24-.71.77-.78,1.5-.53Z"/>
  <path class="cls-1" d="M1101.84,445.02c-.64-.63-.64-1.21-.1-1.74.35-.35.79-.29,1.16-.03.42.3.61.73.43,1.25-.24.7-.74.83-1.49.52Z"/>
  <path class="cls-1" d="M1083.73,454.23c.26.7.26,1.27-.43,1.53-.49.18-.93-.05-1.22-.46-.32-.44-.29-.91.1-1.27.5-.47,1.03-.41,1.55.21Z"/>
  <path class="cls-1" d="M1062.17,487.35c-.54.74-1.1.76-1.68.26-.3-.26-.41-.64-.26-1.01.2-.48.61-.76,1.14-.65.68.13.95.6.8,1.4Z"/>
  <path class="cls-1" d="M1107.05,440.9c-.98-.39-1.2-1-.63-1.74.37-.49.96-.53,1.34-.02.58.79.42,1.45-.7,1.76Z"/>
  <path class="cls-1" d="M1151,563.39c-.49-.66-.39-1.18.17-1.57.39-.27.82-.15,1.16.15.4.35.51.81.22,1.27-.39.61-.9.64-1.55.16Z"/>
  <path class="cls-1" d="M1184.36,507.62c.27-.81.73-1.14,1.47-.88.39.13.57.47.56.86-.02.51-.24.93-.79,1.03-.69.12-1.08-.25-1.24-1Z"/>
  <path class="cls-1" d="M1130.61,440.74c.25.82.09,1.37-.68,1.58-.48.13-.8-.16-1.04-.54-.26-.42-.18-.81.15-1.15.5-.52,1.01-.49,1.58.11Z"/>
  <path class="cls-1" d="M1183.21,518.3c.56-.55,1.07-.65,1.57-.11.32.34.38.74.16,1.16-.22.43-.6.61-1.04.49-.73-.21-1-.71-.68-1.53Z"/>
  <path class="cls-1" d="M1125.85,569.44c.61.94.44,1.62-.54,1.88-.59.16-1.06-.29-1.08-.85-.04-1.02.55-1.38,1.62-1.03Z"/>
  <path class="cls-1" d="M1182.35,525.29c-.73-.37-.92-.88-.6-1.49.25-.48.75-.56,1.24-.41.45.14.7.5.66.96-.06.69-.49,1-1.3.93Z"/>
  <path class="cls-1" d="M1160.15,555.99c.54-.61,1.07-.66,1.56-.16.37.37.36.86.09,1.31-.22.35-.58.5-.95.4-.72-.21-.99-.71-.7-1.54Z"/>
  <path class="cls-1" d="M1058.06,504.5c-.7-.45-.78-.95-.38-1.51.27-.38.69-.47,1.12-.31.48.19.79.57.67,1.1-.15.66-.62.93-1.41.73Z"/>
  <path class="cls-1" d="M1090.23,445.27c.95-.36,1.54-.11,1.64.84.05.56-.22,1.08-.87,1.05-.83-.04-1.18-.57-1.04-1.39.02-.15.13-.28.28-.49Z"/>
  <path class="cls-1" d="M1060.91,504.68c-.65-.41-.97-.86-.59-1.5.27-.45.7-.64,1.22-.46.51.17.77.56.71,1.09-.07.72-.54.97-1.34.87Z"/>
  <path class="cls-1" d="M1169.79,549.52c-.68.45-1.18.32-1.56-.26-.25-.4-.23-.81.1-1.15.37-.39.82-.48,1.27-.17.57.4.62.92.18,1.59Z"/>
  <path class="cls-1" d="M1119.95,569.4c.78.46.9,1.02.44,1.65-.23.31-.57.49-.98.36-.51-.17-.8-.54-.75-1.08.06-.68.43-1.07,1.29-.92Z"/>
  <path class="cls-1" d="M1156.4,560.85c-.89-.27-1.06-.81-.82-1.51.13-.39.47-.55.88-.53.53.04.93.29.99.84.07.66-.18,1.13-1.05,1.2Z"/>
  <path class="cls-1" d="M1129.18,438.87c-.09-.81.23-1.24.91-1.31.47-.04.79.25.93.7.15.46-.03.86-.39,1.12-.6.43-1.08.21-1.46-.51Z"/>
  <path class="cls-1" d="M1123.9,436.15c-.6-.57-.54-1.08-.08-1.57.33-.34.72-.39,1.12-.11.38.26.57.65.39,1.08-.24.57-.65.94-1.44.6Z"/>
  <path class="cls-1" d="M1125.08,437.37c.42.78.28,1.34-.4,1.69-.35.18-.72.04-1.01-.24-.39-.39-.46-.85-.16-1.29.39-.58.91-.67,1.57-.16Z"/>
  <path class="cls-1" d="M1059.78,498.47c-.55.6-1.07.65-1.57.19-.33-.31-.41-.73-.2-1.14.24-.48.68-.67,1.18-.5.63.21.88.69.6,1.46Z"/>
  <path class="cls-1" d="M1097.02,443.91c-.42.74-.94.8-1.49.4-.44-.31-.45-.8-.29-1.27.13-.39.43-.59.84-.54.75.1,1.1.52.94,1.41Z"/>
  <path class="cls-1" d="M1063.06,482.6c-.8-.18-1.09-.62-.94-1.3.1-.46.44-.72.91-.73.54,0,.92.27,1.03.8.15.7-.2,1.1-1,1.23Z"/>
  <path class="cls-1" d="M1059.58,486.29c-.32.71-.78.96-1.42.67-.43-.19-.63-.55-.53-1.01.09-.45.43-.75.86-.79.7-.07,1.04.34,1.09,1.13Z"/>
  <path class="cls-1" d="M1176.7,540.15c-.44.7-.98.76-1.52.38-.42-.3-.55-.76-.3-1.24.21-.41.57-.62,1.03-.52.69.14.93.6.79,1.38Z"/>
  <path class="cls-1" d="M1135.77,567.75c.78-.16,1.25.09,1.38.77.09.51-.13.93-.63,1.12-.44.17-.82.02-1.1-.36-.43-.58-.27-1.07.36-1.54Z"/>
  <path class="cls-1" d="M1069.74,464.46c.46.66.39,1.18-.18,1.56-.38.25-.81.18-1.15-.14-.34-.32-.43-.74-.21-1.14.34-.61.86-.69,1.55-.29Z"/>
  <path class="cls-1" d="M1178.4,535.82c-.88-.26-1.07-.8-.81-1.48.13-.36.49-.53.89-.51.55.02.88.34.97.85.12.69-.22,1.09-1.05,1.14Z"/>
  <path class="cls-1" d="M1167.74,554.17c.42.67.4,1.2-.23,1.58-.35.21-.72.16-1.03-.12-.34-.32-.48-.72-.26-1.15.32-.64.82-.78,1.52-.31Z"/>
  <path class="cls-1" d="M1059.11,508.48c.58.61.49,1.13,0,1.56-.41.36-.88.26-1.28-.06-.37-.3-.43-.72-.23-1.13.3-.62.8-.76,1.51-.38Z"/>
  <path class="cls-1" d="M1117.7,437.68c.55-.6,1.05-.67,1.54-.13.32.34.35.75.12,1.16-.23.41-.59.62-1.04.45-.62-.23-.88-.7-.62-1.47Z"/>
  <path class="cls-1" d="M1189.01,501.43c.13.98-.25,1.47-1.13,1.3-.59-.11-.94-.62-.68-1.2.42-.92,1.08-.86,1.81-.1Z"/>
  <path class="cls-1" d="M1058.89,492.72c-.14-.81.16-1.24.86-1.29.51-.04.91.19,1.06.72.13.46-.02.83-.41,1.08-.61.38-1.08.15-1.5-.51Z"/>
  <path class="cls-1" d="M1060.05,514.95c-.22.8-.68,1.08-1.34.86-.42-.14-.67-.52-.66-.99.01-.48.3-.82.76-.88.66-.09,1.13.2,1.24,1.02Z"/>
  <path class="cls-1" d="M1101.79,440.49c.64.41.9.88.55,1.5-.23.4-.6.58-1.06.4-.42-.16-.72-.48-.7-.93.03-.66.38-1.05,1.22-.97Z"/>
  <path class="cls-1" d="M1179.99,529.07c.6-.53,1.12-.54,1.58-.02.31.35.32.77.08,1.16-.29.47-.76.57-1.23.37-.65-.27-.75-.8-.43-1.52Z"/>
  <path class="cls-1" d="M1153.42,566.11c-.77.15-1.25-.09-1.37-.78-.08-.45.13-.82.56-1.02.43-.2.85-.12,1.13.24.43.55.3,1.06-.31,1.55Z"/>
  <path class="cls-1" d="M1173.61,544.31c-.08.78-.41,1.18-1.13,1.1-.47-.06-.76-.35-.83-.8-.07-.44.02-.87.46-1.06.7-.3,1.21-.07,1.5.77Z"/>
  <path class="cls-1" d="M1055.82,508.5c.78.24,1.03.68.77,1.34-.15.38-.45.57-.85.55-.45-.02-.82-.24-.91-.7-.14-.68.16-1.1.99-1.19Z"/>
  <path class="cls-1" d="M1114.69,572.4c.1.79-.15,1.27-.85,1.37-.4.06-.71-.18-.89-.54-.21-.43-.13-.83.24-1.14.54-.45,1.05-.44,1.5.31Z"/>
  <path class="cls-1" d="M1187.29,514.47c-.64-.48-.8-.97-.32-1.54.27-.31.64-.39,1.01-.25.43.17.69.51.64.98-.08.72-.53.98-1.33.8Z"/>
  <path class="cls-1" d="M1054.8,503.81c-.07-.81.26-1.22.95-1.24.46-.01.77.27.89.73.1.4-.03.73-.36.95-.59.41-1.07.25-1.48-.45Z"/>
  <path class="cls-1" d="M1183.63,529.79c.69.4.87.88.47,1.48-.21.32-.55.49-.95.38-.45-.13-.72-.43-.73-.9,0-.72.39-1.03,1.21-.95Z"/>
  <path class="cls-1" d="M1107.14,571.93c.06-.81.42-1.18,1.13-1.11.48.05.75.36.8.83.05.46-.1.84-.54,1.03-.66.28-1.11.02-1.39-.74Z"/>
  <path class="cls-1" d="M1073.19,459.79c.66.53.61,1.07.17,1.56-.33.36-.76.3-1.15.06-.35-.22-.47-.57-.4-.96.14-.73.61-.93,1.39-.67Z"/>
  <path class="cls-1" d="M1188.52,508.61c-.78.15-1.26-.07-1.35-.8-.05-.49.25-.8.67-.97.37-.15.74-.09,1.01.24.47.57.35,1.06-.32,1.53Z"/>
  <path class="cls-1" d="M1081.07,451.59c.76.1,1.16.45,1.08,1.15-.05.45-.33.75-.82.8-.49.05-.81-.22-1-.61-.33-.67.01-1.08.74-1.34Z"/>
  <path class="cls-1" d="M1135.61,438.56c.85,0,1.18.39,1.09,1.11-.05.4-.29.69-.69.78-.45.1-.87-.03-1.07-.46-.28-.62-.15-1.13.67-1.42Z"/>
  <path class="cls-1" d="M1057.13,497.92c-.62.91-1.24.92-1.79.11-.32-.47-.17-.97.33-1.19.9-.38,1.4.02,1.46,1.08Z"/>
  <path class="cls-1" d="M1137.44,570.73c.44.68.38,1.19-.25,1.55-.35.2-.73.17-1.03-.1-.35-.31-.47-.72-.26-1.14.33-.64.83-.75,1.54-.31Z"/>
  <path class="cls-1" d="M1118.94,572.47c.73-.41,1.23-.26,1.5.4.17.43.05.83-.33,1.12-.33.25-.71.24-1.04.04-.65-.39-.58-.92-.13-1.56Z"/>
  <path class="cls-1" d="M1062.34,475.94c-.53-.62-.49-1.15.05-1.58.31-.25.7-.22,1.03.01.39.27.55.66.39,1.1-.24.67-.71.86-1.47.47Z"/>
  <path class="cls-1" d="M1187.27,518.64c.55.59.53,1.1-.01,1.54-.37.3-.77.26-1.13-.04-.31-.25-.45-.6-.31-.97.24-.63.69-.87,1.46-.53Z"/>
  <path class="cls-1" d="M1066.07,469.14c.64.42.92.89.52,1.51-.22.34-.58.46-.97.34-.43-.13-.78-.41-.78-.88,0-.7.42-1.03,1.23-.97Z"/>
  <path class="cls-1" d="M1141.43,569.74c.41-.86.95-1.21,1.63-.53.42.42.38,1.04-.15,1.38-.8.51-1.27.1-1.48-.85Z"/>
  <path class="cls-1" d="M1188.14,496.7c-.73.4-1.23.23-1.52-.41-.2-.45.02-.83.39-1.1.33-.24.7-.26,1.04-.04.63.41.61.92.09,1.55Z"/>
  <path class="cls-1" d="M1057.26,490.89c.86.42,1.16.99.52,1.65-.43.45-1.04.35-1.37-.17-.5-.8-.1-1.27.84-1.48Z"/>
  <path class="cls-1" d="M1147.18,568.51c-.54-.64-.43-1.16.1-1.56.37-.28.8-.22,1.15.1.29.27.38.64.24,1-.25.67-.74.82-1.48.46Z"/>
  <path class="cls-1" d="M1174.2,545.36c.71-.35,1.23-.26,1.51.41.15.36.08.73-.22,1.01-.34.32-.77.4-1.15.14-.58-.39-.63-.92-.14-1.56Z"/>
  <path class="cls-1" d="M1157.29,562.85c-.44-.69-.31-1.19.3-1.53.42-.23.82-.09,1.13.25.27.3.32.67.11,1.02-.36.61-.86.71-1.54.27Z"/>
  <path class="cls-1" d="M1107.23,436.58c.26.89.09,1.51-.85,1.49-.63-.01-.96-.54-.79-1.1.24-.82.83-1,1.64-.39Z"/>
  <path class="cls-1" d="M1084.52,445.85c.91.44,1.03,1.05.42,1.67-.4.4-.97.25-1.23-.19-.43-.73-.25-1.32.8-1.47Z"/>
  <path class="cls-1" d="M1171.89,551.2c-.79.61-1.38.53-1.65-.35-.18-.61.16-1.08.78-1.1.92-.04,1.18.51.86,1.45Z"/>
  <path class="cls-1" d="M1066.32,462.78c.67-.37,1.12-.22,1.38.35.2.43.05.84-.34,1.1-.33.23-.72.2-1.03-.04-.52-.39-.53-.86-.02-1.42Z"/>
  <path class="cls-1" d="M1180.37,535.32c.95-.34,1.48-.01,1.51.85.02.65-.49.97-1.08.81-.9-.23-.96-.85-.42-1.66Z"/>
  <path class="cls-1" d="M1162.06,558c.93-.42,1.47-.1,1.55.76.06.62-.43,1.04-1.02.9-.83-.2-1.06-.8-.53-1.66Z"/>
  <path class="cls-1" d="M1075.48,453.65c.49.58.47,1.06-.03,1.46-.32.25-.7.23-1.03,0-.38-.28-.55-.67-.34-1.11.27-.58.74-.71,1.4-.34Z"/>
  <path class="cls-1" d="M1126.25,572.95c0,.83-.39,1.18-1.1,1.09-.41-.05-.63-.37-.71-.75-.1-.46.07-.86.51-1.05.62-.27,1,.09,1.31.71Z"/>
  <path class="cls-1" d="M1060.93,481.39c-.72.18-1.16-.03-1.33-.64-.14-.49.15-.8.55-1.03.37-.22.75-.15,1.02.13.5.52.43,1.04-.23,1.54Z"/>
  <path class="cls-1" d="M1117.59,435.75c-.15-.78.08-1.25.8-1.32.39-.04.7.16.86.53.19.44.07.84-.27,1.12-.5.42-.96.24-1.39-.34Z"/>
  <path class="cls-1" d="M1184.33,525.09c.39-.87.97-1.19,1.64-.58.45.4.37,1.02-.15,1.37-.76.51-1.28.2-1.49-.78Z"/>
  <path class="cls-1" d="M1057.25,515.08c-.14.95-.63,1.36-1.42.97-.53-.26-.68-.85-.24-1.32.6-.67,1.18-.5,1.67.35Z"/>
  <path class="cls-1" d="M1123.61,432.44c.32-.89.88-1.08,1.5-.58.5.41.42,1-.12,1.34-.73.47-1.19.11-1.39-.76Z"/>
  <path class="cls-1" d="M1176.46,547.09c.88-.32,1.48-.17,1.46.78-.01.51-.43.91-.96.8-.87-.18-1.06-.74-.5-1.58Z"/>
  <path class="cls-1" d="M1101.78,572.08c.86.42,1.13.97.46,1.64-.41.41-.92.34-1.24-.13-.54-.8-.13-1.27.78-1.52Z"/>
  <path class="cls-1" d="M1106.95,573.84c.64-.35,1.12-.3,1.39.3.18.41.12.82-.24,1.14-.3.27-.68.32-1.01.12-.63-.38-.57-.92-.14-1.55Z"/>
  <path class="cls-1" d="M1130.27,434.84c1.01.12,1.31.65.88,1.43-.26.48-.8.59-1.23.22-.73-.62-.51-1.18.35-1.66Z"/>
  <path class="cls-1" d="M1089.07,442.89c.68-.37,1.12-.17,1.37.4.19.43.04.84-.35,1.1-.34.23-.72.19-1.03-.06-.5-.41-.5-.88,0-1.44Z"/>
  <path class="cls-1" d="M1053.61,490.94c.63-.81,1.22-.74,1.66,0,.28.48.07.97-.46,1.12-.85.25-1.31-.09-1.2-1.13Z"/>
  <path class="cls-1" d="M1190.35,508.55c-.58-.8-.46-1.38.42-1.6.53-.13.95.2.99.74.06.93-.48,1.17-1.41.87Z"/>
  <path class="cls-1" d="M1072.21,451.96c.56-.8,1.12-.7,1.57-.08.32.44.21.99-.32,1.18-.86.32-1.28-.11-1.25-1.1Z"/>
  <path class="cls-1" d="M1071.59,458.57c-.09,1.03-.61,1.32-1.4.89-.49-.26-.58-.81-.23-1.23.61-.75,1.17-.53,1.64.34Z"/>
  <path class="cls-1" d="M1190.84,514.75c-.97.12-1.48-.21-1.24-1.12.13-.52.62-.8,1.11-.55.75.38.92.97.14,1.67Z"/>
  <path class="cls-1" d="M1114.22,576.09c-.81.69-1.36.44-1.61-.39-.16-.51.14-1.01.69-1.04.89-.05,1.23.45.92,1.42Z"/>
  <path class="cls-1" d="M1059.62,474.25c-.08-.99.31-1.45,1.2-1.16.5.16.74.67.48,1.16-.44.81-1.04.75-1.68,0Z"/>
  <path class="cls-1" d="M1079.66,451.25c-1.04-.13-1.28-.68-.9-1.46.26-.52.79-.57,1.2-.19.63.58.65,1.17-.3,1.64Z"/>
  <path class="cls-1" d="M1179.02,541.1c-.04.72-.31,1.11-.97,1.07-.48-.03-.76-.35-.84-.79-.07-.45.09-.85.55-1.01.6-.21,1.01.05,1.26.74Z"/>
  <path class="cls-1" d="M1182.31,473.11c-.52-.83-.38-1.42.47-1.66.56-.16.93.19.92.76,0,.85-.4,1.28-1.39.9Z"/>
  <path class="cls-1" d="M1137.85,573.38c.68.75.58,1.35-.25,1.67-.5.19-.97-.08-1.05-.66-.12-.89.27-1.31,1.3-1.02Z"/>
  <path class="cls-1" d="M1187.22,525.41c.8-.6,1.38-.47,1.58.41.14.61-.31,1.03-.89,1.01-.84-.03-1-.59-.69-1.42Z"/>
  <path class="cls-1" d="M1137.07,437.26c-.8.64-1.38.5-1.64-.37-.16-.55.24-.96.74-1.01.9-.08,1.25.39.89,1.37Z"/>
  <path class="cls-1" d="M1193.51,502.38c-.84-.37-1.04-.91-.47-1.51.38-.4.94-.35,1.23.13.42.7.16,1.2-.76,1.38Z"/>
  <path class="cls-1" d="M1052.81,502.54c1.03.12,1.26.66.84,1.41-.26.47-.78.58-1.19.21-.65-.6-.54-1.17.35-1.62Z"/>
  <path class="cls-1" d="M1049.48,510.09c-.11-.92.26-1.35,1.07-1.15.56.14.72.63.45,1.14-.4.76-.93.78-1.52.02Z"/>
  <path class="cls-1" d="M1190.99,502.55c-.97-.07-1.24-.57-.9-1.3.28-.59.86-.67,1.31-.22.58.58.47,1.13-.41,1.52Z"/>
  <path class="cls-1" d="M1068.38,457.75c-.71-.58-.97-1.16-.13-1.68.46-.29.98-.1,1.17.41.31.83-.03,1.3-1.04,1.27Z"/>
  <path class="cls-1" d="M1053.37,510.4c-.92.11-1.37-.26-1.19-1.07.14-.63.71-.85,1.25-.53.7.42.66,1.01-.05,1.59Z"/>
  <path class="cls-1" d="M1189.06,519.19c.93-.16,1.37.19,1.22,1.02-.12.65-.67.86-1.22.57-.77-.41-.66-.98,0-1.58Z"/>
  <path class="cls-1" d="M1164.02,560.15c.71-.19,1.13.02,1.25.65.08.45-.08.82-.54.99-.38.14-.72.03-.98-.27-.43-.49-.33-.94.27-1.37Z"/>
  <path class="cls-1" d="M1155.16,567.55c-.14.9-.59,1.27-1.33.86-.54-.31-.65-.91-.18-1.34.59-.53,1.16-.4,1.51.49Z"/>
  <path class="cls-1" d="M1057.09,479.38c.42-.9.97-1.09,1.59-.39.36.41.28.95-.17,1.23-.78.48-1.26.14-1.42-.83Z"/>
  <path class="cls-1" d="M1063.87,461.47c.55-.75,1.11-.77,1.54-.08.33.53.12,1.09-.49,1.23-.76.18-1.19-.2-1.05-1.15Z"/>
  <path class="cls-1" d="M1119.91,576.78c-.94.26-1.34-.16-1.3-.93.03-.54.49-.91,1-.73.84.28.98.88.29,1.66Z"/>
  <path class="cls-1" d="M1054.04,516.47c-.89.21-1.36-.09-1.31-.9.03-.55.5-.89.99-.72.78.27,1.04.83.32,1.62Z"/>
  <path class="cls-1" d="M1149,571.22c-.97-.11-1.34-.6-.89-1.38.3-.52.91-.55,1.34-.13.63.61.3,1.1-.45,1.5Z"/>
  <path class="cls-1" d="M1172.64,551.89c.82-.37,1.37-.19,1.44.65.05.62-.4,1.04-1.01.89-.77-.19-.93-.76-.43-1.53Z"/>
  <path class="cls-1" d="M1124.92,575.27c.63-.35,1.1-.28,1.37.3.19.42.07.81-.3,1.09-.33.24-.69.25-1,0-.47-.37-.59-.83-.06-1.4Z"/>
  <path class="cls-1" d="M1119.13,432.67c-.36.83-.9,1.06-1.5.5-.45-.42-.37-1.02.18-1.33.75-.43,1.18-.05,1.32.83Z"/>
  <path class="cls-1" d="M1095.68,440.33c.37.88.2,1.46-.72,1.49-.53.01-.89-.42-.82-.93.13-.89.69-1.06,1.54-.56Z"/>
  <path class="cls-1" d="M1064.3,468.86c-.59.88-1.16.82-1.63.07-.3-.47-.1-1.01.38-1.19.87-.33,1.26.15,1.25,1.12Z"/>
  <path class="cls-1" d="M1101.12,439.57c-1.04.21-1.4-.26-1.28-1.11.07-.49.52-.73.96-.57.84.31.94.9.32,1.68Z"/>
  <path class="cls-1" d="M1082.1,444.76c-.08-.9.25-1.37,1.08-1.14.52.14.75.64.48,1.14-.41.75-.97.69-1.56,0Z"/>
  <path class="cls-1" d="M1160.45,566.25c.86-.39,1.35-.16,1.38.69.02.57-.4.92-.94.78-.73-.19-1.08-.66-.45-1.47Z"/>
  <path class="cls-1" d="M1188.89,490.37c-.72-.54-.83-1.1-.15-1.57.52-.36,1.07-.17,1.25.44.24.8-.2,1.16-1.1,1.13Z"/>
  <path class="cls-1" d="M1191.06,495.96c-.64.7-1.2.65-1.57-.07-.3-.57-.02-1.08.6-1.17.8-.12,1.15.33.97,1.24Z"/>
  <path class="cls-1" d="M1192.21,495.5c-.07-.9.27-1.36,1.08-1.13.51.14.77.66.49,1.14-.41.72-.99.66-1.58-.01Z"/>
  <path class="cls-1" d="M1052.76,483.82c.82-.36,1.35-.18,1.39.66.03.62-.39,1.02-1.01.84-.73-.22-.98-.73-.38-1.5Z"/>
  <path class="cls-1" d="M1056.78,484.92c.11.96-.22,1.46-1.13,1.2-.51-.14-.8-.6-.52-1.1.39-.71.96-.95,1.65-.1Z"/>
  <path class="cls-1" d="M1143.71,571.81c.56.71.53,1.27-.27,1.53-.61.2-1.06-.15-1.07-.76-.01-.8.46-1.11,1.34-.77Z"/>
  <path class="cls-1" d="M1113.79,578.87c-.77.56-1.3.35-1.5-.43-.14-.54.26-.96.79-.97.91-.02,1,.57.71,1.39Z"/>
  <path class="cls-1" d="M1160.36,564.58c-.29.89-.79,1.09-1.42.57-.5-.41-.46-.94.07-1.29.7-.46,1.15-.17,1.35.72Z"/>
  <path class="cls-1" d="M1141.35,438.09c.43-.88,1.01-.9,1.54-.34.38.4.27.95-.2,1.22-.78.44-1.16-.04-1.33-.88Z"/>
  <path class="cls-1" d="M1100.65,436.28c-.43.85-.98.91-1.5.32-.35-.4-.24-.95.23-1.2.75-.4,1.15.01,1.27.88Z"/>
  <path class="cls-1" d="M1050.1,516.49c-.19-.92.16-1.33.98-1.19.47.08.72.52.54.97-.3.75-.82.91-1.52.22Z"/>
  <path class="cls-1" d="M1185.43,532.47c-.58-.72-.48-1.28.26-1.55.61-.22,1.05.17,1.07.77.03.81-.46,1.09-1.33.78Z"/>
  <path class="cls-1" d="M1169.83,556.64c.06.89-.28,1.37-1.08,1.12-.56-.17-.85-.69-.47-1.24.45-.65,1.01-.66,1.56.12Z"/>
  <path class="cls-1" d="M1052.59,497.43c.1-.94.61-1.23,1.31-.88.57.28.64.84.19,1.31-.6.61-1.11.41-1.5-.42Z"/>
  <path class="cls-1" d="M1181.13,465.69c.01-.29.1-.48.2-.72.57-.35,1.11-.45,1.5.16.23.36.11.73-.2.97-.57.44-1.05.22-1.5-.41Z"/>
  <path class="cls-1" d="M1130.45,432.16c1.03-.09,1.35.4,1.06,1.21-.18.52-.74.63-1.17.35-.69-.45-.6-1.01.11-1.55Z"/>
  <path class="cls-1" d="M1184.24,537.01c.05.89-.3,1.36-1.09,1.11-.55-.17-.86-.7-.49-1.24.45-.66,1.03-.58,1.58.13Z"/>
  <path class="cls-1" d="M1179.64,543.03c-.07-.9.31-1.34,1.08-1.14.57.15.81.7.47,1.24-.44.71-.99.61-1.55-.1Z"/>
  <path class="cls-1" d="M1107.71,576.9c.17.86-.07,1.38-.92,1.23-.51-.09-.83-.52-.61-1.04.31-.73.84-.84,1.52-.19Z"/>
  <path class="cls-1" d="M1192.26,521.41c-.94-.1-1.18-.6-.83-1.31.25-.49.77-.6,1.18-.21.61.57.45,1.1-.35,1.52Z"/>
  <path class="cls-1" d="M1051.2,490.05c.65-.36,1.12-.28,1.34.36.12.37.03.74-.32.97-.28.19-.6.22-.89.03-.51-.34-.71-.77-.13-1.36Z"/>
  <path class="cls-1" d="M1105.03,434.57c.06-.92.47-1.27,1.23-.91.49.23.64.72.27,1.17-.52.62-1.05.57-1.5-.26Z"/>
  <path class="cls-1" d="M1050.09,497.53c-.4-.86-.17-1.33.67-1.35.54-.01.92.36.8.9-.17.78-.69.98-1.47.44Z"/>
  <path class="cls-1" d="M1171.67,558.85c-.11.9-.53,1.23-1.27.8-.47-.27-.6-.76-.2-1.18.57-.61,1.08-.45,1.48.38Z"/>
  <path class="cls-1" d="M1050.93,503.74c-.63.69-1.17.62-1.51-.1-.24-.5.05-.97.55-1.08.85-.2,1.1.31.96,1.18Z"/>
  <path class="cls-1" d="M1136.13,433.67c.56-.78,1.09-.72,1.52-.04.32.5.08.97-.42,1.12-.76.22-1.19-.13-1.1-1.08Z"/>
  <path class="cls-1" d="M1190.51,527.6c-.93-.3-1.05-.84-.51-1.45.3-.34.81-.36,1.11.04.52.67.31,1.16-.6,1.41Z"/>
  <path class="cls-1" d="M1099.98,577.62c.82.17,1.16.58.75,1.25-.29.49-.81.53-1.2.12-.55-.58-.32-1.04.45-1.37Z"/>
  <path class="cls-1" d="M1143.6,575.86c-.58-.76-.45-1.29.38-1.5.46-.12.88.13.92.63.06.84-.39,1.14-1.29.87Z"/>
  <path class="cls-1" d="M1061.76,466.56c.36.88.06,1.34-.75,1.35-.55,0-.88-.41-.73-.97.22-.81.72-.97,1.48-.38Z"/>
  <path class="cls-1" d="M1094.09,439.17c-.9-.14-1.26-.58-.83-1.33.23-.4.74-.51,1.11-.19.62.53.61,1.08-.28,1.52Z"/>
  <path class="cls-1" d="M1058,465.33c.48-.72.99-.79,1.42-.14.31.47.18.99-.37,1.15-.7.21-1.1-.14-1.05-1.01Z"/>
  <path class="cls-1" d="M1087.67,441.68c-.38-.85-.17-1.33.68-1.35.55-.01.91.38.79.91-.17.78-.7.96-1.47.44Z"/>
  <path class="cls-1" d="M1186.22,537.86c.7.66.64,1.19-.14,1.51-.43.18-.88-.04-.99-.51-.19-.8.17-1.2,1.12-1.01Z"/>
  <path class="cls-1" d="M1191.05,488.77c.4-.86.92-1,1.49-.38.33.35.24.84-.14,1.11-.71.49-1.16.19-1.35-.72Z"/>
  <path class="cls-1" d="M1057.86,473.51c-.81-.43-.95-.94-.32-1.49.42-.36.95-.27,1.18.21.33.69.08,1.2-.86,1.28Z"/>
  <path class="cls-1" d="M1179.57,550.27c-.95.07-1.31-.35-1.05-1.14.14-.42.58-.67,1.04-.43.77.41.68.96.02,1.57Z"/>
  <path class="cls-1" d="M1066.45,454.17c.88.15,1.22.57.77,1.31-.24.4-.69.51-1.07.16-.56-.53-.63-1.06.29-1.46Z"/>
  <path class="cls-1" d="M1149.59,573.7c-.72-.67-.55-1.19.16-1.54.45-.22.87.02.98.49.18.8-.21,1.19-1.14,1.05Z"/>
  <path class="cls-1" d="M1138.36,577.69c-.92.07-1.3-.34-1.11-1.11.14-.55.63-.73,1.11-.44.71.42.69.97,0,1.56Z"/>
  <path class="cls-1" d="M1165.43,562.68c.74-.57,1.26-.43,1.47.37.13.48-.23.86-.66.89-.81.06-1.13-.38-.81-1.26Z"/>
  <path class="cls-1" d="M1120.13,579.17c-.64.65-1.19.61-1.54-.11-.2-.42.02-.87.47-.99.78-.21,1.16.18,1.07,1.1Z"/>
  <path class="cls-1" d="M1117.35,429.48c.48-.71.98-.76,1.41-.13.31.46.2.97-.35,1.14-.7.21-1.08-.17-1.06-1.01Z"/>
  <path class="cls-1" d="M1078.61,447.99c-.1.97-.6,1.18-1.31.77-.41-.24-.53-.69-.19-1.08.56-.66,1.08-.52,1.5.31Z"/>
  <path class="cls-1" d="M1053.62,477.13c.07.83-.26,1.26-1,1.08-.51-.13-.8-.61-.47-1.12.4-.63.93-.6,1.47.04Z"/>
  <path class="cls-1" d="M1100.56,576.5c-.71-.64-.69-1.18.08-1.53.42-.19.9-.02,1.03.45.22.79-.16,1.2-1.11,1.09Z"/>
  <path class="cls-1" d="M1124.94,579.13c-.2-.88.05-1.37.92-1.18.55.12.74.62.52,1.11-.32.69-.84.68-1.43.08Z"/>
  <path class="cls-1" d="M1194.05,520.89c.48-.71,1.01-.78,1.43-.17.3.43.19.99-.37,1.16-.7.22-1.1-.13-1.06-.99Z"/>
  <path class="cls-1" d="M1195.64,501.66c-.11-.83.23-1.23.95-1.07.53.12.77.62.48,1.11-.38.65-.9.61-1.43-.04Z"/>
  <path class="cls-1" d="M1185.34,470.22c.84.26,1.04.72.54,1.32-.37.45-.91.43-1.22-.03-.42-.62-.17-1.09.67-1.29Z"/>
  <path class="cls-1" d="M1046.78,510.23c-.13-.83.22-1.22.94-1.07.53.11.77.6.48,1.09-.37.62-.88.68-1.41-.02Z"/>
  <path class="cls-1" d="M1105.77,580.58c-.34-.9-.03-1.32.81-1.28.42.02.69.34.62.75-.14.8-.61,1.05-1.42.53Z"/>
  <path class="cls-1" d="M1130.59,429.55c.81-.38,1.26-.09,1.29.64.03.56-.42.92-.95.77-.69-.2-.89-.7-.34-1.4Z"/>
  <path class="cls-1" d="M1193.08,508.48c-.46-.83-.26-1.32.57-1.42.48-.06.83.26.8.74-.04.82-.51,1.08-1.37.68Z"/>
  <path class="cls-1" d="M1047.33,502.48c.83.16,1.11.62.76,1.26-.28.51-.83.51-1.2.12-.52-.54-.33-1.04.44-1.38Z"/>
  <path class="cls-1" d="M1156.27,573.12c-.34-.79-.07-1.24.64-1.27.55-.03.85.43.72.95-.19.72-.67.85-1.35.32Z"/>
  <path class="cls-1" d="M1070.43,449.93c.58-.64,1.1-.67,1.45.03.21.42.05.89-.44,1.01-.72.18-1.12-.15-1.01-1.04Z"/>
  <path class="cls-1" d="M1104.45,431.59c.27-.83.76-1.02,1.34-.54.44.36.38.91-.09,1.21-.61.4-1.1.22-1.25-.67Z"/>
  <path class="cls-1" d="M1047.39,516.19c.55-.61,1.06-.7,1.42-.02.24.46.09.97-.48,1.08-.7.15-1.07-.2-.94-1.06Z"/>
  <path class="cls-1" d="M1055.7,472.17c-.83-.09-1.18-.46-.84-1.15.25-.5.76-.59,1.17-.23.55.49.42.99-.33,1.38Z"/>
  <path class="cls-1" d="M1051.25,522.05c.62-.69,1.15-.71,1.49.08.17.4.04.88-.43,1.01-.78.21-1.17-.15-1.06-1.09Z"/>
  <path class="cls-1" d="M1125.02,581.3c.5-.66.99-.81,1.42-.12.25.41.14.88-.33,1.06-.74.28-1.07-.12-1.09-.94Z"/>
  <path class="cls-1" d="M1196.27,508.77c-.69-.4-.9-.87-.35-1.4.34-.33.83-.3,1.07.11.39.66.28,1.19-.72,1.29Z"/>
  <path class="cls-1" d="M1175.84,554.98c-.82.45-1.3.26-1.39-.57-.05-.47.24-.86.71-.82.78.06,1.05.54.68,1.39Z"/>
  <path class="cls-1" d="M1185.03,464.52c-.73.48-1.2.29-1.33-.43-.1-.55.3-.93.82-.9.84.05.78.65.51,1.34Z"/>
  <path class="cls-1" d="M1093.62,435.62c-.06.86-.44,1.21-1.14.82-.41-.22-.56-.71-.26-1.09.47-.58.98-.5,1.4.27Z"/>
  <path class="cls-1" d="M1187.72,532.45c.63-.76,1.14-.6,1.49.09.22.43.01.86-.44.99-.77.21-1.19-.12-1.05-1.08Z"/>
  <path class="cls-1" d="M1187.69,470.45c-.73-.35-.99-.81-.43-1.37.34-.35.84-.3,1.09.09.38.6.21,1.09-.66,1.28Z"/>
  <path class="cls-1" d="M1075.33,445.82c.34-.79.83-.93,1.36-.41.39.38.36.9-.12,1.19-.67.38-1.05,0-1.24-.77Z"/>
  <path class="cls-1" d="M1193.76,514.85c-.79.4-1.33.28-1.42-.57-.05-.47.3-.83.75-.82.83.03,1.03.55.67,1.39Z"/>
  <path class="cls-1" d="M1154.83,569.8c.63-.72,1.16-.67,1.51.08.19.41.02.88-.44,1.01-.79.22-1.18-.15-1.06-1.09Z"/>
  <path class="cls-1" d="M1060.69,457.8c.48.66.45,1.18-.3,1.38-.44.12-.86-.15-.9-.63-.06-.78.42-.97,1.2-.75Z"/>
  <path class="cls-1" d="M1184.73,544.95c.82-.12,1.26.17,1.13.93-.08.49-.52.71-.96.51-.66-.3-.79-.8-.17-1.43Z"/>
  <path class="cls-1" d="M1113.24,580.47c.55.65.49,1.16-.24,1.41-.56.2-.98-.19-1-.7-.03-.73.44-1,1.23-.71Z"/>
  <path class="cls-1" d="M1143.4,436.26c-.9.17-1.36-.12-1.19-.96.09-.46.5-.74.95-.56.74.29.9.81.24,1.52Z"/>
  <path class="cls-1" d="M1047.82,495.89c.87.07,1.11.49.82,1.17-.2.45-.64.6-1.02.31-.66-.48-.63-1.01.21-1.48Z"/>
  <path class="cls-1" d="M1196.28,515.28c-.84.15-1.26-.13-1.12-.91.09-.5.5-.73.95-.54.67.29.78.8.17,1.44Z"/>
  <path class="cls-1" d="M1056.25,478.57c-.38.88-.9,1.01-1.48.39-.33-.35-.3-.84.11-1.1.69-.45,1.19-.24,1.37.71Z"/>
  <path class="cls-1" d="M1183.52,543.76c.16.89-.14,1.35-.96,1.18-.45-.09-.71-.52-.55-.95.29-.75.82-.86,1.51-.23Z"/>
  <path class="cls-1" d="M1063.98,452.62c.75-.43,1.21-.25,1.3.5.04.38-.22.74-.64.74-.8,0-.95-.47-.66-1.24Z"/>
  <path class="cls-1" d="M1087.05,437.86c.79.31.99.77.49,1.36-.33.38-.78.34-1.08-.06-.49-.65-.18-1.06.6-1.3Z"/>
  <path class="cls-1" d="M1138.34,580.35c-.64-.58-.66-1.1.02-1.45.42-.22.89-.02,1.01.45.19.73-.14,1.11-1.03,1Z"/>
  <path class="cls-1" d="M1187.56,540.02c.09-.85.49-1.18,1.18-.81.44.23.5.74.21,1.09-.48.59-.98.49-1.39-.28Z"/>
  <path class="cls-1" d="M1167.14,564.9c.67-.53,1.18-.43,1.4.3.14.46-.13.89-.61.92-.74.04-1.01-.42-.79-1.22Z"/>
  <path class="cls-1" d="M1189.77,475.78c.1-.86.53-1.11,1.19-.77.44.22.51.71.21,1.06-.48.56-.98.45-1.4-.29Z"/>
  <path class="cls-1" d="M1193.89,488.63c-.21-.86.12-1.24.86-1.14.49.07.73.48.56.94-.27.71-.78.78-1.43.2Z"/>
  <path class="cls-1" d="M1195.65,495.55c-.77-.34-.95-.83-.45-1.37.37-.39.92-.35,1.19.13.35.62.1,1.09-.75,1.24Z"/>
  <path class="cls-1" d="M1190.28,534.03c.05-.82.42-1.18,1.12-.87.42.18.58.64.28,1.05-.46.62-.94.55-1.4-.17Z"/>
  <path class="cls-1" d="M1098.6,581.53c-.18-.82.1-1.23.85-1.13.5.07.68.47.52.93-.27.74-.75.75-1.37.2Z"/>
  <path class="cls-1" d="M1062.05,459.44c.88-.22,1.21.17,1.14.88-.05.52-.47.73-.93.56-.71-.27-.78-.78-.21-1.44Z"/>
  <path class="cls-1" d="M1049.69,489.73c.16.82-.08,1.27-.86,1.12-.48-.09-.7-.51-.54-.96.27-.73.77-.75,1.39-.17Z"/>
  <path class="cls-1" d="M1124.88,428.91c.71.51.74,1.02.1,1.44-.43.28-.87.07-1.04-.38-.29-.75.11-1.08.94-1.06Z"/>
  <path class="cls-1" d="M1050.75,482.92c.84.31.93.78.4,1.32-.33.34-.81.36-1.09-.05-.45-.66-.09-1.05.68-1.27Z"/>
  <path class="cls-1" d="M1144.26,578.23c-.22-.86.1-1.24.86-1.11.48.08.74.48.57.94-.28.73-.79.75-1.42.17Z"/>
  <path class="cls-1" d="M1118.8,581.04c.84-.4,1.22-.05,1.23.67.01.46-.34.84-.83.71-.68-.18-.93-.65-.4-1.38Z"/>
  <path class="cls-1" d="M1136.8,430.94c.56-.65,1.07-.71,1.42,0,.21.42.04.88-.44,1.01-.71.19-1.11-.11-.98-1.01Z"/>
  <path class="cls-1" d="M1144.55,432.99c-.35.83-.88.86-1.37.38-.34-.33-.26-.83.14-1.08.63-.38,1.08-.15,1.23.7Z"/>
  <path class="cls-1" d="M1151.71,575.85c-.59.64-1.1.59-1.42-.08-.2-.42-.03-.89.45-.99.72-.15,1.08.22.97,1.08Z"/>
  <path class="cls-1" d="M1048.59,522.71c.57-.67,1.09-.59,1.42.04.22.42,0,.88-.46.99-.71.17-1.1-.14-.97-1.03Z"/>
  <path class="cls-1" d="M1180.69,551.04c.34-.85.86-.87,1.35-.37.33.34.24.84-.16,1.09-.65.41-1.07.14-1.19-.72Z"/>
  <path class="cls-1" d="M1099,432.66c.77.33.97.8.44,1.36-.35.38-.83.28-1.09-.1-.42-.61-.22-1.08.64-1.26Z"/>
  <path class="cls-1" d="M1192.61,527.04c.72-.4,1.25-.35,1.35.46.06.48-.3.84-.77.81-.76-.04-1.01-.49-.58-1.28Z"/>
  <path class="cls-1" d="M1177.65,555.6c.59.61.56,1.12-.13,1.43-.44.2-.88-.04-.97-.51-.13-.73.26-1.06,1.09-.92Z"/>
  <path class="cls-1" d="M1172.57,560.31c.93.03,1.15.48.77,1.15-.25.43-.74.46-1.1.14-.54-.48-.36-.92.33-1.29Z"/>
  <path class="cls-1" d="M1139.37,581.63c.76.32.83.82.39,1.29-.33.36-.84.28-1.08-.15-.32-.57-.12-1.02.69-1.14Z"/>
  <path class="cls-1" d="M1168.76,567.72c.08-.86.51-1.09,1.16-.76.37.19.43.61.19.93-.45.63-.92.53-1.36-.17Z"/>
  <path class="cls-1" d="M1163.34,571.25c.59-.66,1.06-.53,1.35.13.16.37,0,.77-.4.87-.71.19-1.09-.12-.95-1Z"/>
  <path class="cls-1" d="M1162.17,569.93c-.63-.61-.57-1.1.13-1.42.39-.18.78,0,.89.4.2.73-.14,1.1-1.02,1.02Z"/>
  <path class="cls-1" d="M1046.66,488.84c.62.58.6,1.08-.08,1.41-.36.18-.76.03-.89-.37-.24-.74.14-1.07.97-1.04Z"/>
  <path class="cls-1" d="M1074.33,444.44c-.76-.31-.84-.79-.42-1.28.34-.39.83-.3,1.07.12.32.56.18,1.02-.66,1.15Z"/>
  <path class="cls-1" d="M1080.03,440.45c-.79-.15-1.13-.52-.7-1.19.23-.36.66-.41.95-.17.59.47.47.95-.25,1.37Z"/>
  <path class="cls-1" d="M1080.66,442.21c.06-.86.47-1.14,1.13-.79.42.22.51.7.23,1.07-.49.65-.95.39-1.37-.27Z"/>
  <path class="cls-1" d="M1049.98,477.09c-.6-.58-.64-1.07.09-1.39.38-.16.76.02.87.42.2.71-.07,1.1-.96.97Z"/>
  <path class="cls-1" d="M1047.3,482.77c.32-.72.79-.86,1.27-.4.34.33.31.84-.12,1.08-.58.33-1,.08-1.15-.69Z"/>
  <path class="cls-1" d="M1124.54,426.14c.88.09,1.09.53.75,1.17-.18.34-.59.47-.93.2-.58-.45-.58-.93.18-1.37Z"/>
  <path class="cls-1" d="M1131.48,426.64c.75.37.91.83.34,1.35-.3.27-.73.22-.96-.11-.43-.63-.21-1.06.62-1.24Z"/>
  <path class="cls-1" d="M1138.22,429.19c-.81-.06-1.05-.45-.77-1.07.22-.48.69-.54,1.05-.22.51.44.4.92-.28,1.3Z"/>
  <path class="cls-1" d="M1197.94,514.62c.51-.57.99-.62,1.35-.02.21.35.13.78-.28.94-.73.28-1.09-.07-1.07-.91Z"/>
  <path class="cls-1" d="M1105.45,582.18c.84-.18,1.21.12,1.05.87-.08.4-.42.62-.82.49-.76-.24-.74-.74-.23-1.36Z"/>
  <path class="cls-1" d="M1112.61,584.65c-.86-.1-1.11-.51-.73-1.17.21-.37.66-.4.96-.18.64.46.52.94-.23,1.35Z"/>
  <path class="cls-1" d="M1044.86,516.37c.78-.43,1.21-.16,1.29.57.04.41-.3.71-.69.69-.75-.05-.99-.48-.59-1.25Z"/>
  <path class="cls-1" d="M1187.95,546.58c.4.72.31,1.19-.49,1.28-.41.04-.74-.26-.73-.64.02-.73.44-1,1.22-.63Z"/>
  <path class="cls-1" d="M1196.13,527.72c.62.52.54.98-.05,1.28-.43.22-.87.05-.97-.44-.13-.67.25-.95,1.01-.83Z"/>
  <path class="cls-1" d="M1175.09,562.56c.38.65.31,1.12-.38,1.24-.49.09-.82-.25-.78-.73.06-.64.43-.92,1.16-.51Z"/>
  <path class="cls-1" d="M1068.87,447.56c.83-.16,1.21.16,1.11.88-.05.42-.42.62-.81.48-.67-.23-.86-.69-.3-1.36Z"/>
  <path class="cls-1" d="M1184.15,552.28c.38.78.14,1.2-.61,1.22-.41.01-.7-.29-.63-.72.11-.68.56-.8,1.25-.5Z"/>
  <path class="cls-1" d="M1092.13,432.53c.63.64.48,1.12-.2,1.39-.41.17-.73-.12-.81-.52-.13-.68.24-.95,1-.87Z"/>
  <path class="cls-1" d="M1056.14,464.79c-.66-.58-.59-1.06.06-1.4.37-.19.74.02.87.4.26.74-.1,1.06-.93,1Z"/>
  <path class="cls-1" d="M1053.58,469.56c.43.74.28,1.19-.49,1.27-.41.04-.72-.25-.71-.64.02-.73.41-1.02,1.21-.63Z"/>
  <path class="cls-1" d="M1104.69,428.17c.73.31.83.79.41,1.28-.34.39-.84.29-1.09-.1-.37-.59-.04-.98.68-1.17Z"/>
  <path class="cls-1" d="M1198.48,508.4c-.14-.85.23-1.17.94-1.04.41.08.6.48.45.84-.27.68-.76.77-1.39.2Z"/>
  <path class="cls-1" d="M1118.27,426.27c.59.59.61,1.08-.12,1.38-.39.16-.77-.06-.87-.43-.2-.72.13-1.08.99-.95Z"/>
  <path class="cls-1" d="M1193.09,535.42c-.41-.69-.21-1.12.42-1.25.49-.1.81.26.77.73-.06.68-.5.84-1.2.51Z"/>
  <path class="cls-1" d="M1199.07,493.95c.19.77-.09,1.15-.75,1.08-.48-.05-.77-.46-.57-.92.25-.58.72-.73,1.32-.17Z"/>
  <path class="cls-1" d="M1044.93,497.03c-.64-.57-.62-1.06.06-1.39.36-.17.75,0,.89.39.25.73-.11,1.05-.94,1Z"/>
  <path class="cls-1" d="M1193.54,473.96c.37.63.34,1.11-.35,1.25-.49.1-.85-.24-.84-.69.01-.7.5-.81,1.19-.56Z"/>
  <path class="cls-1" d="M1189.65,467.85c.68-.46,1.11-.3,1.23.38.09.49-.22.87-.71.82-.63-.07-.92-.47-.52-1.2Z"/>
  <path class="cls-1" d="M1161.02,461.54c-1.8-1.98-3.52-3.85-5.22-5.72-1.36-1.5-1.36-2.03.02-3.44,1.08-1.11,2.29-2.05,3.71-2.68,1.64-.73,3.09-.35,4.08,1.02,2.13,2.92,1.4,9.43-1.34,11.94-.58-.1-.8-.64-1.25-1.11Z"/>
  <path class="cls-1" d="M1068.91,533.71c.48,3.92-1.08,7.09-2.79,10.07-.67.13-.89-.11-1.1-.34-1.63-1.8-3.23-3.63-4.89-5.41-.76-.82-.76-1.54-.02-2.34,1.32-1.44,2.56-2.95,4.24-4.02,2.79-1.78,3.84-1.34,4.56,2.05Z"/>
  <path class="cls-1" d="M1079.78,553.55c-.13.2-.18.29-.24.37-2.19,2.94-3.33,2.85-5.28-.39-.24-.4-.39-.77-.02-1.14,2.16-2.18,4.28-4.43,7.25-5.55.19-.07.41-.05.84-.09.1,2.64-1.27,4.64-2.55,6.8Z"/>
</svg>