<?xml version="1.0" encoding="utf-8"?>
<!-- Generator: Adobe Illustrator 25.0.0, SVG Export Plug-In . SVG Version: 6.00 Build 0)  -->
<svg version="1.1" id="Layer_1" xmlns="http://www.w3.org/2000/svg" xmlns:xlink="http://www.w3.org/1999/xlink" x="0px" y="0px"
	 viewBox="0 0 1920 1080" style="enable-background:new 0 0 1920 1080;" xml:space="preserve">
<style type="text/css">
	.st0{fill:#84D36A;stroke:#000000;stroke-miterlimit:10;}
</style>
<path class="st0" d="M-34.19,649.36c3.25-2.55,8.49-5.86,15.5-6.79c8.43-1.12,13.28,2.01,15.5,0c4.87-4.42-14-23.65-10.33-27.18
	c2.84-2.73,21.27,2.96,31.43,13.06c1.21,1.2,2.92,3.08,4.73,2.79c3.87-0.62,2.44-10.22,7.75-20.38
	c5.32-10.18,15.45-17.19,18.08-15.85c2.29,1.16-2.63,7.89,0,18.12c0.66,2.57,2.59,10.1,7.75,11.32c4.43,1.05,6.06-3.79,15.5-6.79
	c9.43-3.01,20.62-2.26,20.66-2.26c3.14-5.7,4.71-8.56,5.17-9.06c1.94-2.13,6.44-2.8,20.25-0.3c8.93,1.61,13.11,3,13.33,2.57
	c0.64-1.3-37.34-15.01-36.16-18.12c1.29-3.4,51.38,1.52,73.98,12.25c0.97,0.46,4.92,2.37,6.09,1.34
	c3.38-2.99-21.23-26.46-18.08-29.44c4.11-3.89,50.48,31.84,59.41,24.91c4.86-3.77-4.5-17.77,0-20.38
	c5.93-3.44,24.01,19.77,36.16,15.85c8.72-2.81,9.97-18.17,10.33-22.65c1.51-18.64-8.83-29.38-5.17-31.71
	c4.15-2.63,21.71,8.4,28.41,22.65c1.29,2.74,4.02,8.54,3.81,16.17c-0.19,7.01-2.7,10.04-1.23,11c3.42,2.25,21.72-11.06,36.16-27.18
	c7.49-8.35,11.09-14.28,12.91-13.59c2.64,1-0.01,15.22-4.86,27.19c-2.41,5.94-4,7.96-2.89,9.05c4.78,4.69,44.92-22.33,49.07-18.12
	c2.86,2.9-14.49,17.3-10.33,22.65c3.01,3.87,15.47,0.65,18.08,0c50.97-12.76,162.09-2.21,162.72-11.32
	c0.34-4.88-31.41-9.86-30.99-11.32c0.2-0.69,1.27-0.88,49.07,6.79c-6.51-19.58-5.17-20.38-5.17-20.38
	c13.58,18.37,21.26,21.4,25.83,20.38c4.11-0.92,4.23-4.78,10.33-9.06c10.92-7.64,27.45-7.13,28.41-4.53
	c1.19,3.21-21.47,9.43-20.66,13.59c2.04,10.43,131.73-2.26,131.73-2.26c358.15-0.74,494.11,0.29,500.51,2.25
	c0.31,0.09,2.05,0.72,3.15,0.01c4.72-3.04-10.21-25.85-7.75-27.18c2.64-1.43,19.37,25.27,30.99,22.65
	c7.91-1.78,9.9-16.34,12.91-15.85c3.17,0.51,0.19,16.51,5.17,18.12c6.51,2.11,21.2-22.24,25.83-20.38
	c3.92,1.57-5.07,19.69,2.58,24.91c3.11,2.12,7,0.78,12.91,0c24.17-3.19,41.24,8.35,43.91,4.53c2.71-3.88-14.48-16.46-12.91-18.12
	c2.15-2.28,34.72,21.06,41.33,15.85c3.82-3.01-3.84-13.35,0-15.85c1.7-1.11,3.02-1.4,25.83,11.32c11.58-6.25,12.91-6.79,12.91-6.79
	c10.31-4.22,24.35-3.58,25.83,0c1.39,3.38-16.8,10.2-15.5,13.59c1.12,2.91,14.76-1.18,33.58,0c24.21,1.52,38.2,10.59,41.33,6.79
	c3.55-4.31-12.73-18.11-10.33-20.38c3.55-3.37,41.83,24.57,46.49,20.38c1.74-1.56-2.99-5.95-5.17-15.85
	c-1.92-8.74-1.74-21.31,2.58-22.65c8.69-2.68,30.87,41.11,38.74,38.5c4.16-1.38-2-13.64,5.17-27.18
	c8.02-15.16,28.52-23.94,33.58-20.38c3.21,2.26-1.74,8.13-2.58,22.65c-0.76,13.14,2.13,28.58,7.75,29.44
	c3.48,0.53,3.84-5.16,12.91-9.06c5.76-2.48,11.32-2.45,22.45-2.4c0.23,0,0.5,0,0.8,0.14c3.42,1.51-3.12,13.85,0,15.85
	c3.23,2.07,12.64-9.56,30.99-15.85c10.8-3.7,22.02-4.64,23.25-2.26c1.01,1.97-5.53,4.79-10.33,13.59
	c-0.56,1.03-5.12,9.51-2.58,11.32c2.26,1.61,8.45-3.25,15.5-6.79c21.32-10.72,48.05-8.1,49.07-4.53c0.64,2.24-8.24,6.96-12.51,8.85
	c-3.5,1.55-5.68,2-5.57,2.47c0.24,1.08,12.42,1.68,25.22-1.17c5.36-1.2,9.4-2.68,10.94-1.09c1.56,1.6-0.3,5.47-1.14,7.22
	c-1.97,4.09-4.53,5.71-4.02,6.37c0.84,1.09,7.27-3.97,15.5-4.53c12.64-0.86,19.03,9.63,25.83,6.79c4.14-1.73,5.81-7.3,5.17-11.32
	c-1.37-8.62-13.68-12.22-12.91-13.59c0.99-1.77,23.57,0.82,30.99,13.59c4.82,8.28,0.33,15.81,5.17,18.2
	c4.16,2.05,8.86-2.84,23.25-6.87c9.53-2.67,19.87-4,20.66-2.26c0.99,2.17-13.82,7.32-12.91,11.32c0.49,2.19,5.76,4.35,25.83,4.53
	l1.29,454.1H-32.9L-34.19,649.36z"/>
</svg>
