<?xml version="1.0" encoding="utf-8"?>
<!-- Generator: Adobe Illustrator 25.0.0, SVG Export Plug-In . SVG Version: 6.00 Build 0)  -->
<svg version="1.1" id="Layer_1" xmlns="http://www.w3.org/2000/svg" xmlns:xlink="http://www.w3.org/1999/xlink" x="0px" y="0px"
	 viewBox="0 0 1920 1080" style="enable-background:new 0 0 1920 1080;" xml:space="preserve">
<style type="text/css">
	.st0{fill:#B2B2B2;}
</style>
<path class="st0" d="M1396.93,797.84c-9.27-5.28-18.55-10.56-28.29-16.07c-0.67-0.39-0.89-0.42-1.13-0.31
	c-8.99-4.87-18.05-9.63-26.96-14.63c-7.73-4.34-15.3-8.96-23.1-13.86c0.11-0.59,0.4-0.77,0.69-0.93
	c26.7,13.87,53.41,27.73,80.72,41.88c31.83,16.41,63.03,32.6,94.29,48.65c18.71,9.61,37.53,19.01,56.52,28.8
	c3.1,1.68,5.99,3.07,9.15,4.66c3.1,1.57,5.94,2.93,9,4.58c1.11,0.66,2,1.03,3.15,1.6c2.3,1.15,4.34,2.1,6.58,3.34
	c22.2,11.4,44.15,22.58,66.19,33.61c25.66,12.85,51.39,25.56,77.3,38.61c2.75,1.42,5.29,2.57,8.04,3.99
	c1.49,0.79,2.77,1.32,4.26,2.12c37.34,18.56,74.47,36.85,111.9,55.35c34.88,17.09,69.46,33.97,104.06,50.82
	c1.02,0.5,2.19,0.69,3.3,1.03c0,8.07,0,16.14,0,24.38c-13.01,0-26.02,0-39.51-0.36c-26.04-15.5-51.57-30.7-77.16-45.77
	c-16.66-9.81-33.42-19.44-50.35-29.43c-2.4-1.46-4.6-2.64-7.01-4.11c-1.5-0.97-2.78-1.64-4.31-2.54c-5.6-3.36-10.93-6.52-16.29-9.64
	c-29.09-16.89-58.18-33.78-87.3-50.61c-1.54-0.89-3.38-1.27-5.17-2.25c-2.27-1.47-4.54-2.44-6.63-3.7
	c-8.26-4.99-16.36-10.23-24.69-15.08c-17.93-10.42-35.93-20.7-53.96-30.94c-22.45-12.74-44.95-25.38-67.65-38.31
	c-0.59-0.22-0.97-0.2-1.41-0.2c-0.07-0.02-0.11-0.15-0.2-0.49c-20.71-12.01-41.29-23.75-61.95-35.34
	C1431.67,816.97,1414.28,807.44,1396.93,797.84z"/>
<path class="st0" d="M604.48,359.75c-23.48-12.36-46.96-24.72-71.01-37.4c-1.59-0.77-2.61-1.22-3.63-1.67
	c-1.52-0.89-3.03-1.78-5.13-3c-2.09-1.06-3.6-1.79-5.11-2.52c-1.69-0.95-3.39-1.9-5.67-3.13c-1.11-0.5-1.62-0.73-2.14-0.95
	c-0.13-0.22-0.33-0.36-1.01-0.71c-3.64-1.91-6.86-3.54-10.09-5.17c-1.19-0.69-2.39-1.39-4.19-2.36
	c-24.91-13.04-49.18-25.86-73.52-38.54c-18.52-9.64-37.15-19.11-55.94-28.94c-1.09-0.66-1.97-1.04-3.12-1.63
	c-7.37-3.82-14.47-7.44-21.8-11.26c-1.57-0.82-2.92-1.43-4.49-2.31c-1.1-0.66-1.98-1.06-3.12-1.66
	c-27.13-14.03-53.98-27.88-80.88-41.66c-13.77-7.05-27.61-13.98-41.66-21.16c-0.87-0.17-1.49-0.13-2.43-0.27
	c-1.55-0.75-2.79-1.33-4.29-2.12c-1.07-0.55-1.89-0.88-2.75-1.15c-0.04,0.07,0.11-0.01,0.14-0.38c-1.57-1.38-3.1-2.51-4.79-3.36
	c-22.49-11.42-44.93-22.93-67.54-34.14c-16-7.94-32.24-15.45-48.64-23.46c-2.42-1.67-4.46-3.25-6.75-4.39
	C39.07,68.52,3.19,50.67-32.7,32.83c-1.86-0.92-3.9-1.54-5.85-2.3c0-10.08,0-20.15,0-30.47c9.06,0,18.12,0,27.92,0.27
	c25.9,15.28,51.07,30.29,76.49,45.55c0.7,0.45,1.15,0.64,1.8,1.08c4.84,3.02,9.4,5.92,14.13,8.55c3.12,1.74,6.48,3.09,9.76,4.57
	c0.02-0.05-0.08,0-0.04,0.36c0.79,0.74,1.53,1.11,2.51,1.54c0.23,0.06,0.71,0.09,0.76,0.47c1.14,0.82,2.22,1.26,3.38,2.05
	c0.59,0.8,1.03,1.36,1.61,1.7c21.5,12.7,43.02,25.37,64.94,38.35c0.72,0.45,1.03,0.61,1.53,0.96c6.35,3.56,12.5,6.92,18.91,10.33
	c0.26,0.05,0.77,0.15,0.78,0.51c0.75,0.71,1.48,1.06,2.52,1.5c0.52,0.41,0.74,0.73,0.91,1.32c0.28,0.38,0.62,0.49,1.29,0.78
	c16.76,9.83,33.14,19.53,49.6,29.11c18.98,11.04,38.04,21.97,57.28,33.24c12.33,7.32,24.41,14.39,36.56,21.36
	c25.9,14.87,51.82,29.7,77.96,44.81c1.09,0.65,1.95,1.04,3.02,1.7c1.04,0.69,1.88,1.1,2.98,1.73c6.56,3.6,12.95,6.83,19.15,10.38
	c9.85,5.65,19.52,11.57,29.36,17.24c8.79,5.07,17.71,9.94,26.53,14.94c10.1,5.73,20.17,11.51,30.25,17.27c0,0,0.21,0.3,0.62,0.61
	c5.09,2.85,9.77,5.39,14.44,7.93c21.95,12.47,43.9,24.95,65.85,37.42c0.31,0.17,0.59,0.38,1.04,1.02
	C605.13,359.36,604.8,359.55,604.48,359.75z"/>
<path class="st0" d="M1404.08,750.98c1.47,0.7,2.95,1.4,5.05,2.34c15.66,6.48,30.65,12.79,45.71,18.94
	c20.42,8.34,40.88,16.55,61.6,25.1c1.24,0.6,2.21,0.92,3.47,1.43c8.15,3.31,16,6.44,24.14,9.83c24.38,9.88,48.46,19.51,72.82,29.41
	c1.25,0.59,2.23,0.9,3.48,1.4c1.91,0.77,3.54,1.36,5.48,2.16c1.69,0.72,3.08,1.23,4.71,1.91c1.37,0.54,2.49,0.91,3.87,1.55
	c1.23,0.6,2.19,0.92,3.45,1.42c2.79,1.12,5.28,2.06,8.06,3.18c14.65,5.92,28.97,11.75,43.39,17.36
	c15.91,6.18,31.89,12.16,48.01,18.58c4.52,1.83,8.88,3.31,13.31,5.06c0.38,0.35,0.69,0.42,1.34,0.64
	c7.05,2.95,13.69,5.91,20.46,8.54c21.66,8.43,43.37,16.74,65.32,25.37c38.45,14.94,76.63,29.62,114.82,44.29
	c0,13.9,0,27.8-0.37,42.22c-4.34-1.39-8.3-3.3-12.26-5.21c-23.47-11.31-46.94-22.61-70.68-34.17c-0.73-0.4-1.19-0.55-1.89-0.92
	c-4.12-2.05-8-3.88-12.16-5.91c-11.15-5.46-21.99-10.78-32.9-15.96c-21.81-10.36-43.66-20.65-65.66-31.22
	c-0.75-0.41-1.33-0.57-2.12-1.01c-2.44-1.26-4.66-2.25-7.15-3.44c-7.77-3.77-15.26-7.34-22.77-10.89
	c-22.26-10.5-44.49-21.05-66.79-31.46c-20.29-9.47-40.65-18.79-61.21-28.45c-2.79-1.36-5.34-2.44-8.11-3.75
	c-1.35-0.69-2.48-1.17-3.83-1.81c-0.87-0.41-1.53-0.66-2.46-1.12c-1.11-0.52-1.96-0.83-3.02-1.42
	c-14.4-6.62-28.63-12.84-42.73-19.34c-14.45-6.66-28.7-13.73-43.16-20.35c-23.81-10.9-47.72-21.58-71.59-32.36
	c-19.29-8.76-38.58-17.52-57.87-26.29c-1.06-0.48-2.09-1.04-3.31-1.97c0.15-0.61,0.47-0.8,0.79-1
	c13.33,5.47,26.65,10.93,40.56,16.62C1402.98,750.67,1403.53,750.83,1404.08,750.98z"/>
<path class="st0" d="M553.9,783.9c2.53-1.24,5.07-2.49,8.2-3.67c0.96,0.2,1.2,0.43,1.33,0.77c-5.36,3.02-10.72,6.04-16.68,9.34
	c-1.31,0.8-2.02,1.31-2.73,1.83c-0.97,0.43-1.95,0.86-3.52,1.64c-39.85,22.13-79.12,43.88-118.33,65.71
	c-6.9,3.84-13.55,8.07-20.69,12.01c-1.4,0.55-2.44,1.2-3.8,1.91c-1.39,0.74-2.46,1.43-3.9,2.16c-3.81,2.08-7.25,4.11-11.05,6.2
	c-0.74,0.37-1.11,0.68-1.85,1.04c-37.41,21.13-74.45,42.2-111.86,63.42c-36,20.61-71.64,41.09-107.25,61.6
	c-1.14,0.66-1.97,1.79-3.38,2.74c-4.16,2.14-7.89,4.25-11.89,6.33c-0.4,0.09-0.52,0.22-1.03,0.48c-6.52,3.69-12.68,7.22-18.8,10.8
	c-29.33,17.16-58.68,34.31-87.97,51.53c-9.57,5.63-18.98,11.5-28.46,17.27c-16.16,0-32.32,0-48.81,0c0-6.45,0-12.91,0.36-19.61
	c7.91-3.8,15.5-7.3,23.01-10.92c23.01-11.1,45.99-22.25,69.37-33.42c4.71-2.11,9.06-4.13,13.35-6.26
	c33.74-16.79,67.47-33.61,101.52-50.48c0.83-0.36,1.33-0.67,2.21-1.03c1.97-0.58,3.57-1.1,5.54-1.75
	c10.41-5.02,20.47-9.87,30.47-14.83c24.42-12.13,48.81-24.32,73.62-36.54c1.3-0.61,2.2-1.17,3.47-1.78
	c3.93-1.86,7.49-3.68,11.4-5.58c7.01-3.39,13.68-6.68,20.32-10.01c15.54-7.77,31.11-15.51,46.61-23.36
	c26.88-13.61,53.71-27.3,80.9-41.05c1.97-0.96,3.6-1.82,5.58-2.75c1.1-0.57,1.85-1.07,2.99-1.61c7.98-3.9,15.6-7.71,23.16-11.62
	c22.52-11.62,45.03-23.28,67.54-34.92c2.16-1.03,4.32-2.06,7.08-3.35C551.66,785.21,552.78,784.56,553.9,783.9z"/>
<path class="st0" d="M519.74,357.33c10.02,4.71,20.04,9.42,30.23,14.6c-0.19,0.67-0.55,0.88-0.91,1.09
	c-1.29-0.45-2.59-0.9-4.42-1.64c-1.19-0.44-1.83-0.6-2.48-0.76c-6.73-2.99-13.47-5.97-20.85-9.24
	c-19.01-8.11-37.34-15.99-55.74-23.74c-23.15-9.74-46.36-19.37-69.83-29.33c-25.2-10.69-50.12-21.11-75.06-31.47
	c-1.76-0.73-3.78-0.92-5.57-1.59c-5.02-1.89-10.05-3.78-14.97-5.89c-4.5-1.93-8.85-4.15-13.53-6.51c-3.34-1.44-6.42-2.61-9.78-4.04
	c-0.78-0.38-1.27-0.51-1.86-0.77c-0.4-0.34-0.72-0.4-1.36-0.59c-2.29-0.98-4.27-1.7-6.54-2.67c-28.92-11.99-57.51-23.82-86.22-35.41
	c-10-4.04-20.27-7.47-30.51-11.56c-10.21-4.67-20.26-9.1-30.45-13.22c-20.59-8.32-41.25-16.48-62.24-24.91
	c-11.1-4.52-21.83-8.87-32.6-13.15c-19.69-7.83-39.4-15.64-59.12-23.4c-1.4-0.55-2.98-0.69-4.48-1.03c0-13.56,0-27.13,0.39-41.17
	c9,3.78,17.59,8.08,26.23,12.3c21.09,10.32,42.19,20.61,63.5,31.15c1.86,1,3.51,1.76,5.43,2.72c2.2,1.1,4.13,1.99,6.33,3.09
	c5.22,2.64,10.14,5.11,15.09,7.51c33.89,16.42,67.79,32.83,101.96,49.45c23.98,11.63,47.65,23.11,71.39,34.44
	c22.45,10.71,44.98,21.27,67.79,32.17c37.23,17.65,74.13,35.08,111.1,52.38c23.51,11,47.13,21.78,70.71,32.67
	c1.12,0.58,2.24,1.17,3.99,2.09C510.58,353.27,515.16,355.3,519.74,357.33z"/>
<path class="st0" d="M1283.46,665.57c25.5,7.94,51,15.86,76.5,23.81c26.47,8.25,52.92,16.53,80.11,25
	c33.73,10.36,66.71,20.59,99.74,30.67c21.36,6.52,42.79,12.84,64.57,19.37c6.24,1.94,12.09,3.76,18.25,5.75
	c1.85,0.54,3.4,0.91,5.26,1.51c32.17,9.74,64.04,19.25,96.18,28.93c1.13,0.34,1.97,0.5,3.05,0.87c1.24,0.4,2.24,0.59,3.57,1.04
	c1.38,0.36,2.45,0.46,3.65,0.87c0.35,0.34,0.57,0.38,1.12,0.57c10.37,3.15,20.4,6.2,30.46,9.15c22.66,6.64,45.33,13.22,68.23,20
	c1.02,0.19,1.8,0.2,2.82,0.25c0.23,0.04,0.69,0.09,0.85,0.44c2.1,0.89,4.04,1.42,6.24,2.19c1.84,0.6,3.41,0.98,5.33,1.54
	c31.54,9.26,62.73,18.36,93.93,27.39c3.03,0.88,6.18,1.35,9.27,2.01c0,11.19,0,22.39-0.39,34.2c-7.74-2.02-15.09-4.67-22.44-7.3
	c-21.41-7.68-42.83-15.37-64.48-23.3c-1.81-0.71-3.37-1.16-5.14-1.84c-0.76-0.34-1.32-0.47-2.19-0.8c-2.15-0.79-4-1.38-6.1-2.19
	c-1.8-0.71-3.33-1.2-5.19-1.88c-26.16-9.44-52-18.68-78.18-28.13c-1.35-0.51-2.36-0.8-3.65-1.28c-2.19-0.78-4.1-1.38-6.33-2.18
	c-1.47-0.35-2.63-0.51-4.11-0.76c-0.78-0.12-1.24-0.15-1.81-0.61c-2.1-1.02-4.07-1.61-6.06-2.17c-0.01,0.03-0.06-0.01,0.11-0.34
	c-9.41-3.82-18.96-7.39-28.59-10.78c-22.62-7.96-45.26-15.83-68.2-23.96c-10.52-3.59-20.8-6.78-30.94-10.33
	c-21.74-7.62-43.42-15.43-65.38-23.43c-14.31-5.13-28.35-10.02-42.41-14.85c-25.41-8.73-50.84-17.41-76.27-26.11
	c-12.34-4.26-24.67-8.52-37.66-13.04c-1.49-0.48-2.33-0.71-3.17-0.93c-36.27-12.34-72.53-24.69-108.8-37.03
	c-0.8-0.27-1.59-0.58-2.58-1.27C1282.78,665.99,1283.12,665.78,1283.46,665.57z"/>
<path class="st0" d="M527.3,406.05c35.73,12.64,71.45,25.29,107.18,37.93c0.67,0.24,1.33,0.52,2.19,1.18c-0.15,0.6-0.5,0.8-0.86,1
	c-28.58-9.33-57.16-18.66-85.74-27.99c-4.59-1.5-9.17-3.04-14.45-4.74c-1.66-0.42-2.63-0.67-3.6-0.92
	c-10.21-3.42-20.43-6.84-31.35-10.5c-14.31-4.68-27.89-9.17-41.51-13.54c-30.98-9.94-61.98-19.83-93.23-29.9
	c-3.74-1.21-7.22-2.26-10.99-3.55c-0.8-0.31-1.31-0.37-2.05-0.61c-1.19-0.41-2.15-0.64-3.41-1.1c-2.99-1.03-5.68-1.84-8.73-2.83
	c-3.93-1.36-7.49-2.57-11.08-3.7c-46.45-14.63-92.9-29.26-139.59-44.04c-1.6-0.6-2.95-1.06-4.31-1.49
	c-42.85-13.29-85.71-26.57-128.89-40.03c-12.17-3.84-23.99-7.55-35.84-11.18c-18.17-5.57-36.36-11.1-54.56-16.59
	c-1.6-0.48-3.35-0.54-5.03-0.8c0-10.86,0-21.71,0.39-32.97c22.3,7.76,44.22,15.92,66.44,24.35c28.27,10.71,56.22,21.19,84.2,31.57
	c4.53,1.68,9.23,2.94,14.22,4.52c2.06,1.02,3.67,2.11,5.46,2.78c9.85,3.72,19.73,7.38,29.63,10.99
	c32.36,11.83,64.74,23.64,97.45,35.68c21.65,7.99,42.93,15.83,64.28,23.54c18.13,6.54,36.31,12.93,54.78,19.65
	c21.22,7.79,42.11,15.39,63.05,22.83c20.64,7.34,41.35,14.54,62.03,21.79c7.11,2.63,14.22,5.26,21.99,8.1
	C526.45,405.82,526.88,405.93,527.3,406.05z"/>
<path class="st0" d="M1380.37,284.56c-12.84,8.39-25.62,16.87-38.55,25.13c-13.02,8.32-26.2,16.39-39.28,24.61
	c-4.16,2.61-8.26,5.33-12.95,7.98c-0.8-0.26-1.04-0.5-1.28-0.74c15.54-10.62,31.04-21.3,46.63-31.85
	c15.19-10.28,30.13-20.93,45.95-31.51c3.73-2.63,6.88-4.87,10.03-7.11c1.92-1.25,3.84-2.5,6.32-4.12c2.03-1.49,3.51-2.61,4.99-3.72
	c0.61-0.33,1.21-0.65,2.33-1.3c2.67-1.89,4.83-3.46,6.99-5.03c2.07-1.34,4.14-2.68,6.75-4.42c39.03-27.1,77.53-53.79,116.01-80.52
	c1.78-1.23,3.27-2.87,5.04-4.11c4.06-2.84,8.22-5.55,12.68-8.38c1.97-1.32,3.59-2.58,5.53-3.9c1.79-1.17,3.28-2.27,5.11-3.51
	c18.39-12.82,36.52-25.4,54.47-38.23c19.3-13.79,38.42-27.82,57.98-41.79c5.52-3.51,10.74-6.89,15.81-10.47
	c13.15-9.29,26.29-18.62,39.35-28.04c15.37-11.09,30.66-22.29,45.98-33.44c19.16,0,38.32,0,58.17,0.33c0.29,0.64-0.08,1-0.51,1.27
	c-17.11,10.62-34.2,21.26-51.34,31.83c-5.51,3.4-11.14,6.6-17.06,10c-22.49,13.68-44.67,27.2-66.77,40.85
	c-21.07,13.02-42.06,26.17-63.43,39.37c-16.78,10.32-33.26,20.47-49.65,30.77c-26.44,16.61-52.82,33.3-79.59,50.07
	c-20.15,12.62-39.97,25.08-59.71,37.66C1424.31,256.26,1402.36,270.44,1380.37,284.56z"/>
<path class="st0" d="M1405.16,652.87c1.41,0.25,2.81,0.49,4.95,0.85c1.18,0.14,1.62,0.16,2.07,0.19c1.16,0.29,2.32,0.58,4.15,1.03
	c1.39,0.25,2.11,0.34,2.83,0.43c10.8,2.12,21.6,4.24,33.15,6.48c18.95,3.59,37.15,7.15,55.37,10.54c24.74,4.6,49.5,9.08,74.51,13.74
	c1.23,0.27,2.2,0.41,3.46,0.7c1.56,0.27,2.83,0.38,4.26,0.69c0.63,0.22,1.1,0.26,1.84,0.42c0.84,0.14,1.42,0.15,2.38,0.34
	c30.85,5.62,61.32,11.06,92.12,16.72c3.56,0.66,6.79,1.11,10.32,1.77c6.94,1.32,13.57,2.44,20.6,3.69
	c23.36,4.17,46.31,8.25,69.28,12.19c16.74,2.87,33.52,5.55,50.55,8.5c0.7,0.22,1.13,0.25,1.83,0.41c0.84,0.14,1.42,0.15,2.39,0.31
	c24.09,4.14,47.78,8.2,71.5,12.1c13.27,2.18,26.58,4.1,39.87,6.14c0,11.19,0,22.39-0.4,34.24c-1.72,0.36-3.05,0.08-4.37-0.24
	c-29.8-7.45-59.6-14.9-89.73-22.52c-3.9-0.94-7.48-1.71-11.24-2.7c-0.76-0.3-1.34-0.37-2.29-0.61c-2.18-0.63-3.97-1.13-5.78-1.57
	c-23.53-5.71-47.05-11.4-70.8-17.31c-2.18-0.59-4.13-0.97-6.38-1.51c-0.73-0.2-1.17-0.24-1.84-0.49
	c-18.24-4.56-36.24-8.98-54.27-13.25c-20.83-4.94-41.69-9.75-62.84-14.77c-0.54-0.15-0.77-0.14-1.14-0.34
	c-4.39-1.1-8.63-2-13.34-3.16c-2.6-0.5-4.73-0.73-6.88-0.97c-0.03,0-0.19-0.19-0.39-0.48c-30.22-7.32-60.22-14.44-90.27-21.36
	c-26.07-6.01-52.2-11.79-78.3-17.67c-15.48-3.56-30.96-7.11-46.8-11.19C1405.15,653.41,1405.15,653.14,1405.16,652.87z"/>
<path class="st0" d="M-38.55,997.46c0-13.9,0-27.8,0.37-41.95c17.42-6.16,34.55-11.89,51.51-18.03
	c23.66-8.56,47.19-17.42,71.04-26.21c0.25-0.05,0.75-0.19,1.01-0.03c0.86,0.03,1.44-0.11,2.34-0.22c0.47-0.09,0.64-0.19,1.15-0.35
	c1.89-0.65,3.44-1.26,5.45-1.94c3.99-1.34,7.54-2.58,11.06-3.86c39.11-14.27,78.22-28.55,117.75-42.91c2.72-0.99,5.03-1.9,7.65-2.81
	c0.83-0.29,1.35-0.59,2.19-0.88c1.31-0.4,2.29-0.82,3.68-1.29c3.37-1.58,6.33-3.11,9.73-4.67c6.4-1.91,12.47-3.55,18.32-5.7
	c20.77-7.64,41.51-15.36,62.18-23.22c24.16-9.18,48.24-18.53,72.72-27.84c3.17-1.16,5.96-2.29,9.12-3.42
	c1.61-0.6,2.87-1.21,4.43-1.81c0.73-0.05,1.14-0.11,1.77-0.03c0.55,0.26,0.8,0.47,0.75,0.89c-0.82,0.48-1.41,0.84-2.4,1.22
	c-0.82,0.32-1.24,0.61-2.05,0.92c-19.76,8.5-39.16,16.9-58.48,25.49c-21.73,9.66-43.37,19.48-65.29,29.23
	c-0.24-0.01-0.58,0.29-0.87,0.29c-0.94,0.36-1.6,0.73-2.64,1.16c-1.98,0.89-3.57,1.72-5.52,2.59c-4.66,2.05-8.96,4.05-13.65,6.1
	c-20.31,9.04-40.27,17.96-60.14,27.04c-20.82,9.52-41.56,19.21-62.63,28.83c-1.14,0.45-1.99,0.9-3.21,1.4
	c-0.79,0.33-1.2,0.61-1.99,0.92c-12.61,5.71-24.87,11.34-37.08,17.06c-22.67,10.63-45.32,21.32-68.35,32.09
	c-2.89,1.35-5.4,2.6-8.27,3.9c-2.55,1.19-4.75,2.32-7.3,3.5c-16.66,7.78-32.95,15.53-49.29,23.2
	C-35.03,996.85-36.85,997.03-38.55,997.46z"/>
<path class="st0" d="M1865.37,657.35c28.81,2.35,57.63,4.71,86.82,6.75c0.38,10.54,0.38,21.39-0.04,32.7
	c-7.48-0.71-14.54-1.91-21.6-3.03c-26.23-4.18-52.47-8.34-79.05-12.62c-7.97-1.37-15.59-2.68-23.22-3.85
	c-35.06-5.39-70.13-10.73-105.59-16.25c-2.03-0.1-3.66-0.05-5.31,0.04c0,0.03-0.15-0.03-0.53-0.5c-2.29-0.48-4.21-0.49-6.16-0.46
	c-0.03,0.04-0.2-0.05-0.38-0.41c-1.73-0.59-3.27-0.81-5.2-1.21c-4.23-0.69-8.07-1.22-12.28-1.87c-1.12-0.15-1.87-0.18-2.82-0.43
	c-0.78-0.25-1.36-0.27-2.37-0.42c-22.93-3.42-45.45-6.72-68.25-10.13c-0.88-0.11-1.47-0.11-2.47-0.26
	c-8.27-1.28-16.14-2.4-24.34-3.66c-16.38-2.45-32.42-4.83-48.49-7.06c-29.5-4.11-59.01-8.13-88.51-12.19
	c-1.54-0.23-3.08-0.47-5.21-0.82c-0.76-0.08-0.94-0.05-1.12-0.02c-9.37-1.28-18.73-2.57-28.54-3.51c-0.43,0.34-0.46,0.15-0.46,0.15
	c-6.13-1.08-12.27-2.16-18.78-3.57c-0.26-0.65-0.26-0.98-0.39-1.3c2.77,0.24,5.53,0.49,9.07,0.84c1.54,0.16,2.31,0.22,3.08,0.28
	c2.47,0.29,4.95,0.58,7.97,0.94c1.09,0.1,1.62,0.12,2.15,0.14c2.36,0.27,4.73,0.54,7.65,0.81c1.23,0.08,1.9,0.18,2.58,0.27
	c4.92,0.53,9.84,1.07,15.52,1.7c1.53,0.15,2.3,0.19,3.06,0.24c1.77,0.2,3.54,0.41,6.12,0.62c1.8,0.22,2.78,0.53,3.79,0.64
	c23.21,2.39,46.41,4.83,69.63,7.11c19.65,1.92,39.32,3.65,59.32,5.65c26.33,2.68,52.32,5.24,78.32,7.64
	c16.82,1.55,33.66,2.86,50.8,4.44c0.78,0.14,1.25,0.12,2.06,0.27c2.17,0.25,4,0.32,6.23,0.51c3.21,0.34,6.02,0.55,9.16,0.88
	c0.79,0.08,1.25,0.05,2.14,0.14c22.31,2.07,44.18,4.1,66.07,5.96c17.47,1.48,34.95,2.77,52.43,4.15c1.76,0.25,3.52,0.51,5.95,0.8
	C1864.88,657.47,1865.37,657.35,1865.37,657.35z"/>
<path class="st0" d="M594.88,646.85c-25.09,5.85-50.19,11.71-76,17.71c-1.76,0.47-2.79,0.78-3.83,1.09c-2.78,0.6-5.56,1.19-9.2,1.98
	c-2.23,0.62-3.6,1.04-4.97,1.47c-1.39,0.22-2.77,0.43-4.84,0.87c-34.11,8.18-67.54,16.15-101.36,24.1c-1.9,0.46-3.4,0.92-5.27,1.38
	c-1.53,0.34-2.69,0.68-4.26,1.02c-2.58,0.55-4.77,1.11-7.41,1.67c-2.75,0.64-5.05,1.28-7.75,1.89c-28.71,6.98-57.01,14-85.32,20.98
	c-22.04,5.43-44.1,10.8-66.54,16.19c-2.33,0.5-4.27,1.01-6.76,1.55c-1.21,0.29-1.88,0.55-2.91,0.78
	c-16.71,4.03-33.1,7.96-49.4,12.18c-23.24,6.02-46.41,12.26-70.02,18.3c-1.77,0.17-3.13,0.46-4.89,0.75c-2.84,0.68-5.29,1.35-8.1,2
	c-1.96,0.44-3.55,0.9-5.55,1.34c-1.97,0.43-3.53,0.87-5.53,1.35c-20.39,5.12-40.34,10.26-60.31,15.29
	c-14.39,3.63-28.81,7.12-43.22,10.68c0-9.84,0-19.68,0.44-29.97c41.15-8.09,81.88-15.68,122.58-23.39
	c16.26-3.08,32.47-6.42,48.79-9.59c25.86-4.9,51.65-9.77,77.4-14.82c22.93-4.49,45.82-9.16,69.11-13.73
	c4.44-0.86,8.49-1.74,12.99-2.61c2.67-0.49,4.9-0.98,7.54-1.45c2.71-0.52,5.01-1.08,7.74-1.62c2.03-0.73,3.64-1.48,5.6-2.18
	c1.08-0.08,1.8-0.21,2.87-0.24c0.89-0.14,1.43-0.38,2.44-0.68c3.5-0.33,6.6-0.29,9.56-0.88c34.22-6.85,68.44-13.75,102.63-20.75
	c19.19-3.93,38.33-8.1,57.49-12.16c18.99-3.84,37.99-7.64,56.97-11.55c16.14-3.33,32.26-6.79,48.78-9.93
	C594.82,646.38,594.85,646.61,594.88,646.85z"/>
<path class="st0" d="M1952.58,555.64c-24.07,0.1-48.14-0.27-72.2-0.67c-8.37-0.14-16.73-0.36-25.78-0.56
	c-5.63-0.1-10.57-0.2-15.51-0.26c-27.1-0.33-54.2-0.65-81.72-1.06c-1.85-0.04-3.27,0-5.17-0.05c-6.79-0.07-13.11-0.04-19.98-0.16
	c-3.18-0.11-5.8-0.07-8.63-0.17c-0.69-0.07-1.18,0.01-2.06-0.06c-21.55-0.33-42.69-0.57-63.84-0.68
	c-22.68-0.12-45.36-0.13-68.5-0.34c-35.88-0.22-71.3-0.35-106.72-0.34c-13.77,0-27.55,0.3-41.32,0.46
	c-0.49-0.09-0.98-0.18-2.27-0.28c-11.45,0.18-22.08,0.37-32.72,0.55c-0.74-0.09-1.49-0.18-2.52-0.56c-0.31-0.6-0.38-0.9-0.5-1.19
	c22.22-0.77,44.44-1.53,67.58-2.31c6.73-0.34,12.54-0.66,18.35-0.98c4.17-0.04,8.35-0.08,13.41-0.13
	c35.49-1.41,70.1-2.71,104.7-4.21c28.42-1.24,56.84-2.71,85.71-4c4.86-0.23,9.26-0.54,14.01-0.78c2.16-0.05,3.98-0.17,6.23-0.21
	c14.06-0.6,27.7-1.21,41.33-1.95c25.38-1.37,50.76-2.81,76.57-4.15c8.44-0.38,16.45-0.82,24.46-1.28
	c32.37-1.87,64.74-3.74,97.11-5.61C1952.58,534.81,1952.58,544.99,1952.58,555.64z"/>
<path class="st0" d="M494.06,449.92c8.03,2.03,16.07,4.07,24.48,6.49c0.39,0.58,0.39,0.77,0.4,0.96
	c-20.67-4.32-41.35-8.64-62.02-12.95c-5.44-1.14-10.87-2.28-16.98-3.54c-26.57-5.52-52.45-10.95-78.36-16.3
	c-10.58-2.18-21.21-4.13-31.8-6.26c-7.4-1.48-14.77-3.09-22.5-4.78c-4.5-0.91-8.64-1.67-13.05-2.64c-4.09-0.91-7.91-1.61-12.01-2.45
	c-7.68-1.63-15.08-3.16-22.49-4.62c-30-5.9-60-11.78-90.4-17.82c-11.3-2.31-22.19-4.53-33.11-6.61c-25.7-4.9-51.42-9.74-77.53-14.77
	c-5.08-1.02-9.77-1.87-14.67-2.83c-0.21-0.11-0.68-0.03-1.05-0.17c-27.42-5.17-54.47-10.2-81.51-15.23c0-10.52,0-21.03,0.41-31.95
	c24.06,5.9,47.71,12.21,71.55,18.62c0.19,0.11,0.62,0.01,0.98,0.15c3.37,0.77,6.38,1.41,9.59,2.4
	c23.79,6.58,47.38,12.87,71.01,19.03c18.58,4.84,37.21,9.53,56.15,14.54c27.73,7.27,55.1,14.35,82.51,21.29
	c22.94,5.81,45.93,11.45,69.25,17.41c4.73,1.26,9.11,2.28,13.57,3.39c3.04,0.76,6.02,1.42,9.37,2.28
	c27.38,6.89,54.37,13.65,81.4,20.26C449.47,439.29,471.78,444.57,494.06,449.92z"/>
<path class="st0" d="M-38.55,687.14c25.6-3,51.2-5.47,76.8-8.07c20.4-2.07,40.79-4.31,62.06-6.55c5.36-0.82,9.84-1.57,14.33-2.36
	c0.01-0.04,0.17-0.07,0.58,0.27c40.65-4,80.89-8.31,121.13-12.72c8.89-0.97,17.74-2.32,27.18-3.37
	c38.15-4.2,75.73-8.44,113.28-12.86c19.27-2.27,38.49-4.84,57.73-7.27c3.17-0.31,6.35-0.62,9.84-1.35c0.32-0.43,0.42-0.35,0.42-0.35
	c1.75,0.06,3.5,0.12,5.88,0.12c1.14-0.25,1.65-0.44,2.16-0.63c2.08-0.17,4.17-0.35,6.62-1.06c0.37-0.53,0.52-0.46,0.52-0.46
	c4.01-0.19,8.05-0.15,12.02-0.61c15.72-1.85,31.43-3.86,47.54-5.57c0.44,0.59,0.48,0.93,0.52,1.27c-11.71,1.78-23.42,3.55-36,5.45
	c-37.32,5.76-73.79,11.3-110.22,17.09c-22.45,3.57-44.82,7.56-67.24,11.26c-9.07,1.49-18.2,2.68-27.75,3.97
	c-11.11,1.67-21.79,3.33-32.45,5.11c-45.05,7.52-90.09,15.08-135.63,22.61c-31.34,5.3-62.21,10.56-93.05,15.94
	c-18.77,3.28-37.51,6.76-56.26,10.14C-38.55,707.3-38.55,697.46-38.55,687.14z"/>
<path class="st0" d="M51.48,0.06c21.72,0,43.43,0,65.77,0.33c19.78,13.81,38.87,27.37,58.11,40.75
	c28.49,19.81,57.08,39.49,85.85,59.38c1.76,1.18,3.3,2.2,5.02,3.51c1.89,1.44,3.61,2.59,5.51,4.08c2.57,1.47,4.98,2.6,7.43,4.09
	c0.74,0.92,1.42,1.48,2.31,2.32c11.82,8.22,23.4,16.23,35.07,24.11c21.9,14.79,43.85,29.51,65.98,44.55
	c1.05,0.77,1.9,1.24,2.93,1.98c6.49,4.44,12.81,8.62,19.37,13.03c23.16,15.6,46.09,30.96,69.01,46.33c-0.43,0.57-0.87,1.15-1.3,1.72
	c-6.92-4.36-13.81-8.76-20.77-13.07c-5.34-3.3-10.76-6.48-16.34-10.01c-4.45-2.73-8.71-5.17-13.13-7.8
	c-0.41-0.43-0.71-0.58-1.34-0.86c-3.25-1.91-6.22-3.58-9.4-5.55c-1.1-0.73-1.99-1.17-3.1-1.84c-20-11.87-39.79-23.5-59.79-35.34
	c-1.15-0.71-2.07-1.2-3.25-1.92c-9.12-5.32-17.98-10.42-27.05-15.81c-31.92-18.65-63.6-37.06-95.38-55.33
	c-5.45-3.13-11.31-5.63-17.01-8.82c-1.21-0.85-2.41-1.3-3.67-1.98c-0.35-0.43-0.66-0.54-1.12-0.91c-5.1-3.4-10-6.56-15.09-9.44
	c-30.66-17.31-61.36-34.55-92.29-52.04C80.39,17.93,67.2,10.6,54.09,3.15C52.97,2.51,52.34,1.11,51.48,0.06z"/>
<path class="st0" d="M1784.92,1097c-21.2-14.55-41.82-29.23-62.65-43.62c-34.26-23.68-68.66-47.17-103.57-71.08
	c-4.24-2.63-7.91-4.9-11.55-7.48c-0.34-0.39-0.71-0.47-1.46-0.65c-6.96-4.84-13.42-9.78-20.17-14.29
	c-33.34-22.31-66.75-44.52-100.37-66.99c-7.64-5.08-15.05-9.93-22.64-15c-0.71-0.48-1.24-0.74-2.09-1.13
	c-5.9-3.99-11.46-7.85-16.82-11.9c0.35-0.33,0.49-0.47,0.98-0.55c6.89,3.81,13.43,7.55,20.16,11.57c0.99,0.68,1.79,1.08,2.84,1.69
	c6.64,3.9,13.03,7.59,19.61,11.56c1,0.68,1.82,1.08,2.84,1.66c0.85,0.49,1.49,0.79,2.31,1.35c1.11,0.72,2.05,1.17,3.23,1.88
	c0.67,0.44,1.1,0.62,1.73,1.04c18.82,11.14,37.37,22.12,56.06,32.9c29.42,16.98,58.93,33.81,88.64,50.96
	c1.49,0.63,2.75,1.01,4.1,1.72c1.01,0.93,1.92,1.53,3.09,2.38c1.83,0.98,3.48,1.59,4.97,2.46c8.88,5.16,17.64,10.53,26.59,15.56
	c23.41,13.16,46.9,26.19,70.56,39.56c1.27,0.68,2.34,1.05,3.73,1.55c2.46,1.46,4.6,2.79,6.94,4.41
	c28.47,15.91,56.74,31.52,84.97,47.21c1.25,0.7,2.08,2.14,3.11,3.23C1828.5,1097,1806.95,1097,1784.92,1097z"/>
<path class="st0" d="M461.46,484.97c13.69,2.31,27.38,4.61,41.07,6.92c-0.05,0.44-0.11,0.88-0.16,1.32
	c-7.21-0.88-14.42-1.75-22.46-2.72c-22.6-2.9-44.36-5.8-66.14-8.5c-24.63-3.06-49.29-5.94-74.24-9.1
	c-31.27-3.93-62.24-7.72-93.22-11.36c-10.69-1.25-21.43-2.1-32.19-3.11c-0.04,0.03-0.03,0.05-0.38-0.27
	c-5.5-0.87-10.66-1.43-16.26-2.12c-9.92-1.26-19.38-2.45-28.86-3.48c-17.71-1.93-35.42-3.78-53.48-5.85
	c-1.92-0.32-3.5-0.44-5.46-0.68c-7.77-0.85-15.16-1.59-22.79-2.51c-1.02-0.21-1.81-0.24-2.97-0.39c-1.66-0.16-2.95-0.2-4.65-0.41
	c-1.59-0.26-2.77-0.36-4.19-0.56c-0.24-0.1-0.75,0.01-1.15-0.11c-16.31-1.85-32.22-3.56-48.13-5.29c-21.45-2.34-42.9-4.7-64.35-7.04
	c0-9.5,0-19,0.44-29.13c5.92,0.34,11.39,1.31,16.87,2.27c22.43,3.96,44.86,7.91,67.64,12.09c1.94,0.49,3.54,0.76,5.13,1.03
	c34.99,6.12,69.97,12.25,105.28,18.51c23.32,4.1,46.31,8.11,69.32,11.98c17.7,2.98,35.43,5.79,53.51,8.86
	c2.29,0.43,4.22,0.66,6.44,1.09c2.6,0.53,4.92,0.87,7.62,1.38c5.9,1.07,11.4,1.98,16.91,2.87c41.92,6.79,83.84,13.57,125.77,20.36
	c6.95,1.16,13.9,2.32,21.62,3.57C459.67,484.78,460.57,484.87,461.46,484.97z"/>
<path class="st0" d="M72.1,842.23c-8.43,2.6-16.94,4.97-25.26,7.84c-28.23,9.74-56.39,19.65-84.98,29.53
	c-0.4-11.83-0.4-23.7,0.02-35.97c22.77-5.83,45.12-11.19,67.44-16.71c18.99-4.7,37.92-9.57,57.3-14.35
	c4.84-1.36,9.26-2.74,14.09-3.96c1.8-0.52,3.19-1.21,5.02-1.9c6.13-1.07,11.91-1.83,17.51-3.26c33.14-8.45,66.23-17.06,99.81-25.63
	c2.2-0.49,3.93-0.97,5.66-1.44c21.74-5.86,43.46-11.76,65.21-17.57c26.97-7.21,53.97-14.34,81.37-21.49
	c1.96-0.48,3.5-0.98,5.48-1.52c7.22-1.92,14-3.81,21.26-5.71c4.27-1.17,8.06-2.32,11.86-3.48c0.16,0.42,0.31,0.84,0.47,1.26
	c-6.33,2.18-12.66,4.36-19.35,6.52c-1.2,0.34-2.05,0.7-3.31,1.05c-7.13,2.22-13.86,4.45-20.92,6.7
	c-23.87,7.61-47.45,15.08-70.93,22.81c-31.13,10.24-62.18,20.68-93.68,31.08c-43.44,14.6-86.47,29.15-129.47,43.76
	C75.05,840.35,73.62,841.41,72.1,842.23z"/>
<path class="st0" d="M88.27,612.96c-30.12,2.38-60.24,4.74-90.35,7.13c-11.84,0.94-23.67,1.91-35.98,2.73
	c-0.48-9.31-0.48-18.47,0.01-28.17c3.78-0.62,7.07-0.71,10.84-0.71c3.78-0.01,7.07-0.11,10.77-0.1c1.22,0.01,2.03-0.09,3.34-0.06
	c14.99-0.12,29.49-0.37,44.49-0.53c29.09-0.34,57.69-0.77,86.71-1.11c1.59,0.01,2.75-0.06,4.36-0.05c2.32,0.01,4.19-0.08,6.55-0.08
	c6.01-0.09,11.52-0.26,17.47-0.3c2.25-0.02,4.07-0.16,6.3-0.19c8.18-0.01,15.94-0.1,23.7-0.27c35.36-0.77,70.71-1.56,106.42-2.26
	c0.84,0.02,1.31-0.04,2.27-0.02c8.84-0.22,17.2-0.53,26.07-0.74c45.23-1.09,89.97-2.22,134.7-3.48c13.88-0.39,27.74-1.12,41.61-1.69
	c0.8,0.05,1.6,0.11,2.78,0.48c0.4,0.68,0.42,1.04,0.44,1.41c-13.73,0.85-27.47,1.71-41.71,2.9c-1.03,0.32-1.55,0.3-2.08,0.28
	c-3.97,0.07-7.94,0.14-12.83,0.27c-25.57,1.65-50.22,3.18-74.86,4.85c-31.06,2.1-62.11,4.31-93.63,6.4
	c-2.64,0.19-4.81,0.46-7.39,0.65c-1.22,0.03-2.03,0.13-3.29,0.16c-43.5,3.1-86.54,6.23-129.58,9.46
	c-5.24,0.39-10.42,1.35-15.66,2.07c-0.03,0.03-0.23-0.18-0.59-0.42c-3.21,0.01-6.06,0.25-9.36,0.41c-2.3,0.16-4.15,0.4-6.38,0.57
	C91.42,612.64,89.84,612.8,88.27,612.96z"/>
<path class="st0" d="M634.21,789.32c-6.11,4.67-12.22,9.34-18.88,14.41c-2.26,1.68-3.96,2.98-5.67,4.27
	c-4.34,3.11-8.68,6.21-13.55,9.65c-2.13,1.61-3.73,2.89-5.32,4.17c-3.41,2.39-6.82,4.78-10.76,7.57
	c-21.54,15.76-42.6,31.05-63.56,46.48c-17.66,12.99-35.21,26.13-53.01,39.21c-0.48,0.08-0.65,0.27-1.02,0.7
	c-1.18,0.88-2.04,1.61-3.21,2.41c-1.76,1.21-3.22,2.35-5,3.64c-1.19,0.89-2.06,1.63-3.26,2.45c-7.11,5.1-13.92,10.1-20.68,15.16
	c-31.91,23.85-63.81,47.72-96.05,71.74c-25.2,18.88-50.09,37.56-74.91,56.34c-12.86,9.73-25.58,19.65-38.37,29.48
	c-14.72,0-29.43,0-44.92-0.29c6.73-5.17,14.3-9.96,21.72-14.97c6.83-4.6,13.5-9.43,20.57-14.17c1.1-0.65,1.87-1.28,2.99-1.98
	c1.42-0.8,2.48-1.54,3.9-2.21c10.18-6.35,20.04-12.71,29.81-19.22c21.23-14.14,42.41-28.34,63.94-42.59
	c9.51-6.18,18.7-12.25,27.84-18.41c24.03-16.19,48.03-32.41,72.36-48.67c1.14-0.71,1.96-1.37,3.12-2.1
	c5.51-3.71,10.69-7.34,16.21-11.03c31.58-21.25,62.84-42.41,94.03-63.66c13.89-9.47,27.65-19.12,41.47-28.69
	c11.45-7.77,22.89-15.55,34.91-23.7c1.06-1.16,1.54-1.93,2.02-2.71c7.35-4.61,14.7-9.21,22.5-13.75
	C633.9,788.92,634.21,789.32,634.21,789.32z"/>
<path class="st0" d="M-38.55,498.22c12.52,0.52,25.04,1.44,37.55,2.54c21.5,1.89,42.99,3.9,65.32,5.92c2.07,0.08,3.29,0.1,4.98,0.25
	c3.26,0.33,6.06,0.54,9.34,0.86c14.28,1.33,28.07,2.62,41.88,3.75c20.67,1.69,41.35,3.27,62.33,5.05c1.94,0.2,3.56,0.25,5.58,0.41
	c2.28,0.2,4.18,0.28,6.48,0.54c3.44,0.31,6.48,0.43,9.89,0.7c1.15,0.15,1.94,0.16,3.12,0.34c22.34,1.88,44.28,3.64,66.22,5.26
	c19.78,1.46,39.58,2.75,59.77,4.22c2.09-0.14,3.8-0.39,5.53-0.61c0.04,0.02,0.05,0.11,0.29,0.54c1.44,0.7,2.63,1.12,3.84,1.2
	c12.18,0.77,24.35,1.49,36.51,2.47c-0.15,0.57-0.15,0.9-0.47,1.27c-17.65-0.37-34.85-0.8-52.33-1.34c-1.3-0.07-2.33-0.02-3.8-0.08
	c-7.08-0.15-13.71-0.2-20.84-0.36c-28.09-0.7-55.68-1.4-83.27-1.84c-29.93-0.48-59.86-0.71-90.29-1.15
	c-13.5-0.17-26.49-0.25-39.91-0.47c-11.76-0.17-23.09-0.19-34.86-0.3c-1.59-0.05-2.76,0-4.35-0.04c-1.59-0.03-2.75,0.03-4.4-0.01
	c-9.06-0.07-17.63-0.05-26.65-0.11c-19.46-0.08-38.46-0.07-57.46-0.06C-38.55,517.7-38.55,508.2-38.55,498.22z"/>
<path class="st0" d="M312.34,49.54c-1.38-1.19-2.7-2.44-4.14-3.56c-19.16-14.85-38.34-29.67-57.5-44.52
	c-0.25-0.2-0.39-0.55-0.29-1.11c12.27-0.29,24.25-0.29,36.71,0.07c8.5,7.43,16.49,14.56,24.57,21.58
	c20.51,17.82,41.07,35.59,61.74,53.66c0.81,0.75,1.47,1.22,2.28,1.98c1.31,1.24,2.48,2.18,3.7,3.12c0.05,0,0.07,0.1,0.22,0.33
	c0.73,0.63,1.31,1.03,2.07,1.74c4.77,4.31,9.36,8.32,13.99,12.29c21.21,18.18,42.43,36.34,63.8,54.77c0.81,0.72,1.47,1.18,2.29,1.95
	c1.8,1.63,3.45,2.94,5.24,4.5c1.05,0.92,1.96,1.6,3.01,2.59c1.42,1.3,2.69,2.3,4.12,3.53c0.76,0.67,1.37,1.09,2.13,1.81
	c1.73,1.55,3.3,2.81,5.03,4.31c1.06,0.91,1.96,1.58,3.02,2.56c1.43,1.32,2.71,2.32,4.17,3.59c21.82,18.55,43.45,36.84,65.09,55.13
	c1.09,1,2.18,2,3.76,3.43c6.03,5.04,11.57,9.64,17.11,14.24c0.91,0.84,1.82,1.67,3.16,2.9c1.88,1.5,3.34,2.61,4.8,3.72
	c6.47,5.58,12.94,11.17,19.53,17.2c-0.11,0.65-0.36,0.82-0.64,0.95c-6.21-4.82-12.42-9.64-19.09-14.84c-1.18-0.89-1.9-1.4-2.62-1.91
	c0,0-0.19-0.24-0.53-0.54c-9.28-7.36-18.21-14.43-27.17-21.47c-14.86-11.68-29.68-23.4-44.61-35
	c-19.86-15.44-39.81-30.78-59.87-46.46c-38.64-29.59-77.11-58.88-115.62-88.14C325.37,59.04,318.83,54.33,312.34,49.54z"/>
<path class="st0" d="M1582.25,1029.05c4.85,3.59,9.65,7.25,14.56,10.75c26.39,18.86,52.81,37.68,79.09,56.86
	c-12.46,0.34-24.78,0.34-37.63,0c-5.49-4.46-10.4-8.65-15.42-12.69c-23.33-18.75-46.7-37.46-70.16-56.46
	c-0.92-0.77-1.74-1.27-2.67-2.12c-2.21-2.1-4.31-3.84-6.42-5.94c-5.13-4.55-10.23-8.77-15.39-12.93
	c-24.06-19.38-48.13-38.74-72.36-58.38c-0.86-0.71-1.55-1.15-2.4-1.9c-1.46-1.27-2.77-2.23-4.21-3.41
	c-0.84-0.72-1.55-1.22-2.47-1.99c-0.98-0.81-1.74-1.36-2.64-2.12c-0.71-0.57-1.28-0.93-2.01-1.59c-1.09-0.97-2.02-1.63-3.15-2.55
	c-2.93-2.39-5.66-4.52-8.61-6.92c-0.98-0.82-1.74-1.35-2.7-2.15c-4.13-3.31-8.07-6.36-12.17-9.72c-1.48-1.27-2.8-2.24-4.32-3.48
	c-2.02-1.71-3.83-3.13-5.63-4.57c-6.91-5.53-13.78-11.1-20.72-16.59c-13.3-10.52-26.64-21-39.96-31.49c-0.65-0.57-1.3-1.14-2.41-2.1
	c-1.21-0.91-1.96-1.44-2.71-1.97c-0.5-0.46-1-0.92-1.88-1.71c-1.61-1.19-2.83-2.04-4.04-2.89c-0.61-0.59-1.23-1.19-2.3-2.16
	c-2.54-1.92-4.63-3.47-6.71-5.01c-1.01-0.9-2.01-1.8-3-3.14c0.17-0.58,0.33-0.73,0.48-0.87c4.78,3.43,9.55,6.86,14.76,10.62
	c0.9,0.56,1.36,0.8,1.82,1.04c3.36,2.59,6.72,5.18,10.58,8.15c28.17,20.7,55.83,41.01,83.74,61.57c1.4,0.86,2.56,1.46,4.02,2.17
	c0.75,0.75,1.2,1.39,1.79,2.36c1.09,0.48,2.03,0.64,3.01,1.11c0.97,1.1,1.92,1.89,3.03,2.98c1.72,1.36,3.28,2.41,5.05,3.71
	c2.28,1.7,4.34,3.15,6.56,4.82c21.84,15.99,43.47,31.81,65.21,47.5C1541.92,1000.32,1562.11,1014.65,1582.25,1029.05z"/>
<path class="st0" d="M1512.65,122.69c24.06-20.01,48.18-39.93,72.15-60.05c24.49-20.56,48.82-41.31,73.38-62.28
	c13.51-0.3,26.86-0.3,40.93,0.02c-0.62,1.34-1.94,2.39-3.3,3.38c-11.88,8.55-23.78,17.09-35.97,25.69c-1.05,0.7-1.81,1.34-2.9,2.06
	c-2.13,1.45-3.93,2.83-6.06,4.28c-3.24,2.26-6.14,4.44-9.38,6.7c-1.17,0.77-2,1.48-3.16,2.27c-24.57,17.52-48.85,34.9-73.05,52.39
	c-13.05,9.43-25.95,19.05-39.08,28.89c-2.25,1.57-4.45,2.69-6.41,4.14c-41.49,30.55-82.95,61.13-124.44,91.68
	c-1.45,1.06-3.11,1.83-4.96,2.44c1.48-1.88,3.19-3.52,5.01-5.02c31.34-25.8,62.69-51.59,94.35-77.52c1.13-0.91,1.94-1.69,3.04-2.53
	c1.12-0.84,1.97-1.62,3.12-2.54c1.12-0.92,1.93-1.7,3-2.52c0.74-0.53,1.22-1.01,2.02-1.63c1.5-1.23,2.68-2.32,4.18-3.5
	C1507.82,126.86,1510.24,124.77,1512.65,122.69z"/>
<path class="st0" d="M1443.9,87.98c28.87-28.99,57.74-57.98,86.62-86.97c0.12-0.12,0.25-0.23,0.53-0.64c8.38-0.3,16.6-0.3,25.31-0.3
	c-0.34,1.33-0.9,2.94-2.02,3.95c-27.81,25.23-55.68,50.4-84.01,76.05c-2.14,1.98-3.82,3.49-5.48,5.02
	c-32.39,29.57-64.8,59.12-97.14,88.75c-2.53,2.32-4.54,5.19-6.8,7.8c-4.02,3.24-8.03,6.48-12.44,10.08
	c-0.7,0.53-0.86,0.79-0.86,1.15c-1.64,1.41-3.29,2.83-5.43,4.64c-4.35,4.42-8.21,8.45-12.06,12.48c-1.39,0.85-2.98,1.49-4.15,2.58
	c-30.82,28.6-61.59,57.25-93.1,85.98c-1.01,0.05-1.29,0.02-1.57-0.02c27.44-26.99,54.88-53.99,82.32-80.98
	c2.18-2.14,4.34-4.3,6.86-6.79c0.57-0.67,0.78-0.99,1-1.31c0,0,0.47-0.21,0.86-0.56c2.92-2.82,5.46-5.27,7.96-7.76
	c20.14-19.94,40.32-39.85,60.4-59.85c15.49-15.44,30.85-31.01,46.57-46.64c1.54-1.46,2.78-2.81,4.34-4.31
	C1442.6,89.43,1443.25,88.71,1443.9,87.98z"/>
<path class="st0" d="M407.09,24.85c-8.42-8.03-16.83-16.06-25.21-24.44c7.92-0.35,15.8-0.35,24.17-0.35
	c25.27,26.11,50.06,52.22,74.86,78.31c7.02,7.39,14.09,14.72,21.59,22.52c23.93,24.79,47.36,49.18,70.9,73.47
	c14.65,15.12,29.45,30.1,44.18,45.14c19.47,20.03,38.93,40.05,58.43,60.65c-0.28,0.8-0.58,1.03-0.89,1.26
	c-11.84-11.43-23.69-22.84-35.52-34.28c-7.38-7.13-14.73-14.28-22.55-21.86c-6.76-6.43-13.06-12.43-19.37-18.43
	c0,0-0.17,0.12-0.28-0.26c-3.43-3.45-6.75-6.53-10.06-9.61c-1.59-1.65-3.18-3.3-5.2-5.4c-0.57-0.55-0.7-0.66-0.83-0.78
	c-25.19-24.08-50.38-48.16-75.76-72.54c-2.3-2.23-4.42-4.16-6.57-6.24c-0.16-0.35-0.35-0.44-0.76-0.74
	c-8.02-7.8-15.83-15.32-23.72-22.76c-20.57-19.4-41.17-38.77-61.88-58.46c-1.9-1.92-3.68-3.53-5.47-5.17
	C407.13,24.88,407.09,24.85,407.09,24.85z"/>
<path class="st0" d="M1502.36,1061.84c12.55,11.53,25.09,23.07,37.34,34.88c-7.84,0.28-15.38,0.28-23.4,0.28
	c-1.07-0.78-1.56-1.66-2.25-2.34c-30.04-29.62-60.1-59.23-90.47-88.99c-0.32-0.16-0.38-0.36-0.6-0.66
	c-3.33-3.25-6.44-6.19-9.55-9.14c-5.53-5.51-11.02-11.06-16.59-16.52c-8.97-8.81-18-17.56-27.01-26.33
	c-11.54-11.22-23.09-22.44-34.64-33.65c-5.19-5.04-10.38-10.07-15.9-15.22c-17.43-16.73-34.51-33.36-51.64-49.95
	c-10.6-10.26-21.26-20.45-31.66-31.03c0.53-0.4,0.83-0.44,1.12-0.48c15.05,13.68,30.09,27.36,45.59,41.46
	c1.31,1.09,2.18,1.77,3.04,2.45c0.89,0.93,1.77,1.85,3.11,3.2c2.75,2.42,5.05,4.42,7.35,6.42c1.49,1.45,2.98,2.9,4.92,4.77
	c3.34,2.94,6.23,5.46,9.12,7.98c1.26,1.26,2.52,2.51,4.24,4.19c4.35,3.96,8.23,7.51,12.14,11.03c20.67,18.6,41.35,37.2,62.16,56.11
	c1.71,1.63,3.3,2.95,5.03,4.52c1.39,1.27,2.62,2.29,4.01,3.62c2.47,2.31,4.79,4.3,7.26,6.54c1.39,1.27,2.63,2.28,4.02,3.61
	c13.03,11.88,25.87,23.49,38.8,34.99C1466.03,1029.7,1484.21,1045.75,1502.36,1061.84z"/>
<path class="st0" d="M296.29,1097c0.32-1.14,0.89-2.57,1.95-3.38c15.76-12.16,31.62-24.18,47.36-36.36
	c5.02-3.88,9.77-8.1,15.1-12.55c1.25-1.07,2.03-1.75,3.19-2.46c2.26-1.71,4.15-3.38,6.39-5.08c2.99-1.76,5.73-3.36,8.23-5.27
	c9.98-7.63,19.92-15.32,29.81-23.07c21.28-16.67,42.52-33.4,64.07-50.17c0.85-0.63,1.41-1.19,2.29-1.83
	c1.42-1.06,2.53-2.04,3.95-3.11c1.45-1.08,2.59-2.08,4.05-3.16c1.52-1.33,2.72-2.58,4.24-3.97c16.58-12.65,32.84-25.16,49.1-37.67
	c0.26,0.33,0.52,0.65,0.79,0.98c-3.1,2.78-6.2,5.56-9.59,8.51c-7.02,6.12-13.73,12.07-20.73,18.1c-1.09,0.87-1.9,1.66-3.02,2.59
	c-1.08,0.92-1.85,1.7-2.95,2.58c-1.62,1.35-2.92,2.59-4.53,3.95c-18.14,15.78-35.98,31.44-54.12,47.26
	c-1.45,1.27-2.6,2.38-4.05,3.58c-1.22,1.01-2.13,1.92-3.04,2.84c-16.34,14.32-32.74,28.56-48.99,42.98
	c-20.2,17.92-40.26,35.99-60.31,54.35C315.95,1097,306.36,1097,296.29,1097z"/>
<path class="st0" d="M447.4,1068.52c0.64-0.51,1.28-1.02,2.35-1.93c2.63-2.66,4.83-4.91,7.32-7.25c0.78-0.69,1.27-1.3,2.09-2.01
	c1.85-1.73,3.39-3.34,5.2-5.05c0.75-0.67,1.23-1.25,2.03-1.95c1.4-1.25,2.48-2.38,3.83-3.69c22.18-21.57,44.09-42.95,66.23-64.43
	c0.22-0.1,0.44-0.53,0.71-0.65c3.43-3.31,6.57-6.5,10.02-9.82c26.4-25.83,52.5-51.53,78.6-77.22c17.97-17.7,35.95-35.41,54.47-53.15
	c0.76,0.28,0.96,0.59,1.17,0.9c-6.38,6.72-12.76,13.45-19.58,20.64c-2.56,2.78-4.69,5.08-6.81,7.38c-0.24,0-0.41,0.1-0.83,0.59
	c-0.8,0.91-1.29,1.54-1.79,2.17c-1.94,1.91-3.89,3.82-6.27,6.18c-4.48,4.78-8.53,9.12-12.58,13.45c-0.26-0.01-0.45,0.1-0.91,0.67
	c-12.43,12.98-24.56,25.58-36.59,38.27c-14.36,15.14-28.63,30.35-43.24,45.64c-1.26,1.21-2.23,2.31-3.21,3.46
	c-0.02,0.05-0.11,0.1-0.36,0.25c-0.98,1.03-1.72,1.91-2.76,2.96c-2.03,2.06-3.76,3.95-5.48,5.84
	c-27.24,28.84-54.48,57.67-81.71,86.51c-6.28,6.66-12.51,13.37-18.84,20.39c-6.6,0.33-13.11,0.33-20.11,0.33
	c0.23-1.23,0.7-2.68,1.68-3.64c6.96-6.85,14.03-13.6,21.52-20.81C445.13,1070.92,446.26,1069.72,447.4,1068.52z"/>
<path class="st0" d="M1363.11,80.77c16.89-20.81,33.74-41.37,50.57-61.94c4.93-6.03,9.81-12.1,14.86-18.46
	c5.63-0.31,11.12-0.31,17.09-0.31c-0.39,1.4-1.06,2.98-2.15,4.19c-13.42,14.88-26.9,29.7-40.79,45.02c-1.5,1.76-2.56,3.04-3.89,4.47
	c-1.04,1.08-1.82,2.02-2.72,2.97c-0.12,0.02-0.21,0.24-0.49,0.26c-0.41,0.34-0.54,0.65-0.9,1.19c-1.16,1.36-2.08,2.5-3.33,3.78
	c-2.07,2-3.82,3.86-5.74,6.01c-1.2,1.57-2.23,2.86-3.57,4.27c-1.73,1.76-3.14,3.39-4.8,5.27c-13.63,15.15-27.08,30.01-40.4,44.98
	c-17.05,19.14-34,38.37-50.99,57.55c-10.7,11.96-21.4,23.91-32.54,35.98c-0.66-0.09-0.82-0.32-0.95-0.58
	c3.37-4.13,6.74-8.26,10.52-12.87c1.08-1.4,1.75-2.32,2.41-3.25c0.47-0.48,0.94-0.95,1.78-1.83c1.35-1.7,2.33-3,3.31-4.3
	c0.48-0.48,0.95-0.96,1.79-1.84c1.03-1.32,1.7-2.23,2.37-3.15c3.89-4.6,7.78-9.2,11.8-14.14c19.17-23.3,38.2-46.27,57.24-69.25
	c0.65-0.78,1.3-1.57,2.35-2.83c2.44-3.08,4.48-5.67,6.52-8.27c0.47-0.48,0.94-0.97,1.77-1.87c2.71-3.4,5.06-6.38,7.41-9.37
	C1362.11,82,1362.58,81.51,1363.11,80.77z"/>
<path class="st0" d="M586.64,38.47c-9.12-12.57-18.24-25.13-27.36-38.05c4.47-0.36,8.94-0.36,13.88-0.36
	c17.3,25.43,34.07,50.89,50.96,76.27c11.91,17.92,23.97,35.75,36.27,53.8c0.77,0.92,1.23,1.67,1.92,2.88
	c5.94,8.87,11.65,17.26,17.36,25.66c16.24,24.03,32.48,48.07,48.69,72.68c-0.3,0.81-0.58,1.04-0.85,1.27
	c-15.94-22.08-31.88-44.16-48.17-66.78c-1.9-2.5-3.52-4.42-4.99-6.44c-10.85-14.87-21.61-29.79-32.52-44.61
	c-6.19-8.4-12.77-16.52-18.87-24.99c-7.65-10.63-14.99-21.48-22.55-32.54c-1.48-2.1-2.87-3.89-4.33-5.98
	c-0.47-0.75-0.88-1.2-1.44-1.98c-2.04-2.81-3.93-5.29-5.9-8.08C587.98,40.09,587.31,39.28,586.64,38.47z"/>
<path class="st0" d="M1348.17,1097c-1.23-1.44-1.83-3-2.77-4.31c-32.11-44.96-64.24-89.9-96.69-135.02
	c-14.68-20.21-29.05-40.24-43.42-60.27c-2.36-3.29-4.77-6.56-7.13-10.41c0.31-0.8,0.59-1.02,0.88-1.24
	c18.21,23.68,36.42,47.36,54.95,71.21c0.83,1.01,1.36,1.86,2.24,3.16c1.27,1.49,2.17,2.53,3.07,3.57
	c12.55,16.4,25.02,32.87,37.67,49.2c20.54,26.53,41.19,52.97,61.78,79.46c1.03,1.33,1.95,2.75,2.59,4.4
	C1356.89,1097,1352.77,1097,1348.17,1097z"/>
<path class="st0" d="M1215.86,131.62c20.43-34.9,40.74-69.46,61.01-104.04c5.22-8.9,10.33-17.86,15.47-27.16
	c3.77-0.36,7.56-0.36,11.82-0.36c-0.3,1.61-0.9,3.33-1.86,4.83c-27.86,43.75-55.75,87.48-83.67,131.6
	c-3.49,5.65-6.95,10.91-10.76,16.67c-0.8,1.4-1.26,2.31-1.71,3.21c-2.99,4.54-5.98,9.09-9.35,14.01c-0.49,0.7-0.6,1.01-0.7,1.32
	c-12.63,20.1-25.25,40.21-38.27,60.48c-0.57-0.07-0.74-0.33-0.87-0.59c19.35-32.76,38.7-65.52,58.04-98.28
	C1215.27,132.87,1215.49,132.41,1215.86,131.62z"/>
<path class="st0" d="M1177.04,0.06c-0.88,3.78-2.09,7.61-3.59,11.33c-11.5,28.5-23.06,56.99-34.62,85.83
	c-4.63,11.74-9.23,23.12-14.14,35.12c-0.62,1.56-0.94,2.51-1.25,3.46c-14.04,35.07-28.07,70.14-42.11,105.21
	c-0.69,1.72-1.38,3.44-2.48,5.34c-0.61-0.16-0.81-0.5-1.01-0.84c9.66-26.12,19.34-52.24,28.97-78.37
	c20.42-55.45,40.82-110.92,61.34-166.73C1171.04,0.06,1173.81,0.06,1177.04,0.06z"/>
<path class="st0" d="M519.78,1097c0.42-1.36,1.18-2.83,2.22-4.07c17.2-20.36,34.45-40.69,51.68-61.03c2.05-2.42,4.07-4.85,6.54-7.78
	c2.25-3.1,4.07-5.71,6.17-8.41c0.75-0.72,1.22-1.34,2.03-2.06c2.51-3.01,4.68-5.92,7.15-8.96c1.12-1.13,1.94-2.13,3.1-3.22
	c5.42-6,10.58-11.85,15.57-17.85c16.29-19.57,32.51-39.19,48.75-58.79c1.96-2.25,3.93-4.49,6.3-7.2c1.21-1.16,2.01-1.86,2.81-2.55
	c-2.52,3.82-5.05,7.63-7.98,11.98c-5,6.49-9.58,12.45-14.17,18.41c-0.42,0.44-0.85,0.88-1.62,1.78c-1.79,2.4-3.23,4.34-4.67,6.28
	c-0.45,0.51-0.9,1.01-1.4,1.77c-12.16,15.71-24.37,31.08-36.35,46.64c-24.2,31.4-48.27,62.9-72.32,94.71
	C529.19,1097,524.73,1097,519.78,1097z"/>
<path class="st0" d="M728.76,967.4c-15.48,28.35-30.91,56.3-46.25,84.31c-8.12,14.82-16.07,29.73-23.94,44.95
	c-2.94,0.35-6.05,0.35-9.62,0.35c0.3-1.78,0.87-3.67,1.85-5.33c17.72-29.91,35.48-59.8,53.33-90c1.58-2.67,3.06-5.02,4.85-7.96
	c1.51-2.72,2.71-4.84,3.92-6.97c0.61-0.89,1.21-1.79,2.1-3.24c2.94-5.2,5.59-9.84,8.24-14.47c13.02-22.04,26.05-44.07,39.07-66.11
	c0.26-0.43,0.54-0.85,1.21-1.44c0.6,0.08,0.76,0.35,0.88,0.64c-2.02,3.78-4,7.58-6.06,11.33
	C748.52,931.31,738.68,949.17,728.76,967.4z"/>
<path class="st0" d="M804.47,1004.94c-8.58,25.93-17.17,51.45-25.73,76.99c-1.61,4.79-3.13,9.61-4.42,14.74
	c-2.5,0.33-5.27,0.33-8.5,0.33c10.97-31.16,22.41-62.31,33.92-93.85c15.25-42.08,30.41-83.78,45.59-125.48
	c0.29-0.79,0.61-1.57,1.3-2.54c0.59,0.16,0.79,0.5,1,0.85c-8.8,26.23-17.6,52.45-26.4,78.68c-1.18,3.52-2.35,7.04-3.74,11.25
	c-1.53,4.86-2.84,9.03-4.16,13.2c-1.2,3.34-2.39,6.68-3.78,10.57c-0.72,2.21-1.25,3.87-1.78,5.54
	C806.66,998.31,805.56,1001.43,804.47,1004.94z"/>
<path class="st0" d="M505.5,0.06c1.24,1.27,1.9,2.62,2.8,3.79c21.83,28.32,43.69,56.62,65.94,85.39c1.23,1.47,2.06,2.48,3.04,3.8
	c0.89,1.14,1.64,1.97,2.49,3.12c11.9,15.55,23.7,30.77,35.5,45.99c-0.46,0.34-0.92,0.68-1.37,1.02c-6.21-7.46-12.31-15-18.64-22.36
	c-17.02-19.76-34.14-39.43-51.22-59.14c-17.51-20.3-35.02-40.61-52.47-61.27C496.09,0.06,500.56,0.06,505.5,0.06z"/>
<path class="st0" d="M707.92,114.84c-14.56-25.32-29.01-50.44-43.5-75.54c-7.43-12.86-14.92-25.69-22.23-38.88
	c3.26-0.35,6.37-0.35,9.94-0.35c0.82,1.09,1.02,2.25,1.55,3.25c23.53,44.53,47.09,89.05,70.85,133.83c1.38,2.51,2.54,4.77,3.99,7.64
	c1.16,2.02,2.03,3.43,2.91,4.84c3.11,6.03,6.23,12.07,9.28,18.7c-0.32,0.83-0.59,1.07-0.85,1.31
	c-6.36-10.99-12.72-21.98-19.39-33.52c-3.8-6.5-7.29-12.44-10.78-18.39C709.13,116.82,708.57,115.93,707.92,114.84z"/>
<path class="st0" d="M1179.49,109.1c11.26-23.79,22.55-47.21,33.74-70.67c5.96-12.5,11.77-25.08,17.61-37.99
	c2.74-0.37,5.5-0.37,8.73-0.37c-0.03,1.6-0.3,3.31-1.06,4.77c-18.96,36.44-37.98,72.86-56.89,109.64c-0.68,1.43-1.6,2.43-2.2,3.59
	c-9.26,17.82-18.47,35.66-28.25,53.53c-0.77-0.08-0.98-0.19-1.19-0.3c3.73-7.95,7.47-15.9,11.53-24.42
	c0.68-1.47,1.03-2.37,1.39-3.26c0.45-0.86,0.9-1.71,1.65-3.08c0.98-2.06,1.66-3.6,2.33-5.15
	C1171.09,126.74,1175.28,118.1,1179.49,109.1z"/>
<path class="st0" d="M1383.06,1045.64c14.25,15.52,28.51,31.02,42.75,46.54c1.25,1.36,2.35,2.86,3.2,4.56
	c-4.11,0.26-7.9,0.26-12.16,0.26c-28.57-34.17-56.66-68.34-84.78-102.49c-5.93-7.2-11.94-14.32-17.77-21.88
	c0.33-0.49,0.5-0.58,0.68-0.66c5.1,5.4,10.18,10.81,15.3,16.19c4.63,4.86,9.38,9.62,13.94,14.55c2.61,2.82,4.96,5.88,7.85,9.32
	c2.21,2.32,3.99,4.16,5.78,5.99c4.76,5.3,9.51,10.59,14.71,16.38c2.22,2.31,4.01,4.14,5.79,5.97c0.81,0.99,1.61,1.99,2.79,3.38
	c0.88,0.89,1.38,1.37,1.89,1.86C1383.03,1045.61,1383.06,1045.62,1383.06,1045.64z"/>
<path class="st0" d="M835.65,0.06c2.31,10.23,4.03,20.49,6.06,30.68c3.66,18.35,7.51,36.66,11.52,55.32
	c0.41,1.57,0.59,2.81,1.2,4.14c0.44,0.1,0.46,0.09,0.46,0.09c1.02,6.82,1.84,13.69,3.11,20.46c1.43,7.65,3.26,15.24,5.05,23.53
	c0.34,1.08,0.54,1.47,0.74,1.87c3.25,15.99,6.49,31.99,9.74,47.98c0.3,1.48,0.58,2.97,0.73,5.14c-0.44,1.01-0.73,1.33-1.03,1.66
	c-3.93-16.71-7.86-33.41-12.01-50.81c-0.64-2.12-1.07-3.56-1.49-4.99c-3.5-14.78-7-29.56-10.48-44.34
	c-0.44-1.89-0.71-3.82-1.27-6.09c-6.31-26.06-12.41-51.76-18.51-77.45c-0.5-2.13-1.04-4.25-1.57-6.78
	C830.33,0.06,832.76,0.06,835.65,0.06z"/>
<path class="st0" d="M1208.18,979.26c0.69,1.83,1.14,3.8,2.16,5.43c22.29,35.96,44.64,71.89,66.98,107.83
	c0.8,1.29,1.56,2.62,2.01,4.2c-3.09,0.28-5.86,0.28-9.09,0.28c-1.24-1.81-1.84-3.72-2.81-5.42
	c-20.84-36.67-41.72-73.32-62.89-110.17c-0.95-1.5-1.61-2.8-2.52-4.61c-0.58-0.96-0.91-1.41-1.24-1.86
	c-0.62-1.19-1.24-2.39-2.21-4.13c-1.09-1.68-1.82-2.81-2.56-3.94c-3.73-6.65-7.47-13.29-11.47-20.48c-0.6-1-0.94-1.46-1.27-1.93
	c-0.54-1.02-1.08-2.03-1.57-3.6c0.19-0.86,0.42-1.09,0.73-1.23c6.83,11.02,13.64,22.04,20.51,33.03c0.86,1.38,2.08,2.55,3.15,4.5
	c0.71,1.17,1.4,1.66,2.09,2.14C1208.18,979.3,1208.21,979.25,1208.18,979.26z"/>
<path class="st0" d="M1090.81,1097c-2.92-11.33-5.29-22.69-7.89-33.99c-2.72-11.83-5.67-23.62-8.74-35.76
	c-0.63-2.54-1.04-4.75-1.65-7.61c-0.37-1.05-0.54-1.46-0.72-1.87c-4.26-17.3-8.56-34.58-12.77-51.89
	c-2.83-11.61-5.53-23.25-8.34-34.86c-0.71-2.95-1.59-5.86-2.03-9.25c0.8-0.44,1.24-0.42,1.67-0.4c4.76,17.67,9.53,35.33,14.44,53.74
	c0.81,2.87,1.48,4.99,2.14,7.12c1.26,4.85,2.52,9.71,3.92,15.28c1.17,4.19,2.2,7.66,3.23,11.12c1.35,5.28,2.7,10.56,4.3,16.13
	c5.35,19.45,10.45,38.62,15.55,57.78c1.21,4.55,2.46,9.09,3.65,14.04C1095.44,1097,1093.35,1097,1090.81,1097z"/>
<path class="st0" d="M1081.48,80.76c6.45-26.86,12.9-53.38,19.25-80.29c1.98-0.4,4.07-0.4,6.62-0.4c-8.76,32.5-17.99,65-27.17,97.51
	c-3.17,11.21-6.2,22.46-9.62,33.87c-0.53-0.13-0.73-0.43-0.93-0.74c0.73-3.27,1.47-6.53,2.32-10.47c0.37-1.93,0.63-3.2,0.88-4.46
	c1.81-7.17,3.63-14.33,5.67-22.18c0.84-3.52,1.46-6.35,2.07-9.18C1080.86,83.31,1081.17,82.21,1081.48,80.76z"/>
<path class="st0" d="M890.4,78.69c-3.3-21.96-6.47-43.5-9.65-65.05c-0.64-4.33-1.34-8.66-2.31-13.28c1.79-0.29,3.89-0.29,6.43-0.29
	c1.88,14.24,3.18,28.49,4.78,42.7c3,26.64,6.17,53.26,9.29,79.89c0.14,1.17,0.38,2.33,0.27,3.92c-0.69,0.42-1.07,0.42-1.45,0.42
	c-0.47-3.17-0.95-6.34-1.54-10.18c-0.29-1.11-0.47-1.54-0.64-1.98c-1.03-5.49-2.05-10.98-3.04-17.27c-0.01-1.89-0.05-2.97-0.09-4.06
	C891.8,88.7,891.17,83.9,890.4,78.69z"/>
<path class="st0" d="M1354.41,0.06c-0.22,1.38-0.72,2.89-1.62,4.11c-9.32,12.57-18.7,25.09-28.22,37.95
	c-0.87,1.2-1.59,2.06-2.47,3.26c-0.15,0.33-0.24,0.45-0.24,0.45c-0.25,0.19-0.5,0.37-1.06,1.09c-0.49,0.92-0.68,1.3-0.87,1.68
	c-1.3,1.54-2.59,3.07-4.33,5.07c-0.59,1.37-0.73,2.29-0.87,3.2c-1,1.11-2,2.21-3.41,3.71c-2.78,3.3-5.16,6.2-7.53,9.11
	c-5.03,6.87-10.06,13.74-15.09,20.6c-0.45-0.33-0.9-0.65-1.34-0.98c19.47-29.51,38.95-59.03,58.35-88.9
	C1348.41,0.06,1351.18,0.06,1354.41,0.06z"/>
<path class="st0" d="M1056.09,0.06c-4.22,24.69-8.87,49.39-13.52,74.51c-0.49,2.95-0.99,5.47-1.6,8.67
	c-0.15,1.12-0.19,1.55-0.23,1.99c-0.26,1.16-0.52,2.33-0.93,4.11c-0.19,1.06-0.24,1.49-0.28,1.93c-0.18,0.86-0.36,1.72-0.6,3.23
	c-0.27,1.45-0.47,2.26-0.68,3.06c-1.12,6.15-2.23,12.3-3.51,19.14c-0.21,1.13-0.27,1.56-0.32,1.99c-0.14,0.55-0.28,1.09-0.9,1.9
	c-0.76,0.26-1.03,0.26-1.3,0.26c6.08-39.99,12.16-79.98,18.2-120.38C1052.13,0.06,1053.89,0.06,1056.09,0.06z"/>
<path class="st0" d="M940.24,0.06c0.23,0.95-0.18,1.9-0.16,2.85c0.74,40.38,1.51,80.76,2.02,121.48c-0.57,0.33-0.85,0.39-1.11,0.54
	c-1.44-28.5-2.88-56.99-4.34-85.49c-0.66-12.82-1.37-25.63-2.09-38.91C936.28,0.06,938.04,0.06,940.24,0.06z"/>
<path class="st0" d="M1491.24,356.82c2.85-1.59,5.7-3.19,8.98-5.01c0.78-0.53,1.13-0.83,1.48-1.13
	c10.7-6.87,21.39-13.75,32.55-20.94c20.73-13.62,40.99-26.93,61.27-40.21c11.64-7.63,23.3-15.21,35.23-22.89
	c2.42-1.58,4.57-3.09,7-4.65c0.92-0.57,1.54-1.09,2.44-1.66c14.87-9.68,29.5-19.26,44.07-28.97c16.27-10.84,32.49-21.78,48.98-32.71
	c0.93-0.58,1.6-1.13,2.51-1.71c1.13-0.7,2.04-1.38,3.24-2.12c6.86-4.46,13.45-8.83,19.99-13.27c28.37-19.23,56.72-38.48,85.36-57.84
	c37.32-25.68,74.36-51.25,111.41-76.8c1.23-0.85,2.58-1.47,3.87-2.2c0,13.88,0,27.76-0.29,42.05c-6.65,3.93-13.04,7.38-19.36,10.99
	c-21.71,12.41-43.39,24.88-65.28,37.32c-24.54,13.8-48.87,27.61-73.19,41.42c0.01,0.01,0.01-0.02-0.26,0.07
	c-1.36,0.81-2.45,1.53-3.81,2.29c-18.23,10.48-36.19,20.91-54.44,31.37c-0.6,0.31-0.91,0.59-1.5,0.88c-3.19,1.8-6.11,3.59-9.28,5.43
	c-9.79,5.56-19.34,11.01-28.83,16.6c-15.17,8.93-30.29,17.97-45.73,27c-20.56,12.09-40.84,24.14-61.32,36.19
	c-0.67,0.34-1.14,0.68-1.82,1.05c-0.58,0.32-0.95,0.6-1.6,0.97c-3.51,2.1-6.72,4.13-10.22,6.19c-2.23,1.29-4.18,2.54-6.42,3.82
	c-19.77,11.78-39.25,23.52-58.73,35.26c-1.23,0.67-2.47,1.34-4.11,2.28c-1.32,0.91-2.23,1.55-3.13,2.19
	c-0.44,0.16-0.88,0.33-1.74,0.74c-3.18,1.98-5.95,3.7-8.71,5.43c-2.4,1.4-4.79,2.81-7.66,4.12
	C1491.55,357.79,1491.4,357.3,1491.24,356.82z"/>
<path class="st0" d="M1959.62,141.2c0,15.21,0,30.42-0.27,46.13c-4.74,2.61-9.21,4.68-13.66,6.85
	c-15.25,7.45-30.49,14.93-46.01,22.42c-4.17,1.87-8.09,3.6-11.94,5.59c-13.85,7.17-27.67,14.43-41.69,21.61
	c-0.31,0-0.43,0.05-0.83,0c-2.35,0.9-4.41,1.89-6.75,2.89c-4.61,2.13-8.96,4.2-13.28,6.4c-16.26,8.26-32.5,16.56-49.02,24.85
	c-2.99,1.38-5.72,2.74-8.44,4.15c-16.39,8.52-32.77,17.06-49.36,25.59c-0.68,0.3-1.16,0.61-1.91,0.97
	c-3.47,1.79-6.66,3.53-10.13,5.3c-3.11,1.48-5.97,2.89-8.8,4.39c-16.85,8.97-33.7,17.95-50.84,26.94c-2.02,1.03-3.74,2.06-5.73,3.07
	c-1.2,0.59-2.15,1.2-3.31,1.82c-0.65,0.16-1.08,0.31-1.78,0.35c-0.63-0.08-0.99-0.06-1.29-0.41c2.26-1.75,4.44-3.13,6.86-4.56
	c5-2.95,9.78-5.77,14.52-8.73c15.93-9.95,31.86-19.95,48.05-29.94c20.53-12.85,40.79-25.69,61.32-38.58
	c1.47-0.93,2.67-1.82,4.07-2.71c0.29-0.11,0.39-0.22,0.73-0.35c0.91-0.57,1.57-1.12,2.42-1.67c0.49-0.23,0.8-0.45,1.37-0.79
	c4.33-2.68,8.42-5.21,12.48-7.85c16.31-10.62,32.61-21.27,49.19-31.92c20.28-13.22,40.29-26.42,60.56-39.69
	c0.84-0.56,1.42-1.06,2.24-1.59c1.19-0.75,2.14-1.46,3.35-2.2c2.79-1.78,5.31-3.54,8.09-5.34c0.54-0.33,0.82-0.61,1.36-0.93
	C1927.5,162.57,1943.56,151.88,1959.62,141.2z"/>
<path class="st0" d="M1569.25,468.34c-12.91,2.58-25.83,5.08-38.73,7.76c-20.38,4.23-40.74,8.57-61.47,12.59
	c-0.37-0.5-0.38-0.73-0.39-0.95c18.15-4.34,36.29-8.68,55.07-13.19c7.55-1.89,14.48-3.62,21.64-5.31c0.66-0.14,1.09-0.33,1.86-0.51
	c33.42-8.11,66.5-16.23,99.88-24.33c0.85-0.22,1.4-0.46,2.19-0.66c0.67-0.09,1.12-0.22,1.91-0.37c13.95-3.41,27.57-6.75,41.16-10.24
	c19.26-4.94,38.49-10.03,57.75-14.98c11.76-3.02,23.56-5.89,35.66-8.84c2.08-0.49,3.84-0.98,5.8-1.44c0.2,0.03,0.55-0.19,0.9-0.21
	c11.65-2.94,22.96-5.81,34.24-8.79c18.12-4.78,36.22-9.63,54.68-14.44c5.31-1.27,10.28-2.51,15.24-3.84
	c26.13-7,52.25-14.02,78.37-21.03c0,9.78,0,19.55-0.34,29.62c-27.64,5.33-54.94,10.38-82.58,15.39
	c-14.61,2.67-28.88,5.31-43.14,8.06c-13.7,2.64-27.37,5.39-41.33,8.05c-1,0.11-1.72,0.27-2.74,0.39c-0.86,0.18-1.42,0.4-2.26,0.57
	c-1.13,0.36-1.97,0.77-2.84,1.22c-0.03,0.04-0.04,0.08-0.3-0.25c-3.24,0.24-6.22,0.8-9.49,1.34c-0.63,0.38-0.98,0.8-1.65,1.26
	c-2.71,0.17-5.15-0.01-7.48,0.44c-24.97,4.89-49.93,9.87-75.28,14.85c-1.91,0.4-3.44,0.78-5.24,1.12c-0.65,0.08-1.01,0.21-1.7,0.3
	c-28.27,5.57-56.22,11.12-84.16,16.79c-13.98,2.84-27.93,5.9-41.9,8.86c-0.47,0.01-0.94,0.02-1.89,0.12
	C1569.88,467.98,1569.56,468.16,1569.25,468.34z"/>
<path class="st0" d="M1520.78,287.53c-12.84,8.39-25.62,16.87-38.55,25.13c-13.02,8.32-26.2,16.39-39.28,24.61
	c-4.16,2.61-8.26,5.33-12.95,7.98c-0.8-0.26-1.04-0.5-1.28-0.74c15.54-10.62,31.04-21.3,46.63-31.85
	c15.19-10.28,30.13-20.93,45.95-31.51c3.73-2.63,6.88-4.87,10.03-7.11c1.92-1.25,3.84-2.5,6.32-4.12c2.03-1.49,3.51-2.61,4.99-3.72
	c0.61-0.33,1.21-0.65,2.33-1.3c2.67-1.89,4.83-3.46,6.99-5.03c2.07-1.34,4.14-2.68,6.75-4.42c39.03-27.1,77.53-53.79,116.01-80.52
	c1.78-1.23,3.27-2.87,5.04-4.11c4.06-2.84,8.22-5.55,12.68-8.38c1.97-1.32,3.59-2.58,5.53-3.9c1.79-1.17,3.28-2.27,5.11-3.51
	c18.39-12.82,36.52-25.4,54.47-38.23c19.3-13.79,38.42-27.82,57.98-41.79c5.52-3.51,10.74-6.89,15.81-10.47
	c13.15-9.29,26.29-18.62,39.35-28.04c15.37-11.09,30.66-22.29,45.98-33.44c19.16,0,38.32,0,58.17,0.33c0.29,0.64-0.08,1-0.51,1.27
	c-17.11,10.62-34.2,21.26-51.34,31.83c-5.51,3.4-11.14,6.6-17.06,10c-22.49,13.68-44.67,27.2-66.77,40.85
	c-21.07,13.02-42.06,26.17-63.43,39.37c-16.78,10.32-33.26,20.47-49.65,30.77c-26.44,16.61-52.82,33.3-79.59,50.07
	c-20.15,12.62-39.97,25.08-59.71,37.66C1564.73,259.23,1542.78,273.41,1520.78,287.53z"/>
<path class="st0" d="M1952.44,272.22c0,12.03,0,24.05-0.27,36.61c-7.51,2.77-14.76,4.97-21.99,7.26
	c-19.63,6.21-39.25,12.45-59.17,18.66c-6.41,1.94-12.54,3.85-18.65,5.86c-20.87,6.86-41.73,13.76-62.96,20.71
	c-1.07,0.33-1.77,0.6-2.71,0.85c-1.19,0.4-2.15,0.81-3.44,1.24c-3.46,1.12-6.6,2.22-9.99,3.29c-1.27,0.36-2.28,0.76-3.56,1.14
	c-20.17,6.75-40.08,13.43-59.97,20.29c-14.73,5.08-29.43,10.38-44.4,15.56c-10.02,3.4-19.77,6.83-29.48,9.93
	c0.02-0.55,0-0.77,0.2-1.1c0.96-0.49,1.7-0.87,2.65-1.21c0.86-0.32,1.51-0.67,2.44-1.01c0.76-0.29,1.26-0.6,2.02-0.88
	c3.88-1.59,7.48-3.21,11.35-4.8c1.74-0.68,3.23-1.38,4.97-2.06c4.09-1.6,7.93-3.19,11.74-4.85c15.64-6.79,31.28-13.6,47.12-20.37
	c0.8-0.31,1.4-0.65,2.22-0.98c0.36-0.08,0.49-0.17,0.87-0.27c1.47-0.62,2.7-1.23,4.19-1.84c0.76-0.31,1.25-0.61,2.01-0.9
	c2.39-0.92,4.52-1.84,6.64-2.78c18.05-8.02,36.11-16.05,54.44-24.1c21.65-9.67,43.03-19.3,64.65-28.99
	c1.01-0.48,1.77-0.92,2.76-1.35c1.12-0.43,2-0.87,3.16-1.33c15.17-6.98,30.06-13.93,45.23-20.91c2.71-1.18,5.16-2.34,7.85-3.53
	c1-0.49,1.75-0.94,2.78-1.41c7.83-3.54,15.37-7.12,22.95-10.56C1942.85,276.23,1947.66,274.27,1952.44,272.22z"/>
</svg>
