<?xml version="1.0" encoding="utf-8"?>
<!-- Generator: Adobe Illustrator 25.0.0, SVG Export Plug-In . SVG Version: 6.00 Build 0)  -->
<svg version="1.1" id="Layer_1" xmlns="http://www.w3.org/2000/svg" xmlns:xlink="http://www.w3.org/1999/xlink" x="0px" y="0px"
	 viewBox="0 0 1920 1080" style="enable-background:new 0 0 1920 1080;" xml:space="preserve">
<style type="text/css">
	.st0{fill:#FFFFFF;}
	.st1{fill:#FFEC00;}
	.st2{fill:#C9BA4C;}
	.st3{fill:#FFDA03;}
	.st4{fill:#020202;}
	.st5{fill:#777777;}
</style>
<path class="st0" d="M921.76,166.75c-3.52,0.07-6.87-7.05-8.15-12.23c-1.31-5.32,0.12-6.33-0.68-10.87
	c-1.31-7.42-6.04-9.79-12.91-19.02c-2.94-3.96-7.04-9.47-9.51-16.31c-5.29-14.67-0.63-28.68,0.68-32.61
	c4.54-13.64,13.1-21.57,15.63-23.78c4.42-3.87,11.29-9.88,21.74-10.87c0.43-0.04,8.94-0.76,16.31,2.72
	c16.25,7.67,25.92,35.3,20.38,57.75c-6.04,24.45-26.75,29.05-36.69,55.71C927.61,159.76,925.2,166.68,921.76,166.75z"/>
<path class="st1" d="M914.96,161.32c-2.97-4.55,0.57-7.21-2.72-16.31c-2.05-5.68-3.79-5.63-10.87-16.98
	c-2.9-4.65-5.56-8.96-8.15-14.95c-2.14-4.95-3.94-9.09-4.76-14.27c-1.99-12.59,3.08-23.01,5.44-27.85
	c1.97-4.05,6.01-12.12,14.95-19.02c11.92-9.21,24.43-10.06,27.18-10.19c2.89-0.14,13.18-0.37,24.46,5.44
	c2.59,1.33,11.31,6.11,18.34,16.31c7.46,10.82,8.61,21.35,8.83,23.78c1.31,14.31-4.23,25.48-6.79,29.89
	c-4.93,8.49-7.95,7.7-11.55,16.31c-0.66,1.58-0.9,2.42-6.11,18.34c-1.3,3.96-1.95,5.95-2.04,6.11
	C954.47,170.41,922.45,172.77,914.96,161.32z"/>
<path class="st2" d="M961.16,157.24c-6.23,5.2-19.15,4.36-23.1-2.04c-3.12-5.06,0.37-11.98,4.76-20.38
	c9.43-18.09,17.2-19.88,22.42-29.89c12.12-23.26-9.72-51.91-4.08-55.03c4.22-2.33,20.23,11.53,25.14,29.89
	c4.57,17.11-1.77,32.45-2.72,34.65c-5.83,13.56-13.64,15.06-17.66,30.57C964.4,150.84,964.52,154.44,961.16,157.24z"/>
<path class="st0" d="M867.4,95.42"/>
<line class="st0" x1="869.44" y1="95.42" x2="839.55" y2="95.42"/>
<path class="st3" d="M838.87,100.17c0,0-2.04-2.72,0-4.08c2.04-1.36,29.18-0.64,29.18-0.64s5.46,1.99,0.03,4.71"/>
<path class="st3" d="M863.89,24.99c0,0,0.55-3.35,2.94-2.83c2.39,0.53,20.68,20.6,20.68,20.6s2.35,5.32-3.38,3.29"/>
<path class="st3" d="M936.57-13.05c0,0,2.57-2.22,4.07-0.28s2.67,29.07,2.67,29.07s-1.61,5.59-4.7,0.36"/>
<path class="st3" d="M1011.83,22.42c0,0,3.36,0.5,2.87,2.9s-20.31,20.97-20.31,20.97s-5.29,2.42-3.33-3.33"/>
<path class="st3" d="M1039.39,95.32c0,0,2.04,2.72,0.01,4.08c-2.04,1.36-29.18,0.67-29.18,0.67s-5.47-1.99-0.03-4.71"/>
<path class="st3" d="M892.87,142.65c0,0,3.33,0.68,2.71,3.05c-0.62,2.37-21.41,19.84-21.41,19.84s-5.41,2.13-3.15-3.51"/>
<path class="st3" d="M1011.86,163.52c0,0-0.29,3.38-2.72,3.04c-2.43-0.34-22.19-18.97-22.19-18.97s-2.75-5.13,3.12-3.53"/>
<path class="st4" d="M960.13,161.38c0,0,3.07,2.71,0.01,4.08s-43.89,0.76-43.89,0.76s-8.22-1.97-0.06-4.71"/>
<path class="st4" d="M960.5,167.55c0,0,3.07,2.71,0.01,4.08s-43.89,0.76-43.89,0.76s-8.22-1.97-0.06-4.71"/>
<path class="st4" d="M959.82,174.34c0,0,3.07,2.71,0.01,4.08s-43.89,0.76-43.89,0.76s-8.22-1.97-0.06-4.71"/>
<path class="st4" d="M960.5,181.13c0,0,3.07,2.71,0.01,4.08s-43.89,0.76-43.89,0.76s-8.22-1.97-0.06-4.71"/>
<path class="st5" d="M959.79,157.62c0,0,3.07,2.71,0.01,4.08c-3.06,1.37-43.89,0.76-43.89,0.76s-8.22-1.97-0.06-4.71"/>
<path class="st5" d="M960.16,163.78c0,0,3.07,2.71,0.01,4.08s-43.89,0.76-43.89,0.76s-8.22-1.97-0.06-4.71"/>
<path class="st5" d="M959.48,170.58c0,0,3.07,2.71,0.01,4.08s-43.89,0.76-43.89,0.76s-8.22-1.97-0.06-4.71"/>
<path class="st5" d="M960.16,177.37c0,0,3.07,2.71,0.01,4.08s-43.89,0.76-43.89,0.76s-8.22-1.97-0.06-4.71"/>
</svg>
