<?xml version="1.0" encoding="utf-8"?>
<!-- Generator: Adobe Illustrator 25.0.0, SVG Export Plug-In . SVG Version: 6.00 Build 0)  -->
<svg version="1.1" id="Layer_1" xmlns="http://www.w3.org/2000/svg" xmlns:xlink="http://www.w3.org/1999/xlink" x="0px" y="0px"
	 viewBox="0 0 1920 1080" style="enable-background:new 0 0 1920 1080;" xml:space="preserve">
<style type="text/css">
	.st0{fill:#583512;}
	.st1{fill:#4F6743;}
	.st2{fill:#F8C79C;}
	.st3{fill:#FFFFFF;stroke:#FFFFFF;stroke-miterlimit:10;}
	.st4{fill:none;stroke:#8D8894;stroke-miterlimit:10;}
	.st5{fill:#BA8E6E;}
	.st6{fill:#D12C2C;stroke:#000000;stroke-miterlimit:10;}
	.st7{fill:#724F35;}
	.st8{fill:#47280B;}
	.st9{stroke:#0C0C0C;stroke-miterlimit:10;}
	.st10{fill:#916D46;}
</style>
<polygon class="st0" points="690.82,444.16 673.49,420 662.06,392.63 660.07,377.95 657.84,345.36 664.3,316.25 672.99,295.6 
	681.44,272.47 702.56,241.87 731.88,214.75 765.17,196.83 782.56,192.11 804.67,187.38 837.97,187.13 872.75,188.87 900.83,195.59 
	925.92,208.78 935.36,215.49 947.29,215.25 978.35,203.55 1008.91,194.6 1034.25,192.85 1074.75,194.1 1112.51,201.81 1148.54,214 
	1176.36,231.42 1205.93,255.3 1211.65,270.73 1225.06,292.37 1227.55,304.06 1228.54,325.71 1221.83,348.85 1217.36,369 
	1204.19,390.64 1204.44,397.61 1224.57,416.02 1237.73,432.44 1243.2,454.08 1248.17,474.48 1244.44,499.61 1234.75,526.73 
	1214.88,551.36 1215.12,560.57 1236.99,582.46 1248.17,605.35 1246.93,633.68 1235.25,658.09 1229.53,666.55 1214.38,680.73 
	1213.14,686.7 1225.81,703.62 1235.5,716.56 1238.23,724.52 1238.98,747.9 1234.75,767.06 1232.27,776.51 1216.12,793.68 
	1208.42,797.66 1209.16,806.62 1215.12,812.34 1225.06,821.05 1230.78,835.48 1230.28,861.85 1226.55,874.04 1214.13,886.98 
	1196.49,893.69 1196.24,901.66 1201.21,910.61 1200.71,931.26 1205.19,949.42 1211.15,977.54 1220.34,1002.66 1221.83,1018.83 
	1223.82,1038.99 1226.06,1058.89 1223.82,1072.32 1215.37,1080.53 1144.31,1080.53 1057.35,1080.53 962.44,1081.03 809.64,1078.54 
	807.16,1070.33 805.67,1004.41 806.49,987.27 808.95,954.31 788.63,964.63 763.41,963.98 728.02,946.96 708.71,917.69 
	696.37,893.81 689.89,871.94 681.93,851.87 681.86,830.33 692.35,817.76 703.15,800.67 703.37,795.06 697.07,788.76 689.3,781.74 
	681.93,768.93 681.88,745.32 686.01,732.87 693.18,720.95 698.89,711.96 698.9,706.68 688.07,693.63 665.79,669.91 661.09,661.8 
	658.13,645.9 661.07,622.37 665.33,609.21 684.34,584.3 688.81,581.66 687.97,575.12 677.61,567.51 663.98,550.47 650.2,532.3 
	648.4,509.37 652.88,485.41 668.56,466.66 685.54,456.22 690.49,453.75 "/>
<polygon class="st1" points="859.46,784.47 857.37,798.81 851.68,814.68 837.31,824.37 844.96,834.65 845.92,853.1 832.52,877.14 
	826.36,883.27 819.19,883.27 819.19,888.37 827.3,906.34 814.87,949.86 808.95,954.31 805.67,1004.41 809.64,1078.54 
	1215.37,1080.53 1226.06,1058.89 1223.82,1038.99 1220.34,1002.66 1200.33,935.84 1186.92,963.47 1147.45,982.29 1104.99,973.43 
	1080.02,942.59 1080.71,893.91 1097.18,865.77 1080.36,846.24 1072.18,842.62 1060.99,822.6 1069.81,790.85 1050.95,768.23 
	1047.23,806.92 989.98,931.26 971.37,981.93 950.8,1010.56 926.85,981.26 909.61,935.07 886.27,875.03 869.05,824.23 "/>
<path class="st2" d="M757.24,674.42l5.92-272.01l9.87-29.64c0,0,16.43-25.86,21.71-30.96c5.27-5.09,20.96-12.37,31.57-15.15
	c10.61-2.78,33.59-1.86,33.59-1.86s22.14,0.52,30.21,1.86c8.07,1.34,28.76,3.91,37.49,11.2c8.74,7.29,15.79,13.17,15.79,13.17
	s44.49-17.27,47.36-17.78c2.87-0.51,32.32-6.11,36.83-6.59c4.51-0.48,28.37,2.9,30.91,3.95c2.54,1.05,29.63,11.99,33.54,13.83
	s12.45,10.6,15.79,13.83c3.34,3.23,12.02,22.35,12.5,24.37c0.48,2.02,6.69,24.31,6.58,27.66c-0.11,3.35-7.89,236.45-7.89,236.45
	l-7.89,43.47l-19.73,42.81l-40.68,37.83l-40.33,19.68l-40.18,22.12l-33.89-1.17l-56.99-16.04l-53.67-24.59l-38.81-32.56
	l-20.39-24.37L757.24,674.42z"/>
<polygon class="st3" points="863.81,788.04 879.31,795.45 914.08,805.75 936.3,811.48 947.6,812.65 970.19,812.65 986.59,805.44 
	994.8,800.35 1010.37,790.54 1022.25,785.21 1040.07,775.37 1044.04,770.86 1050.7,770.86 1050.7,780.5 1050.7,786.72 
	1048.69,791.76 1047.23,806.92 1041.62,817.79 1037.63,826.54 1028.54,841.5 1026.23,855.63 1020.28,862.11 1014.59,875.38 
	1008.89,889.22 1004.05,900.51 998.93,910.11 994.95,919.43 990.68,928.46 990.37,934.97 983.85,943.43 984.38,952.76 
	979.85,956.98 980.1,964.9 974.15,969.97 971.37,981.93 950.8,1010.56 926.85,981.26 922.22,961.87 916.04,953.08 913.25,942.61 
	905.98,922.79 896.75,897.31 886.27,875.03 875.47,845.49 871.88,821.72 865.16,805.29 "/>
<path class="st4" d="M921.67,807.69c0,0-2.17,9.67,0,10.86c2.17,1.19,8.08,3.92,7.62,7.11c-0.79,2.2-11.01,4.78-11.02,7.05
	s2.92,9.43,4.18,11.47c1.26,2.04,8.31,4.43,8.25,7.87c-0.06,3.44-12.66,12.87-12.43,15.34c0.23,2.47,0.79,10.41,2.25,11.61
	s9.11,5.2,8.58,9.67c-0.53,4.47-7.89,8.65-8.95,10.98s-0.01,9.93,0.7,15.23c0.71,5.29,6.94,8.21,8.08,12.77
	c1.14,4.55-9.06,9.84-9.06,9.84l0.1,15.23l9.72,17.97l-0.17,6.93l-2.66,3.64l-1.26,1.41"/>
<path class="st4" d="M947.6,812.65c0,0-5.91,5.68-5.91,9.47s15.56,9.86,15.56,13.74s-9.22,10.17-9.25,13.52s10.24,6.14,10.67,9.59
	c0.43,3.46-13.4,14.75-13.28,19.63c0.11,4.88,12.65,10.15,13.28,15.05c0.64,4.89-9.66,1.72-11.11,5.89
	c-1.45,4.16-0.23,9.85-0.22,13.3s7.66,6.65,8.06,11.55s-10.03,8.57-11.11,11.57c-1.08,2.99-0.17,10.71-0.22,13.96
	c-0.05,3.25,6.72,0.61,7.19,5.89c0.47,5.28-9.46,8.95-9.36,11.78s0.16,9.76,0.44,12.43c0.27,2.67,9.56,2.37,9.58,6.54
	s-7.4,13.74-7.4,13.74l-2.17,2.54"/>
<path class="st4" d="M975.67,809.7c0,0-3.81,7.51-3.43,9.54c0.38,2.03,13.14,11.99,13.23,13.87s-9.49,15.93-9.8,18.12
	c-0.31,2.2,3.53,14.33,3.2,16.61s-7.92,9.65-7.92,11.33s0.03,7.4,0,8.87c-0.03,1.47,10.31,7.06,10.37,9.63
	c0.06,2.56-11.12,9.73-11.12,11.7c0,1.98,0.02,9.2,0,10.57c-0.02,1.37,7.86,2.22,9.05,5.29c1.19,3.07-6.98,11.64-7.35,14.16
	c-0.37,2.52,1.89,27.94,1.89,27.94l1.61,3.67"/>
<line class="st4" x1="918.27" y1="832.7" x2="863.81" y2="802.49"/>
<line class="st4" x1="918.27" y1="867.38" x2="871.16" y2="830.44"/>
<line class="st4" x1="981.34" y1="827.49" x2="1050.2" y2="794.47"/>
<line class="st4" x1="977.46" y1="860.26" x2="1036.62" y2="832.7"/>
<path class="st5" d="M918.74,536.09l-54.23,84.63c-1.51,2.36-0.51,5.51,2.08,6.57l82.16,33.42l-0.28-1.43
	c-0.26-1.31-1.08-2.43-2.25-3.07l-62.89-34.24l0,0c-2.13-1.16-2.95-3.81-1.84-5.98l0.41-0.8l37.56-73.43
	c0.62-1.21,0.66-2.65,0.09-3.89L918.74,536.09z"/>
<path class="st5" d="M867.59,624.9"/>
<ellipse class="st6" cx="949.8" cy="710.39" rx="60" ry="23"/>
<polygon class="st7" points="1041.45,497.3 1034.82,494.1 986,484.13 985.72,484.71 973.87,478.98 973.67,477.76 971.6,476.83 
	973.58,474.04 982.46,477.48 982.95,476.47 989.05,479.13 990.96,479.1 995.17,479.83 996.01,479.05 1005.07,482.12 1011.57,483.96 
	1012.39,483.24 1015.73,484.46 1015.82,483.65 1018.87,485.13 1020.34,484.06 1026.2,486.57 1028.45,486.15 1033.42,488.55 
	1035.69,488.08 1041.94,490.77 1046.37,493.97 "/>
<polygon class="st7" points="814.51,503.36 820.67,499.06 868.13,480.92 868.5,481.46 879.52,473.76 879.54,472.52 881.47,471.25 
	879.06,468.81 870.68,473.73 870.04,472.81 864.31,476.48 862.4,476.77 858.29,478.2 857.32,477.58 848.7,482.15 842.46,485.07 
	841.52,484.49 838.36,486.27 838.15,485.48 835.31,487.46 833.68,486.65 828.18,490.13 825.86,490.09 821.24,493.32 818.89,493.23 
	813.03,496.96 809.07,500.88 "/>
<path class="st8" d="M836.11,524.39c0-5.96,5.15-10.79,11.49-10.79c6.35,0,11.49,4.83,11.49,10.79c0,4.3-3.03,7.31-3.54,7.79
	c-0.35,0.33-3.48,3.17-7.96,3c-0.64-0.02-5.54-0.14-8.9-4.22C838.11,530.24,836.11,527.75,836.11,524.39z"/>
<polygon class="st9" points="816.01,536.92 816.79,539.51 818.21,539.08 818.74,540.82 826.05,538.63 825.09,535.46 826.45,535.05 
	825.58,532.14 827.39,531.59 825.99,526.93 834.66,524.32 839.19,522.96 839.71,524.71 851.53,521.08 851.53,521.08 859.47,518.64 
	861.8,517.92 867.85,516.24 868.73,519.15 868.73,519.15 869.3,520.82 869.3,520.82 870.49,525.25 872.11,524.77 873.84,530.53 
	876.56,529.71 876.11,528.22 877.73,527.73 876.41,523.33 877.83,522.91 875.14,513.98 873.68,514.49 871.84,508.62 867.57,509.91 
	866.93,508.48 856.84,511.51 856.26,510.06 847.4,512.73 846.88,511.26 843.97,512.14 843.97,512.14 840.93,513.05 840.93,513.05 
	838.08,513.91 838.08,513.91 834.98,514.84 834.98,514.84 821.78,518.81 822.15,520.26 819.23,521.13 820.11,524.04 818.73,524.6 
	819.15,526.03 817.56,526.58 819.3,532.61 817.88,533.04 817.29,531.31 816.08,531.75 817.52,536.32 "/>
<polygon class="st9" points="971.93,518.49 971.59,521.17 973.06,521.36 972.83,523.17 980.4,524.14 980.82,520.86 982.23,521.04 
	982.61,518.03 984.49,518.27 985.11,513.44 994.09,514.59 998.78,515.2 998.55,517.01 1010.82,518.51 1010.82,518.51 
	1019.06,519.52 1021.48,519.81 1027.7,520.75 1027.31,523.76 1027.31,523.76 1027.15,525.51 1027.15,525.51 1026.43,530.05 
	1028.11,530.27 1027.34,536.23 1030.16,536.59 1030.36,535.05 1032.03,535.27 1032.62,530.71 1034.09,530.9 1035.28,521.65 
	1033.73,521.52 1034.44,515.41 1030.02,514.85 1030.02,513.28 1019.56,511.94 1019.63,510.38 1010.45,509.2 1010.58,507.65 
	1007.56,507.26 1007.56,507.26 1004.41,506.86 1004.41,506.86 1001.47,506.48 1001.47,506.48 998.25,506.07 998.25,506.07 
	984.58,504.32 984.32,505.78 981.31,505.39 980.92,508.41 979.43,508.35 979.24,509.83 977.56,509.68 976.69,515.9 975.21,515.71 
	975.38,513.9 974.1,513.8 973.55,518.57 "/>
<path class="st8" d="M994.77,520.6c0-5.96,5.15-10.79,11.49-10.79c6.35,0,11.49,4.83,11.49,10.79c0,4.3-3.03,7.31-3.54,7.79
	c-0.35,0.33-3.48,3.17-7.96,3c-0.64-0.02-5.54-0.14-8.9-4.22C996.77,526.46,994.77,523.97,994.77,520.6z"/>
<path class="st10" d="M996.53,874.78c1.04-1.7-0.68-2.69-0.11-6.66c0.36-2.52,1.31-3.95,3.11-7.32c3.2-6.02,2.99-6.78,4.68-9.77
	c3.67-6.5,9.09-10.72,14.28-14.77c8.02-6.26,16.45-6.44,19.97-11.84c0.53-0.81,1.82-2.85,1.53-5.48c-0.1-0.89-0.33-3.02-2.5-4.81
	c-2.27-1.87-5.84-2.69-8.91-2.28c-2.53,0.34-3.08,1.31-8,3.77c-3.72,1.86-4.57,1.88-7.21,3.15c-3.88,1.86-6.09,3.76-10.36,7.44
	c-6.2,5.35-10.13,9.93-11.11,11.09c-2.23,2.63-5.6,6.65-8.67,12.26c-4.22,7.69-2.33,8.25-6.98,17.68c-2.79,5.67-4.2,6.95-3.09,8.53
	C976.27,880.17,993.72,879.38,996.53,874.78z"/>
</svg>
