<?xml version="1.0" encoding="UTF-8"?>
<svg id="Layer_1" data-name="Layer 1" xmlns="http://www.w3.org/2000/svg" version="1.1" viewBox="0 0 1920 1080">
  <defs>
    <style>
      .cls-1 {
        fill: #47280b;
      }

      .cls-1, .cls-2, .cls-3, .cls-4, .cls-5, .cls-6 {
        stroke-width: 0px;
      }

      .cls-2 {
        fill: #724f35;
      }

      .cls-3 {
        fill: #583512;
      }

      .cls-4 {
        fill: #ba8e6e;
      }

      .cls-7 {
        stroke: #8d8894;
      }

      .cls-7, .cls-8 {
        fill: none;
      }

      .cls-7, .cls-8, .cls-9, .cls-10, .cls-11 {
        stroke-miterlimit: 10;
      }

      .cls-8, .cls-9 {
        stroke: #000;
      }

      .cls-9 {
        fill: #d12c2c;
      }

      .cls-5 {
        fill: #f8c79c;
      }

      .cls-6 {
        fill: #4f6743;
      }

      .cls-10 {
        fill: #000;
        stroke: #0c0c0c;
      }

      .cls-11 {
        fill: #fff;
        stroke: #fff;
      }
    </style>
  </defs>
  <polygon class="cls-3" points="1247.35 608.29 1234.6 590.54 1226.19 570.43 1224.73 559.64 1223.08 535.69 1227.84 514.3 1234.24 499.12 1240.45 482.12 1255.99 459.63 1277.57 439.7 1302.07 426.54 1314.86 423.07 1331.14 419.59 1355.63 419.41 1381.23 420.69 1401.89 425.63 1420.36 435.32 1427.3 440.25 1436.08 440.07 1458.93 431.48 1481.42 424.89 1500.07 423.61 1529.87 424.53 1557.66 430.2 1584.17 439.15 1604.65 451.95 1626.4 469.5 1630.61 480.84 1640.48 496.75 1642.31 505.34 1643.04 521.24 1638.1 538.25 1634.81 553.06 1625.12 568.96 1625.3 574.08 1640.11 587.61 1649.8 599.68 1653.83 615.58 1657.48 630.58 1654.74 649.04 1647.61 668.97 1632.98 687.07 1633.17 693.83 1649.26 709.92 1657.48 726.74 1656.57 747.56 1647.98 765.5 1643.77 771.72 1632.62 782.14 1631.7 786.53 1641.03 798.96 1648.16 808.47 1650.17 814.32 1650.72 831.5 1647.61 845.58 1645.78 852.53 1633.9 865.14 1628.23 868.07 1628.78 874.65 1633.17 878.86 1640.48 885.25 1644.68 895.86 1644.32 915.24 1641.58 924.2 1632.44 933.7 1619.45 938.64 1619.27 944.49 1622.93 951.07 1622.56 966.25 1625.85 979.59 1630.24 1000.25 1637.01 1018.72 1638.1 1030.6 1639.57 1045.41 1641.21 1060.04 1639.57 1069.91 1633.35 1075.94 1581.06 1075.94 1517.07 1075.94 1447.23 1076.31 1334.79 1074.48 1332.96 1068.45 1331.87 1020 1332.47 1007.4 1334.28 983.18 1319.33 990.77 1300.77 990.29 1274.73 977.78 1260.52 956.27 1251.44 938.73 1246.67 922.65 1240.82 907.9 1240.76 892.08 1248.48 882.84 1256.43 870.28 1256.59 866.16 1251.96 861.53 1246.24 856.37 1240.82 846.96 1240.78 829.61 1243.81 820.46 1249.09 811.69 1253.3 805.09 1253.3 801.21 1245.33 791.62 1228.94 774.19 1225.48 768.23 1223.3 756.55 1225.46 739.25 1228.6 729.58 1242.59 711.28 1245.88 709.34 1245.26 704.53 1237.63 698.94 1227.6 686.41 1217.46 673.06 1216.14 656.21 1219.44 638.61 1230.98 624.83 1243.47 617.15 1247.11 615.34 1247.35 608.29"/>
  <polygon class="cls-6" points="1371.45 858.38 1369.91 868.92 1365.72 880.58 1355.15 887.7 1360.78 895.25 1361.48 908.81 1351.63 926.48 1347.09 930.98 1341.82 930.98 1341.82 934.73 1347.79 947.93 1338.63 979.91 1334.28 983.18 1331.87 1020 1334.79 1074.48 1633.35 1075.94 1641.21 1060.04 1639.57 1045.41 1637.01 1018.72 1622.28 969.61 1612.41 989.92 1583.36 1003.75 1552.13 997.24 1533.75 974.57 1534.25 938.8 1546.38 918.12 1534 903.77 1527.98 901.11 1519.75 886.39 1526.23 863.06 1512.36 846.44 1509.62 874.87 1467.49 966.24 1453.8 1003.48 1438.66 1024.52 1421.04 1002.99 1408.35 969.05 1391.18 924.92 1378.51 887.59 1371.45 858.38"/>
  <polygon class="cls-11" points="1374.65 861 1386.06 866.44 1411.64 874.01 1428 878.23 1436.3 879.09 1452.93 879.09 1465 873.78 1471.04 870.04 1482.49 862.83 1491.24 858.92 1504.35 851.69 1507.27 848.37 1512.17 848.37 1512.17 855.46 1512.17 860.03 1510.69 863.73 1509.62 874.87 1505.49 882.86 1502.56 889.29 1495.87 900.28 1494.17 910.67 1489.79 915.43 1485.6 925.19 1481.41 935.35 1477.85 943.65 1474.08 950.7 1471.15 957.55 1468.01 964.19 1467.78 968.97 1462.98 975.19 1463.37 982.05 1460.04 985.15 1460.22 990.97 1455.85 994.7 1453.8 1003.48 1438.66 1024.52 1421.04 1002.99 1417.63 988.74 1413.08 982.28 1411.03 974.59 1405.68 960.02 1398.89 941.3 1391.18 924.92 1383.23 903.21 1380.59 885.75 1375.64 873.68 1374.65 861"/>
  <path class="cls-7" d="M1417.23,875.44s-1.6,7.1,0,7.98,5.94,2.88,5.6,5.23c-.58,1.61-8.1,3.52-8.11,5.18,0,1.66,2.15,6.93,3.07,8.43.92,1.5,6.12,3.26,6.07,5.78s-9.31,9.45-9.15,11.27c.17,1.81.58,7.65,1.65,8.54s6.71,3.82,6.31,7.11-5.8,6.36-6.59,8.07c-.79,1.71,0,7.3.51,11.19.52,3.89,5.11,6.04,5.95,9.38s-6.67,7.23-6.67,7.23l.07,11.19,7.15,13.21-.13,5.1-1.96,2.68-.92,1.03"/>
  <path class="cls-7" d="M1436.3,879.09s-4.35,4.18-4.35,6.96,11.45,7.25,11.45,10.1-6.79,7.47-6.81,9.94c-.02,2.46,7.54,4.51,7.85,7.05.32,2.54-9.86,10.84-9.77,14.42s9.31,7.46,9.77,11.06-7.11,1.27-8.17,4.33c-1.06,3.06-.17,7.24-.16,9.77,0,2.53,5.64,4.89,5.93,8.49.29,3.6-7.38,6.3-8.17,8.5-.79,2.2-.12,7.87-.16,10.26s4.94.45,5.29,4.33-6.96,6.58-6.89,8.65c.07,2.07.12,7.17.32,9.13.2,1.96,7.04,1.74,7.05,4.81.01,3.07-5.45,10.1-5.45,10.1l-1.59,1.86"/>
  <path class="cls-7" d="M1456.96,876.92s-2.81,5.52-2.52,7.01c.28,1.49,9.67,8.81,9.74,10.19.07,1.38-6.98,11.7-7.21,13.32s2.6,10.53,2.36,12.21-5.83,7.09-5.83,8.32.02,5.44,0,6.52,7.59,5.19,7.63,7.07-8.18,7.15-8.18,8.6.02,6.76,0,7.77c-.02,1.01,5.79,1.63,6.66,3.88.87,2.25-5.14,8.55-5.41,10.4s1.39,20.53,1.39,20.53l1.18,2.7"/>
  <line class="cls-7" x1="1414.73" y1="893.82" x2="1374.65" y2="871.62"/>
  <line class="cls-7" x1="1414.73" y1="919.3" x2="1380.06" y2="892.15"/>
  <line class="cls-7" x1="1461.13" y1="889.99" x2="1511.8" y2="865.72"/>
  <line class="cls-7" x1="1458.28" y1="914.07" x2="1501.81" y2="893.82"/>
  <path class="cls-5" d="M1296.23,777.5l4.36-199.89,7.26-21.78s12.09-19.01,15.97-22.75,15.43-9.09,23.23-11.13c7.81-2.04,24.72-1.37,24.72-1.37,0,0,16.29.38,22.23,1.37,5.94.98,21.16,2.87,27.59,8.23,6.43,5.36,11.62,9.68,11.62,9.68,0,0,32.74-12.69,34.85-13.07s23.78-4.49,27.1-4.84,20.88,2.13,22.75,2.9,21.8,8.81,24.68,10.16,9.16,7.79,11.62,10.16,8.84,16.42,9.2,17.91,4.92,17.86,4.84,20.33c-.08,2.46-5.81,173.76-5.81,173.76l-5.81,31.94-14.52,31.46-29.93,27.8-29.68,14.46-29.56,16.25-24.94-.86-41.94-11.78-39.5-18.07-28.56-23.93-15-17.91-6.78-29.04Z"/>
  <circle class="cls-1" cx="1370.18" cy="671.81" r="10.79"/>
  <path class="cls-1" d="M1463.45,671.81c0-5.96,5.15-10.79,11.49-10.79s11.49,4.83,11.49,10.79c0,4.3-3.03,7.31-3.54,7.79-.35.33-3.48,3.17-7.96,3-.64-.02-5.54-.14-8.9-4.22-.59-.72-2.59-3.21-2.59-6.57Z"/>
  <polygon class="cls-10" points="1338.02 676.41 1338.4 679.08 1339.88 678.88 1340.13 680.68 1347.69 679.61 1347.22 676.33 1348.63 676.13 1348.2 673.12 1350.07 672.85 1349.39 668.04 1358.35 666.76 1363.03 666.1 1363.29 667.9 1375.52 666.09 1375.52 666.09 1383.73 664.88 1386.15 664.51 1392.39 663.76 1392.81 666.77 1392.81 666.77 1393.13 668.5 1393.13 668.5 1393.64 673.07 1395.31 672.83 1396.16 678.79 1398.97 678.39 1398.75 676.85 1400.42 676.61 1399.78 672.06 1401.25 671.85 1399.93 662.62 1398.4 662.91 1397.47 656.83 1393.06 657.46 1392.64 655.95 1382.2 657.43 1381.85 655.91 1372.69 657.22 1372.4 655.69 1369.39 656.12 1369.39 656.12 1366.25 656.56 1366.25 656.56 1363.31 656.98 1363.31 656.98 1360.1 657.44 1360.1 657.44 1346.45 659.38 1346.59 660.86 1343.58 661.29 1344.01 664.3 1342.56 664.64 1342.77 666.11 1341.11 666.42 1341.92 672.65 1340.45 672.86 1340.13 671.06 1338.87 671.31 1339.61 676.05 1338.02 676.41"/>
  <polygon class="cls-10" points="1443.33 671.84 1443.13 674.54 1444.61 674.64 1444.48 676.46 1452.1 677.01 1452.34 673.71 1453.75 673.81 1453.97 670.78 1455.85 670.91 1456.2 666.06 1465.23 666.71 1469.95 667.05 1469.82 668.86 1482.15 669.68 1482.15 669.68 1490.44 670.23 1492.87 670.38 1499.13 670.97 1498.91 674 1498.91 674 1498.86 675.76 1498.86 675.76 1498.39 680.33 1500.08 680.45 1499.65 686.45 1502.48 686.65 1502.59 685.1 1504.27 685.22 1504.6 680.64 1506.08 680.74 1506.75 671.44 1505.2 671.4 1505.57 665.26 1501.12 664.94 1501.03 663.38 1490.52 662.63 1490.49 661.07 1481.26 660.41 1481.31 658.85 1478.27 658.63 1478.27 658.63 1475.11 658.41 1475.11 658.41 1472.14 658.19 1472.14 658.19 1468.91 657.96 1468.91 657.96 1455.16 656.98 1454.99 658.45 1451.95 658.24 1451.74 661.27 1450.24 661.3 1450.14 662.78 1448.45 662.73 1447.93 668.99 1446.45 668.88 1446.51 667.06 1445.23 667.03 1444.95 671.82 1443.33 671.84"/>
  <path class="cls-9" d="M1387.59,799c4.44-1.48,79.25.26,79.25.26,0,0,13.42-.23,13.13,0-.3.23,2.27,5.07-8.19,9.51-10.46,4.44-85.37,0-85.37,0,0,0-6.71-1.09-12.43-6.42-5.72-5.33,9.18-1.87,13.62-3.35Z"/>
  <path class="cls-4" d="M1415.07,675.85l-39.9,62.2c-1.11,1.73-.38,4.05,1.53,4.83l60.46,24.56-.21-1.05c-.19-.96-.8-1.79-1.66-2.26l-46.28-25.16h0c-1.57-.85-2.17-2.8-1.36-4.39l.3-.58,27.64-53.96c.46-.89.48-1.95.07-2.86l-.6-1.32Z"/>
  <path class="cls-4" d="M1377.43,741.11"/>
  <polygon class="cls-2" points="1338.57 624.94 1345 624.94 1387.15 636.92 1387.15 637.56 1398.65 637.56 1399.27 636.58 1401.25 636.63 1400.75 633.35 1392.47 632.6 1392.47 631.51 1386.66 631.25 1385.18 630.41 1381.59 629.26 1381.22 628.22 1372.94 627.07 1367.13 625.92 1366.76 624.94 1363.67 624.59 1363.91 623.84 1360.95 623.84 1360.21 622.29 1354.64 622 1353.04 620.67 1348.22 620.67 1346.61 619.29 1340.68 619 1335.98 619.92 1338.57 624.94"/>
  <polygon class="cls-2" points="1510.88 627.6 1504.09 627.6 1459.56 639.58 1459.56 640.22 1447.41 640.22 1446.76 639.24 1444.67 639.29 1445.19 636.01 1453.94 635.26 1453.94 634.17 1460.08 633.91 1461.65 633.07 1465.43 631.92 1465.83 630.88 1474.57 629.73 1480.71 628.58 1481.1 627.6 1484.37 627.25 1484.11 626.5 1487.24 626.5 1488.03 624.95 1493.9 624.66 1495.6 623.33 1500.69 623.33 1502.39 621.95 1508.66 621.66 1513.62 622.58 1510.88 627.6"/>
  <path class="cls-8" d="M777.45,481.44"/>
  <path class="cls-8" d="M1693.09,593.58"/>
</svg>