<?xml version="1.0" encoding="UTF-8"?>
<svg id="Layer_1" data-name="Layer 1" xmlns="http://www.w3.org/2000/svg" version="1.1" viewBox="0 0 1920 1080">
  <defs>
    <style>
      .cls-1 {
        fill: #724f35;
      }

      .cls-1, .cls-2, .cls-3, .cls-4, .cls-5 {
        stroke-width: 0px;
      }

      .cls-2 {
        fill: #583512;
      }

      .cls-3 {
        fill: #ba8e6e;
      }

      .cls-6 {
        stroke: #8d8894;
      }

      .cls-6, .cls-7 {
        fill: none;
      }

      .cls-6, .cls-7, .cls-8, .cls-9, .cls-10 {
        stroke-miterlimit: 10;
      }

      .cls-7, .cls-8 {
        stroke: #000;
      }

      .cls-8 {
        fill: #d12c2c;
      }

      .cls-4 {
        fill: #f8c79c;
      }

      .cls-5 {
        fill: #4f6743;
      }

      .cls-9 {
        fill: #000;
        stroke: #0c0c0c;
      }

      .cls-10 {
        fill: #fff;
        stroke: #fff;
      }
    </style>
  </defs>
  <polygon class="cls-2" points="1247.45 610.38 1234.7 592.62 1226.29 572.51 1224.83 561.73 1223.19 537.78 1227.94 516.38 1234.34 501.21 1240.55 484.21 1256.1 461.72 1277.67 441.79 1302.17 428.63 1314.97 425.15 1331.24 421.68 1355.74 421.5 1381.33 422.78 1401.99 427.71 1420.46 437.4 1427.4 442.34 1436.18 442.16 1459.03 433.56 1481.52 426.98 1500.17 425.7 1529.97 426.62 1557.76 432.28 1584.27 441.24 1604.75 454.04 1626.5 471.59 1630.71 482.93 1640.58 498.83 1642.41 507.43 1643.14 523.33 1638.21 540.34 1634.91 555.14 1625.22 571.05 1625.41 576.17 1640.22 589.7 1649.91 601.77 1653.93 617.67 1657.59 632.66 1654.84 651.13 1647.71 671.06 1633.09 689.16 1633.27 695.92 1649.36 712.01 1657.59 728.83 1656.67 749.65 1648.08 767.59 1643.87 773.81 1632.72 784.23 1631.81 788.62 1641.13 801.05 1648.26 810.55 1650.27 816.41 1650.82 833.59 1647.71 847.67 1645.88 854.62 1634 867.23 1628.33 870.16 1628.88 876.74 1633.27 880.94 1640.58 887.34 1644.79 897.95 1644.42 917.33 1641.68 926.28 1632.54 935.79 1619.56 940.73 1619.37 946.58 1623.03 953.16 1622.66 968.34 1625.96 981.68 1630.34 1002.34 1637.11 1020.81 1638.21 1032.69 1639.67 1047.5 1641.31 1062.13 1639.67 1072 1633.45 1078.03 1581.16 1078.03 1517.17 1078.03 1447.33 1078.4 1334.89 1076.57 1333.07 1070.54 1331.97 1022.09 1332.57 1009.49 1334.38 985.27 1319.43 992.85 1300.88 992.38 1274.83 979.87 1260.62 958.36 1251.54 940.82 1246.77 924.74 1240.92 909.99 1240.86 894.17 1248.58 884.93 1256.53 872.36 1256.7 868.24 1252.06 863.62 1246.34 858.46 1240.92 849.04 1240.88 831.7 1243.92 822.55 1249.19 813.78 1253.4 807.18 1253.4 803.3 1245.43 793.71 1229.04 776.27 1225.58 770.32 1223.41 758.63 1225.56 741.34 1228.7 731.67 1242.69 713.36 1245.98 711.42 1245.36 706.62 1237.74 701.03 1227.7 688.5 1217.56 675.15 1216.24 658.3 1219.54 640.69 1231.08 626.91 1243.57 619.24 1247.21 617.43 1247.45 610.38"/>
  <polygon class="cls-5" points="1371.55 860.46 1370.01 871 1365.83 882.67 1355.26 889.78 1360.88 897.34 1361.58 910.9 1351.73 928.57 1347.19 933.07 1341.92 933.07 1341.92 936.82 1347.89 950.02 1338.74 982 1334.38 985.27 1331.97 1022.09 1334.89 1076.57 1633.45 1078.03 1641.31 1062.13 1639.67 1047.5 1637.11 1020.81 1622.38 971.7 1612.52 992 1583.47 1005.84 1552.23 999.33 1533.85 976.66 1534.36 940.88 1546.48 920.21 1534.1 905.86 1528.09 903.2 1519.85 888.48 1526.34 865.15 1512.46 848.53 1509.72 876.96 1467.59 968.33 1453.9 1005.57 1438.77 1026.61 1421.14 1005.08 1408.45 971.14 1391.28 927.01 1378.61 889.68 1371.55 860.46"/>
  <polygon class="cls-10" points="1374.75 863.09 1386.16 868.53 1411.74 876.1 1428.1 880.31 1436.41 881.17 1453.03 881.17 1465.1 875.87 1471.14 872.13 1482.6 864.92 1491.34 861 1504.46 853.78 1507.38 850.46 1512.27 850.46 1512.27 857.54 1512.27 862.12 1510.8 865.82 1509.72 876.96 1505.59 884.95 1502.66 891.38 1495.97 902.37 1494.27 912.76 1489.89 917.52 1485.7 927.27 1481.51 937.44 1477.95 945.74 1474.18 952.79 1471.25 959.64 1468.11 966.28 1467.88 971.06 1463.08 977.27 1463.47 984.13 1460.14 987.24 1460.33 993.06 1455.95 996.78 1453.9 1005.57 1438.77 1026.61 1421.14 1005.08 1417.73 990.83 1413.19 984.37 1411.13 976.68 1405.78 962.11 1398.99 943.38 1391.28 927.01 1383.33 905.3 1380.69 887.84 1375.75 875.77 1374.75 863.09"/>
  <path class="cls-6" d="M1417.33,877.53s-1.6,7.1,0,7.98,5.94,2.88,5.6,5.23c-.58,1.61-8.1,3.52-8.11,5.18,0,1.66,2.15,6.93,3.07,8.43.92,1.5,6.12,3.26,6.07,5.78s-9.31,9.45-9.15,11.27.58,7.65,1.65,8.54,6.71,3.82,6.31,7.11-5.8,6.36-6.59,8.07c-.79,1.71,0,7.3.51,11.19.52,3.89,5.11,6.04,5.95,9.38.84,3.35-6.67,7.23-6.67,7.23l.07,11.19,7.15,13.21-.13,5.1-1.96,2.68-.92,1.03"/>
  <path class="cls-6" d="M1436.41,881.17s-4.35,4.18-4.35,6.96,11.45,7.25,11.45,10.1-6.79,7.47-6.81,9.94c-.02,2.46,7.54,4.51,7.85,7.05.32,2.54-9.86,10.84-9.77,14.42.08,3.58,9.31,7.46,9.77,11.06.47,3.6-7.11,1.27-8.17,4.33-1.06,3.06-.17,7.24-.16,9.77,0,2.53,5.64,4.89,5.93,8.49.29,3.6-7.38,6.3-8.17,8.5-.79,2.2-.12,7.87-.16,10.26-.04,2.39,4.94.45,5.29,4.33s-6.96,6.58-6.89,8.65c.07,2.07.12,7.17.32,9.13.2,1.96,7.04,1.74,7.05,4.81.01,3.07-5.45,10.1-5.45,10.1l-1.59,1.86"/>
  <path class="cls-6" d="M1457.07,879.01s-2.81,5.52-2.52,7.01c.28,1.49,9.67,8.81,9.74,10.19.07,1.38-6.98,11.7-7.21,13.32s2.6,10.53,2.36,12.21-5.83,7.09-5.83,8.32.02,5.44,0,6.52c-.02,1.08,7.59,5.19,7.63,7.07.04,1.88-8.18,7.15-8.18,8.6s.02,6.76,0,7.77,5.79,1.63,6.66,3.88c.87,2.25-5.14,8.55-5.41,10.4s1.39,20.53,1.39,20.53l1.18,2.7"/>
  <line class="cls-6" x1="1414.83" y1="895.91" x2="1374.75" y2="873.71"/>
  <line class="cls-6" x1="1414.83" y1="921.39" x2="1380.16" y2="894.24"/>
  <line class="cls-6" x1="1461.24" y1="892.08" x2="1511.91" y2="867.81"/>
  <line class="cls-6" x1="1458.38" y1="916.16" x2="1501.91" y2="895.91"/>
  <path class="cls-4" d="M1296.33,779.59l4.36-199.89,7.26-21.78s12.09-19.01,15.97-22.75c3.88-3.74,15.43-9.09,23.23-11.13,7.81-2.04,24.72-1.37,24.72-1.37,0,0,16.29.38,22.23,1.37,5.94.98,21.16,2.87,27.59,8.23,6.43,5.36,11.62,9.68,11.62,9.68,0,0,32.74-12.69,34.85-13.07s23.78-4.49,27.1-4.84,20.88,2.13,22.75,2.9,21.8,8.81,24.68,10.16,9.16,7.79,11.62,10.16,8.84,16.42,9.2,17.91c.35,1.49,4.92,17.86,4.84,20.33-.08,2.46-5.81,173.76-5.81,173.76l-5.81,31.94-14.52,31.46-29.93,27.8-29.68,14.46-29.56,16.25-24.94-.86-41.94-11.78-39.5-18.07-28.56-23.93-15-17.91-6.78-29.04Z"/>
  <path class="cls-9" d="M1338.13,678.5l.38,2.68,1.47-.21.26,1.81,7.56-1.08-.47-3.28c.16.53.32,1.05.48,1.58h1c1.33.33,2.67.67,4,1h2c2-.67,4-1.33,6-2h3c3.33-.33,6.67-.67,10-1,3-.67,6-1.33,9-2h7c.67-.33,1.33-.67,2-1,.65.05,1.29.11,1.94.16l1.67-.24.85,5.95,2.81-.4-.22-1.54,1.67-.24-.65-4.55,1.47-.21-1.31-9.23-1.53.29-.93-6.08-4.41.63-.42-1.51-10.43,1.48-.35-1.52-9.16,1.3-.29-1.53-3.01.43-3.14.45-2.94.42-3.21.46-13.64,1.94.14,1.48-3.01.43.43,3.01-1.45.34.21,1.47-1.66.3.82,6.23-1.47.21-.32-1.8c-.7,1.78-1.4,3.57-2.1,5.35Z"/>
  <path class="cls-9" d="M1511.64,674.26l-.19,2.7-1.49-.1-.13,1.82-7.66-.53.23-3.3c-.12.54-.24,1.07-.37,1.61l-1,.07c-1.31.43-2.63.86-3.94,1.28l-2.01.14c-2.06-.52-4.11-1.04-6.17-1.56l-3.01.22c-3.37-.09-6.74-.19-10.11-.28-3.06-.45-6.12-.9-9.18-1.35l-3.01.22-3.01.22-1,.07c-.69-.28-1.39-.57-2.08-.85-.64.1-1.29.2-1.93.3l-1.7-.12-.41,6-2.85-.2.11-1.55-1.7-.12.32-4.58-1.49-.1.64-9.3,1.56.18.49-6.13,4.48.31.31-1.54,10.58.73.24-1.54,9.29.64.17-1.55,3.05.21,3.19.22,2.98.21,3.26.22,13.84.96-.03,1.49,3.05.21-.21,3.03,1.48.24-.1,1.48,1.69.18-.36,6.27,1.49.1.19-1.82c.83,1.73,1.67,3.46,2.5,5.18Z"/>
  <path class="cls-8" d="M1387.7,801.09c4.44-1.48,79.25.26,79.25.26,0,0,13.42-.23,13.13,0-.3.23,5.2,21.21-5.26,25.65-10.46,4.44-97-4-97-4,0,0-3-7-3.73-18.56-.49-7.8,9.18-1.87,13.62-3.35Z"/>
  <path class="cls-3" d="M1415.18,677.94l-39.9,62.2c-1.11,1.73-.38,4.05,1.53,4.83l60.46,24.56-.21-1.05c-.19-.96-.8-1.79-1.66-2.26l-46.28-25.16h0c-1.57-.85-2.17-2.8-1.36-4.39l.3-.58,27.64-53.96c.46-.89.48-1.95.07-2.86l-.6-1.32Z"/>
  <path class="cls-3" d="M1377.53,743.2"/>
  <polygon class="cls-1" points="1493.29 629.71 1488.11 631.29 1456.76 650.29 1456.9 650.74 1447.63 653.57 1446.92 653.01 1445.33 653.54 1445.01 651.05 1451.52 648.47 1451.28 647.68 1455.91 646.07 1456.92 645.1 1459.56 643.39 1459.63 642.55 1466.05 639.69 1470.48 637.43 1470.57 636.63 1472.98 635.62 1472.62 635.14 1475.01 634.41 1475.27 633.11 1479.69 631.54 1480.69 630.18 1484.58 629 1485.57 627.61 1490.29 625.94 1494.28 625.46 1493.29 629.71"/>
  <polygon class="cls-1" points="1343.18 633.28 1348.6 634.4 1382.28 650.61 1382.18 651.08 1391.87 653.09 1392.54 652.47 1394.19 652.86 1394.28 650.35 1387.42 648.35 1387.58 647.54 1382.73 646.33 1381.61 645.46 1378.76 643.98 1378.61 643.15 1371.81 640.85 1367.09 638.98 1366.93 638.2 1364.38 637.4 1364.7 636.89 1362.2 636.37 1361.82 635.09 1357.17 633.91 1356.02 632.65 1351.96 631.81 1350.82 630.51 1345.86 629.26 1341.77 629.12 1343.18 633.28"/>
  <path class="cls-7" d="M1693.2,595.67"/>
</svg>