<?xml version="1.0" encoding="utf-8"?>
<!-- Generator: Adobe Illustrator 25.0.0, SVG Export Plug-In . SVG Version: 6.00 Build 0)  -->
<svg version="1.1" id="Layer_1" xmlns="http://www.w3.org/2000/svg" xmlns:xlink="http://www.w3.org/1999/xlink" x="0px" y="0px"
	 viewBox="0 0 1920 1080" style="enable-background:new 0 0 1920 1080;" xml:space="preserve">
<style type="text/css">
	.st0{fill:#583512;}
	.st1{fill:#4F6743;}
	.st2{fill:#FFFFFF;stroke:#FFFFFF;stroke-miterlimit:10;}
	.st3{fill:none;stroke:#8D8894;stroke-miterlimit:10;}
	.st4{fill:#F8C79C;}
	.st5{fill:#D12C2C;stroke:#000000;stroke-miterlimit:10;}
	.st6{fill:#BA8E6E;}
	.st7{fill:#724F35;}
	.st8{fill:#47280B;}
	.st9{stroke:#0C0C0C;stroke-miterlimit:10;}
</style>
<polygon class="st0" points="664.09,443.72 646.77,419.56 635.34,392.19 633.35,377.51 631.11,344.92 637.57,315.81 646.27,295.16 
	654.72,272.03 675.84,241.42 705.15,214.31 738.45,196.39 755.84,191.67 777.95,186.94 811.24,186.69 846.03,188.43 874.1,195.15 
	899.2,208.34 908.64,215.05 920.56,214.8 951.62,203.11 982.18,194.15 1007.52,192.41 1048.02,193.66 1085.79,201.37 
	1121.81,213.56 1149.64,230.98 1179.21,254.86 1184.92,270.28 1198.34,291.93 1200.82,303.62 1201.82,325.27 1195.11,348.4 
	1190.64,368.56 1177.47,390.2 1177.72,397.17 1197.84,415.58 1211.01,432 1216.48,453.64 1221.45,474.04 1217.72,499.17 
	1208.03,526.29 1188.15,550.92 1188.4,560.12 1210.27,582.02 1221.45,604.91 1220.2,633.24 1208.53,657.65 1202.81,666.11 
	1187.66,680.29 1186.41,686.26 1199.08,703.18 1208.77,716.11 1211.51,724.08 1212.25,747.46 1208.03,766.62 1205.54,776.07 
	1189.39,793.24 1181.69,797.22 1182.44,806.18 1188.4,811.9 1198.34,820.61 1204.05,835.04 1203.56,861.41 1199.83,873.6 
	1187.41,886.54 1169.77,893.25 1169.52,901.21 1174.49,910.17 1173.99,930.82 1178.46,948.98 1184.43,977.09 1193.62,1002.22 
	1195.11,1018.39 1197.1,1038.55 1199.33,1058.45 1197.1,1071.88 1188.65,1080.09 1117.59,1080.09 1030.63,1080.09 935.72,1080.59 
	782.92,1078.1 780.44,1069.89 778.94,1003.96 779.76,986.82 782.22,953.87 761.91,964.18 736.69,963.53 701.3,946.52 681.99,917.25 
	669.65,893.37 663.16,871.5 655.21,851.42 655.14,829.89 665.62,817.32 676.43,800.22 676.65,794.62 670.35,788.32 662.58,781.3 
	655.21,768.49 655.16,744.88 659.28,732.43 666.45,720.5 672.17,711.52 672.18,706.24 661.35,693.19 639.07,669.46 634.37,661.36 
	631.41,645.46 634.34,621.93 638.61,608.77 657.62,583.86 662.09,581.22 661.25,574.68 650.89,567.07 637.25,550.03 623.47,531.85 
	621.68,508.93 626.16,484.97 641.84,466.22 658.81,455.78 663.76,453.31 "/>
<polygon class="st1" points="832.74,784.03 830.64,798.37 824.96,814.24 810.59,823.93 818.23,834.21 819.19,852.66 805.8,876.7 
	799.64,882.83 792.47,882.83 792.47,887.93 800.58,905.9 788.14,949.42 782.22,953.87 778.94,1003.96 782.92,1078.1 
	1188.65,1080.09 1199.33,1058.45 1197.1,1038.55 1193.62,1002.22 1173.6,935.4 1160.2,963.03 1120.72,981.85 1078.27,972.99 
	1053.3,942.15 1053.98,893.46 1070.46,865.33 1053.64,845.8 1045.46,842.18 1034.27,822.15 1043.08,790.41 1024.22,767.79 
	1020.51,806.47 963.26,930.81 944.65,981.49 924.08,1010.12 900.12,980.82 882.88,934.63 859.55,874.58 842.33,823.78 "/>
<polygon class="st2" points="837.09,787.6 852.59,795.01 887.36,805.3 909.58,811.04 920.87,812.21 943.47,812.21 959.87,805 
	968.08,799.91 983.64,790.09 995.52,784.76 1013.35,774.93 1017.32,770.42 1023.97,770.42 1023.97,780.06 1023.97,786.28 
	1021.96,791.32 1020.51,806.47 1014.89,817.35 1010.91,826.1 1001.82,841.06 999.51,855.19 993.56,861.67 987.86,874.94 
	982.17,888.78 977.33,900.07 972.21,909.67 968.22,918.99 963.95,928.02 963.65,934.52 957.12,942.98 957.66,952.32 953.12,956.54 
	953.38,964.46 947.43,969.53 944.65,981.49 924.08,1010.12 900.12,980.82 895.5,961.43 889.31,952.64 886.53,942.17 879.25,922.35 
	870.02,896.87 859.55,874.58 848.74,845.04 845.16,821.28 838.44,804.85 "/>
<path class="st3" d="M894.95,807.25c0,0-2.17,9.67,0,10.86c2.17,1.19,8.08,3.92,7.62,7.11c-0.79,2.2-11.01,4.78-11.02,7.05
	c0,2.26,2.92,9.43,4.18,11.47c1.26,2.04,8.31,4.43,8.25,7.87c-0.06,3.44-12.66,12.87-12.43,15.34c0.23,2.47,0.79,10.41,2.25,11.61
	s9.11,5.2,8.58,9.67c-0.53,4.47-7.89,8.65-8.95,10.98s-0.01,9.93,0.7,15.23s6.94,8.21,8.08,12.77c1.14,4.55-9.06,9.84-9.06,9.84
	l0.1,15.23l9.72,17.97l-0.17,6.93l-2.66,3.64l-1.26,1.41"/>
<path class="st3" d="M920.87,812.21c0,0-5.91,5.68-5.91,9.47c0,3.79,15.56,9.86,15.56,13.74s-9.22,10.17-9.25,13.52
	c-0.03,3.35,10.24,6.14,10.67,9.59c0.43,3.46-13.4,14.75-13.28,19.63s12.65,10.15,13.28,15.05c0.64,4.89-9.66,1.72-11.11,5.89
	s-0.23,9.85-0.22,13.3s7.66,6.65,8.06,11.55c0.4,4.9-10.03,8.57-11.11,11.57c-1.08,2.99-0.17,10.71-0.22,13.96s6.72,0.61,7.19,5.89
	c0.47,5.28-9.46,8.95-9.36,11.78c0.1,2.82,0.16,9.76,0.44,12.43s9.56,2.37,9.58,6.54c0.02,4.17-7.4,13.74-7.4,13.74l-2.17,2.54"/>
<path class="st3" d="M948.95,809.26c0,0-3.81,7.51-3.43,9.54c0.38,2.03,13.14,11.99,13.23,13.87s-9.49,15.93-9.8,18.12
	s3.53,14.33,3.2,16.61c-0.33,2.28-7.92,9.65-7.92,11.33c0,1.67,0.03,7.4,0,8.87s10.31,7.06,10.37,9.63
	c0.06,2.56-11.12,9.73-11.12,11.7c0,1.98,0.02,9.2,0,10.57c-0.02,1.37,7.86,2.22,9.05,5.29c1.19,3.07-6.98,11.64-7.35,14.16
	c-0.37,2.52,1.89,27.94,1.89,27.94l1.61,3.67"/>
<line class="st3" x1="891.55" y1="832.26" x2="837.09" y2="802.05"/>
<line class="st3" x1="891.55" y1="866.94" x2="844.43" y2="829.99"/>
<line class="st3" x1="954.61" y1="827.05" x2="1023.47" y2="794.03"/>
<line class="st3" x1="950.73" y1="859.82" x2="1009.89" y2="832.26"/>
<path class="st4" d="M730.51,673.97l5.92-272.01l9.87-29.64c0,0,16.43-25.86,21.71-30.96c5.27-5.09,20.96-12.37,31.57-15.15
	c10.61-2.78,33.59-1.86,33.59-1.86s22.14,0.52,30.21,1.86c8.07,1.34,28.76,3.91,37.49,11.2s15.79,13.17,15.79,13.17
	s44.49-17.27,47.36-17.78c2.87-0.51,32.32-6.11,36.83-6.59c4.51-0.48,28.37,2.9,30.91,3.95c2.54,1.05,29.63,11.99,33.55,13.83
	c3.92,1.84,12.45,10.6,15.79,13.83c3.34,3.23,12.02,22.35,12.5,24.37c0.48,2.02,6.69,24.31,6.58,27.66s-7.89,236.45-7.89,236.45
	l-7.89,43.47l-19.73,42.81l-40.68,37.83l-40.33,19.68l-40.18,22.12l-33.89-1.17l-56.99-16.04l-53.67-24.59l-38.81-32.56
	l-20.39-24.37L730.51,673.97z"/>
<path class="st5" d="M854.68,703.23c6.04-2.01,107.7,0.35,107.7,0.35s18.24-0.32,17.84,0c-0.4,0.32-8.91,3.61-31.91,5.61
	c-15.39,1.34-97,0-97,0s1,0-15.13-1.4C825.57,706.88,848.64,705.24,854.68,703.23z"/>
<path class="st6" d="M892.02,535.65l-54.23,84.63c-1.51,2.36-0.51,5.51,2.08,6.57l82.16,33.42l-0.28-1.43
	c-0.26-1.31-1.08-2.43-2.25-3.07l-62.89-34.24l0,0c-2.13-1.16-2.95-3.81-1.84-5.98l0.41-0.8l37.56-73.43
	c0.62-1.21,0.66-2.65,0.09-3.89L892.02,535.65z"/>
<path class="st6" d="M840.86,624.46"/>
<polygon class="st7" points="1014.72,496.86 1008.1,493.66 959.28,483.69 958.99,484.27 947.14,478.53 946.94,477.32 944.88,476.39 
	946.86,473.6 955.73,477.04 956.22,476.03 962.33,478.69 964.23,478.66 968.44,479.38 969.29,478.61 978.34,481.68 984.85,483.52 
	985.67,482.8 989.01,484.02 989.09,483.2 992.15,484.68 993.61,483.62 999.48,486.13 1001.73,485.71 1006.69,488.11 1008.97,487.64 
	1015.22,490.33 1019.65,493.53 "/>
<polygon class="st7" points="787.78,502.92 793.94,498.62 841.4,480.48 841.78,481.02 852.8,473.32 852.81,472.08 854.74,470.8 
	852.34,468.37 843.96,473.29 843.31,472.37 837.59,476.04 835.68,476.33 831.56,477.76 830.6,477.13 821.98,481.71 815.73,484.63 
	814.8,484.05 811.63,485.83 811.43,485.04 808.59,487.02 806.96,486.21 801.46,489.69 799.14,489.65 794.52,492.88 792.16,492.79 
	786.3,496.52 782.34,500.44 "/>
<path class="st8" d="M809.39,523.95c0-5.96,5.15-10.79,11.49-10.79c6.35,0,11.49,4.83,11.49,10.79c0,4.3-3.03,7.31-3.54,7.79
	c-0.35,0.33-3.48,3.17-7.96,3c-0.64-0.02-5.54-0.14-8.9-4.22C811.39,529.8,809.39,527.31,809.39,523.95z"/>
<polygon class="st9" points="789.29,536.48 790.07,539.06 791.49,538.64 792.01,540.38 799.33,538.18 798.37,535.01 799.73,534.6 
	798.85,531.69 800.67,531.15 799.26,526.49 807.93,523.88 812.46,522.52 812.99,524.27 824.81,520.64 824.81,520.64 832.74,518.2 
	835.07,517.48 841.13,515.8 842.01,518.71 842.01,518.71 842.58,520.37 842.58,520.37 843.77,524.81 845.39,524.33 847.12,530.08 
	849.84,529.27 849.39,527.78 851.01,527.29 849.68,522.89 851.11,522.46 848.42,513.54 846.95,514.05 845.12,508.18 840.85,509.47 
	840.2,508.04 830.11,511.07 829.54,509.62 820.67,512.29 820.16,510.82 817.25,511.7 817.25,511.7 814.21,512.61 814.21,512.61 
	811.36,513.47 811.36,513.47 808.26,514.4 808.26,514.4 795.06,518.37 795.42,519.82 792.51,520.69 793.39,523.6 792,524.16 
	792.43,525.58 790.83,526.13 792.58,532.17 791.15,532.6 790.56,530.87 789.35,531.31 790.8,535.88 "/>
<polygon class="st9" points="945.21,518.05 944.86,520.73 946.34,520.92 946.1,522.73 953.68,523.7 954.1,520.42 955.5,520.6 
	955.89,517.58 957.77,517.83 958.39,513 967.37,514.15 972.06,514.76 971.82,516.56 984.1,518.07 984.1,518.07 992.34,519.08 
	994.76,519.37 1000.97,520.31 1000.59,523.32 1000.59,523.32 1000.43,525.07 1000.43,525.07 999.71,529.61 1001.39,529.83 
	1000.62,535.79 1003.44,536.15 1003.63,534.61 1005.31,534.82 1005.89,530.27 1007.37,530.46 1008.55,521.21 1007,521.08 
	1007.72,514.97 1003.3,514.41 1003.29,512.84 992.84,511.5 992.9,509.94 983.72,508.76 983.85,507.21 980.84,506.82 980.84,506.82 
	977.69,506.42 977.69,506.42 974.74,506.04 974.74,506.04 971.53,505.63 971.53,505.63 957.86,503.87 957.6,505.34 954.58,504.95 
	954.2,507.97 952.71,507.91 952.52,509.39 950.83,509.24 949.97,515.46 948.49,515.27 948.66,513.45 947.37,513.36 946.83,518.12 
	"/>
<path class="st8" d="M968.05,520.16c0-5.96,5.15-10.79,11.49-10.79c6.35,0,11.49,4.83,11.49,10.79c0,4.3-3.03,7.31-3.54,7.79
	c-0.35,0.33-3.48,3.17-7.96,3c-0.64-0.02-5.54-0.14-8.9-4.22C970.05,526.01,968.05,523.53,968.05,520.16z"/>
</svg>
