<?xml version="1.0" encoding="utf-8"?>
<!-- Generator: Adobe Illustrator 25.0.0, SVG Export Plug-In . SVG Version: 6.00 Build 0)  -->
<svg version="1.1" id="Layer_1" xmlns="http://www.w3.org/2000/svg" xmlns:xlink="http://www.w3.org/1999/xlink" x="0px" y="0px"
	 viewBox="0 0 1920 1080" style="enable-background:new 0 0 1920 1080;" xml:space="preserve">
<style type="text/css">
	.st0{fill:#583512;}
	.st1{fill:#4F6743;}
	.st2{fill:#FFFFFF;stroke:#FFFFFF;stroke-miterlimit:10;}
	.st3{fill:none;stroke:#8D8894;stroke-miterlimit:10;}
	.st4{fill:#F8C79C;}
	.st5{fill:#D12C2C;stroke:#000000;stroke-miterlimit:10;}
	.st6{fill:#BA8E6E;}
	.st7{fill:#724F35;}
	.st8{fill:#47280B;}
	.st9{stroke:#0C0C0C;stroke-miterlimit:10;}
</style>
<polygon class="st0" points="1312.72,292.1 1309.29,278.85 1308.92,265.2 1310.5,258.57 1314.94,244.2 1322.54,232.77 
	1329.7,225.34 1337.17,216.8 1351.31,207.16 1368.4,200.38 1385.67,198.21 1393.92,199.06 1404.2,200.7 1418.55,206.11 
	1433.2,212.63 1444.14,220.17 1452.73,229.99 1455.67,234.44 1460.83,236.32 1476.11,236.44 1490.72,237.67 1501.9,241.12 
	1519.08,248.37 1534.02,257.95 1547.47,269.16 1556.54,281.25 1565.28,296.41 1565.17,303.98 1567.34,315.5 1566.47,320.94 
	1563.31,330.4 1556.59,339.22 1551.33,347.14 1542.08,354.25 1541.04,357.28 1546.63,368.53 1549.56,377.76 1548.32,387.97 
	1547.07,397.55 1541.3,407.73 1532.64,417.76 1520.02,425.05 1518.6,429.04 1524.36,442.07 1525.37,453.75 1520.13,465.72 
	1511.07,474.26 1507.21,476.95 1498.35,480.53 1496.83,482.89 1499.47,492.25 1501.48,499.42 1501.34,503.29 1497.78,513.46 
	1492.79,520.98 1490.15,524.63 1480.37,529.33 1476.4,529.76 1475.24,533.73 1476.85,537.18 1479.67,542.56 1479.73,549.71 
	1475.15,560.95 1471.52,565.57 1464.04,569.07 1455.35,569.03 1453.93,572.4 1454.57,577.07 1450.94,585.86 1449.85,594.4 
	1447.74,607.47 1447.53,619.78 1445.48,626.97 1443,635.96 1440.66,644.88 1437.47,650.28 1432.48,652.4 1401.96,640.62 
	1364.61,626.2 1323.77,610.67 1258.55,584.26 1258.85,580.33 1269.14,551.76 1272.34,544.54 1278.86,530.79 1268.42,531.85 
	1257.7,527.39 1245.32,514.21 1241.88,498.44 1240.54,486.14 1241.38,475.67 1241.29,465.73 1244.83,456.47 1251.42,452.81 
	1258.9,447.26 1259.92,444.89 1258.26,441.14 1256.09,436.83 1255.05,430.11 1258.94,419.96 1262.78,415.3 1267.84,411.37 
	1271.78,408.45 1272.66,406.19 1270.17,398.79 1264.54,384.9 1263.86,380.64 1265.23,373.32 1270.39,363.7 1274.41,358.76 
	1286.7,351.21 1289.06,350.82 1289.78,347.87 1286.59,342.89 1283.56,333.31 1280.66,323.22 1283.69,313.07 1289.59,303.53 
	1299.43,298.07 1308.45,296.4 1310.99,296.16 "/>
<polygon class="st1" points="1328.72,466.23 1325.44,472.04 1320.37,477.91 1312.59,479.69 1314.17,485.37 1311.52,493.45 
	1301.78,501.56 1298.12,503.17 1295.04,501.98 1294.19,504.17 1294.7,513.23 1282.14,529.86 1278.86,530.79 1269.14,551.76 
	1258.55,584.26 1432.48,652.4 1440.66,644.88 1443,635.96 1447.53,619.78 1450.01,587.76 1439.67,597.41 1419.6,598.94 
	1402.83,588.1 1397.22,570.71 1405.59,549.92 1417.33,540.57 1413.35,529.39 1410.43,526.48 1408.95,516.02 1418,503.85 
	1413.65,491.01 1405.64,507 1360.43,550.91 1344.04,569.59 1330.45,578.47 1325.02,561.92 1325.28,539.22 1325.22,509.56 
	1326.24,484.89 "/>
<polygon class="st2" points="1329.99,468.48 1335.42,474.23 1348.65,484.42 1357.24,490.57 1361.9,492.94 1371.6,496.69 
	1379.84,496.31 1384.21,495.49 1392.52,493.85 1398.51,493.54 1407.8,492.27 1410.25,490.99 1413.11,492.09 1411.51,496.23 
	1410.48,498.9 1408.78,500.73 1405.64,507 1401.42,510.74 1398.26,513.84 1391.88,518.76 1388.54,524.44 1384.91,526.24 
	1380.26,531 1375.52,535.99 1371.57,540.04 1367.78,543.31 1364.53,546.66 1361.19,549.83 1359.98,552.57 1355.78,555.12 
	1354.46,559.22 1351.81,560.28 1350.61,563.72 1347.21,564.91 1344.04,569.59 1330.45,578.47 1325.02,561.92 1326.25,552.82 
	1325.05,548.02 1325.59,543.06 1325.76,533.35 1326.02,520.87 1325.22,509.56 1325.47,495.08 1327.87,484.28 1327.71,476.11 "/>
<path class="st3" d="M1351.59,486.51c0,0-2.53,3.79-1.8,4.66c0.73,0.87,2.82,3.02,2.09,4.32c-0.7,0.81-5.52,0.23-5.9,1.2
	c-0.38,0.97-0.31,4.53-0.11,5.62s2.83,3.28,2.24,4.75c-0.59,1.47-7.57,3.43-7.88,4.53c-0.31,1.1-1.39,4.6-0.96,5.36
	c0.43,0.76,3.05,3.75,2.08,5.58s-4.82,2.41-5.67,3.23c-0.84,0.82-1.65,4.26-2.23,6.66s1.62,4.68,1.35,6.82
	c-0.27,2.14-5.53,2.72-5.53,2.72l-2.48,6.56l1.2,9.33l-1.23,2.95l-1.75,1.12l-0.77,0.4"/>
<path class="st3" d="M1361.9,492.94c0,0-3.48,1.46-4.11,3.09c-0.63,1.63,5.05,6.82,4.41,8.48s-5.65,2.84-6.21,4.27
	s3.38,4.33,2.99,5.89s-8.2,4.11-8.96,6.23c-0.76,2.11,3.75,6.46,3.21,8.66c-0.54,2.21-4.43-0.86-5.75,0.69s-1.73,4.19-2.3,5.68
	c-0.57,1.48,2.19,4.13,1.55,6.3s-5.73,2.02-6.69,3.13c-0.96,1.11-1.85,4.57-2.41,5.96c-0.56,1.39,2.78,1.38,2.11,3.72
	c-0.67,2.34-5.55,2.28-5.97,3.5c-0.43,1.23-1.55,4.22-1.87,5.41c-0.33,1.19,3.71,2.6,3.03,4.4c-0.68,1.8-5.46,4.67-5.46,4.67
	l-1.35,0.73"/>
<path class="st3" d="M1374.44,496.33c0,0-2.88,2.59-3.06,3.53c-0.17,0.94,3.66,7.33,3.38,8.15s-6.72,5.27-7.21,6.16
	s-0.86,6.74-1.38,7.67s-5,2.83-5.28,3.55c-0.28,0.72-1.21,3.18-1.47,3.81s3.26,4.74,2.86,5.85c-0.4,1.11-6.39,2.33-6.72,3.18
	s-1.52,3.95-1.75,4.54s3.01,2.26,3.01,3.77c0,1.51-4.93,3.84-5.51,4.86c-0.58,1.02-3.82,12.31-3.82,12.31l0.08,1.84"/>
<line class="st3" x1="1345.98" y1="496.69" x2="1327.6" y2="474.69"/>
<line class="st3" x1="1340.23" y1="511.59" x2="1326.12" y2="487.91"/>
<line class="st3" x1="1373.93" y1="504.91" x2="1408.98" y2="502.15"/>
<line class="st3" x1="1366.83" y1="518.34" x2="1396.8" y2="516.32"/>
<path class="st4" d="M1303.06,402.01l47.65-115.84l9.15-11.09c0,0,11.35-8.38,14.46-9.7c3.11-1.31,11.05-1.83,16.07-1.27
	s14.74,4.77,14.74,4.77s9.42,3.9,12.67,5.81c3.24,1.91,11.7,6.45,14.25,11.03c2.54,4.58,4.6,8.28,4.6,8.28s21.97-0.04,23.29,0.22
	c1.32,0.26,14.9,2.74,16.91,3.28c2.02,0.54,11.7,5.95,12.62,6.82c0.92,0.87,10.74,10.06,12.11,11.5c1.38,1.44,3.59,6.62,4.49,8.56
	c0.9,1.94,1.45,11.59,1.33,12.54c-0.13,0.95-1.16,11.55-1.76,12.97s-42.6,100.24-42.6,100.24l-10.6,17.36l-15.57,15.11l-23.74,9.5
	l-20.58,1.76l-20.92,2.84l-14.36-6.12l-21.82-16.34l-18.97-19.46l-11.27-20.42l-4.72-13.85L1303.06,402.01z"/>
<path class="st5" d="M1351.54,435.16c2.93,0.14,46.19,18.01,46.19,18.01s7.89,2.89,7.66,2.96c-0.23,0.07-4.43,0.07-14.64-2.88
	c-6.83-1.98-41.66-16.09-41.66-16.09s0.43,0.17-6.27-3.11C1338.43,431.9,1348.61,435.02,1351.54,435.16z"/>
<path class="st6" d="M1395.37,369.38l-37.32,27.36c-1.04,0.76-1.13,2.28-0.2,3.17l29.74,27.98l0.12-0.66
	c0.11-0.6-0.06-1.22-0.46-1.69l-21.33-25.14l0,0c-0.72-0.85-0.64-2.13,0.2-2.87l0.31-0.27l28.31-25.31
	c0.47-0.42,0.72-1.03,0.68-1.66L1395.37,369.38z"/>
<path class="st6" d="M1358.67,399.04"/>
<polygon class="st7" points="1454.5,373.07 1452.19,370.59 1432.87,358.22 1432.65,358.42 1428.51,353.99 1428.63,353.44 
	1427.9,352.69 1429.21,351.83 1432.45,354.77 1432.83,354.42 1435.01,356.58 1435.83,356.88 1437.52,357.89 1438.01,357.7 
	1441.39,360.52 1443.88,362.38 1444.35,362.21 1445.59,363.29 1445.76,362.95 1446.82,364.1 1447.63,363.88 1449.73,365.93 
	1450.77,366.12 1452.5,367.98 1453.56,368.15 1455.79,370.35 1457.17,372.45 "/>
<polygon class="st7" points="1356.03,338.04 1359.39,337.21 1382.78,337.29 1382.85,337.58 1388.86,336.11 1389.07,335.58 
	1390.11,335.35 1389.48,333.91 1385.07,334.63 1384.94,334.12 1381.88,334.75 1381.01,334.56 1379,334.49 1378.69,334.06 
	1374.23,334.6 1371.06,334.82 1370.76,334.41 1369.1,334.65 1369.15,334.28 1367.6,334.66 1367.03,334.04 1364.09,334.62 
	1363.1,334.22 1360.58,334.84 1359.59,334.41 1356.45,335.04 1354.1,336.07 "/>
<path class="st8" d="M1361.82,350.65c0.99-2.56,4-3.78,6.73-2.73c2.73,1.05,4.14,3.98,3.15,6.54c-0.71,1.85-2.51,2.64-2.81,2.76
	c-0.21,0.08-2.02,0.78-3.92-0.03c-0.27-0.12-2.36-0.98-3.12-3.29C1361.71,353.5,1361.26,352.1,1361.82,350.65z"/>
<polygon class="st9" points="1351.11,352.7 1351.01,353.94 1351.7,353.99 1351.63,354.83 1355.14,355.1 1355.25,353.58 
	1355.9,353.63 1356.01,352.23 1356.88,352.3 1357.05,350.06 1361.21,350.38 1363.38,350.55 1363.31,351.39 1368.99,351.79 
	1368.99,351.79 1372.8,352.06 1373.92,352.13 1376.8,352.42 1376.7,353.81 1376.7,353.81 1376.67,354.62 1376.67,354.62 
	1376.44,356.72 1377.22,356.78 1377.01,359.54 1378.31,359.64 1378.36,358.93 1379.14,358.99 1379.3,356.88 1379.98,356.93 
	1380.31,352.65 1379.59,352.63 1379.78,349.8 1377.73,349.65 1377.69,348.93 1372.86,348.56 1372.85,347.84 1368.6,347.52 
	1368.62,346.8 1367.23,346.69 1367.23,346.69 1365.77,346.58 1365.77,346.58 1364.4,346.48 1364.4,346.48 1362.92,346.36 
	1362.92,346.36 1356.59,345.88 1356.51,346.56 1355.11,346.45 1355,347.85 1354.32,347.86 1354.26,348.54 1353.49,348.51 
	1353.24,351.4 1352.55,351.34 1352.59,350.5 1351.99,350.49 1351.86,352.69 "/>
<polygon class="st9" points="1421.13,370.64 1420.54,371.74 1421.14,372.06 1420.74,372.8 1423.83,374.47 1424.55,373.13 
	1425.13,373.44 1425.8,372.21 1426.56,372.63 1427.63,370.66 1431.29,372.64 1433.21,373.68 1432.81,374.42 1437.83,377.1 
	1437.83,377.1 1441.2,378.9 1442.19,379.43 1444.71,380.86 1444.04,382.09 1444.04,382.09 1443.68,382.82 1443.68,382.82 
	1442.62,384.65 1443.3,385.02 1441.99,387.45 1443.14,388.07 1443.48,387.44 1444.16,387.81 1445.17,385.95 1445.77,386.28 
	1447.81,382.5 1447.17,382.19 1448.49,379.69 1446.68,378.71 1446.94,378.04 1442.67,375.73 1442.96,375.07 1439.21,373.04 
	1439.53,372.4 1438.29,371.73 1438.29,371.73 1437.01,371.03 1437.01,371.03 1435.81,370.38 1435.81,370.38 1434.49,369.67 
	1434.49,369.67 1428.91,366.65 1428.56,367.24 1427.33,366.57 1426.66,367.8 1426.03,367.53 1425.71,368.13 1425.01,367.79 
	1423.6,370.32 1423,369.99 1423.37,369.24 1422.84,368.99 1421.81,370.94 "/>
<path class="st8" d="M1430.59,375.34c0.99-2.56,4-3.78,6.73-2.73c2.73,1.05,4.14,3.98,3.15,6.54c-0.71,1.85-2.51,2.64-2.81,2.76
	c-0.21,0.08-2.02,0.78-3.92-0.03c-0.27-0.12-2.36-0.98-3.12-3.29C1430.48,378.18,1430.03,376.78,1430.59,375.34z"/>
</svg>
