<?xml version="1.0" encoding="UTF-8"?>
<svg id="Layer_1" data-name="Layer 1" xmlns="http://www.w3.org/2000/svg" version="1.1" viewBox="0 0 1920 1080">
  <defs>
    <style>
      .cls-1 {
        fill: #916d46;
      }

      .cls-1, .cls-2, .cls-3, .cls-4, .cls-5, .cls-6, .cls-7, .cls-8, .cls-9 {
        stroke-width: 0px;
      }

      .cls-2 {
        fill: #57483e;
      }

      .cls-3 {
        fill: #5fc447;
      }

      .cls-10 {
        fill: #84d36a;
      }

      .cls-10, .cls-11, .cls-12 {
        stroke: #000;
        stroke-miterlimit: 10;
      }

      .cls-4 {
        fill: #e64c3c;
      }

      .cls-5 {
        fill: #b2413b;
      }

      .cls-11 {
        fill: #69def9;
      }

      .cls-6 {
        fill: #93b374;
      }

      .cls-12 {
        fill: none;
      }

      .cls-7 {
        fill: #7da563;
      }

      .cls-8 {
        fill: #24ae5f;
      }

      .cls-9 {
        fill: #c64946;
      }
    </style>
  </defs>
  <polyline class="cls-11" points="-1.27 648.01 -1.27 -5.07 1918.31 1.83 1917.04 630.2"/>
  <path class="cls-10" d="M1.73,652.01c3.19-2.51,8.34-5.76,15.22-6.68,8.28-1.1,13.05,1.98,15.22,0,4.78-4.35-13.76-23.24-10.15-26.71,2.79-2.68,20.9,2.91,30.88,12.84,1.18,1.18,2.87,3.03,4.65,2.74,3.81-.61,2.4-10.04,7.61-20.03,5.23-10.01,15.18-16.89,17.76-15.58,2.25,1.14-2.58,7.76,0,17.81.65,2.52,2.55,9.93,7.61,11.13,4.35,1.03,5.96-3.72,15.22-6.68,9.27-2.96,20.26-2.22,20.3-2.23,3.08-5.6,4.63-8.42,5.07-8.9,1.91-2.09,6.32-2.75,19.9-.3,8.78,1.59,12.88,2.94,13.09,2.52.63-1.28-36.68-14.76-35.52-17.81,1.27-3.35,50.47,1.49,72.68,12.04.96.45,4.83,2.33,5.98,1.31,3.32-2.94-20.86-26-17.76-28.94,4.04-3.83,49.59,31.29,58.36,24.48,4.77-3.71-4.42-17.46,0-20.03,5.82-3.38,23.59,19.43,35.52,15.58,8.57-2.76,9.79-17.85,10.15-22.26,1.49-18.32-8.68-28.88-5.07-31.16,4.08-2.59,21.33,8.26,27.91,22.26,1.27,2.69,3.95,8.39,3.75,15.9-.19,6.89-2.65,9.87-1.21,10.81,3.36,2.21,21.34-10.87,35.52-26.71,7.36-8.21,10.89-14.04,12.69-13.36,2.59.98-.01,14.96-4.78,26.72-2.37,5.84-3.93,7.83-2.84,8.9,4.69,4.61,44.13-21.95,48.21-17.81,2.81,2.85-14.23,17-10.15,22.26,2.96,3.81,15.2.64,17.76,0,50.07-12.55,159.24-2.17,159.86-11.13.33-4.8-30.86-9.69-30.45-11.13.19-.68,1.25-.87,48.21,6.68-6.4-19.24-5.08-20.03-5.07-20.03,13.34,18.06,20.88,21.04,25.37,20.03,4.04-.9,4.15-4.7,10.15-8.9,10.72-7.51,26.97-7.01,27.91-4.45,1.17,3.16-21.1,9.27-20.3,13.36,2,10.25,129.41-2.23,129.41-2.23,351.85-.73,485.41.29,491.7,2.21.3.09,2.02.71,3.1.01,4.64-2.99-10.03-25.41-7.61-26.71,2.6-1.4,19.03,24.83,30.45,22.26,7.77-1.75,9.73-16.06,12.69-15.58,3.12.5.19,16.23,5.07,17.81,6.4,2.07,20.83-21.86,25.37-20.03,3.85,1.55-4.98,19.35,2.54,24.48,3.05,2.08,6.88.77,12.69,0,23.75-3.14,40.51,8.2,43.14,4.45,2.67-3.81-14.23-16.18-12.69-17.81,2.11-2.24,34.11,20.7,40.6,15.58,3.75-2.96-3.77-13.12,0-15.58,1.67-1.09,2.96-1.38,25.37,11.13,11.38-6.14,12.69-6.68,12.69-6.68,10.13-4.15,23.93-3.52,25.37,0,1.37,3.33-16.5,10.03-15.22,13.36,1.1,2.86,14.5-1.16,32.99,0,23.79,1.5,37.53,10.41,40.6,6.68,3.49-4.24-12.5-17.8-10.15-20.03,3.49-3.32,41.09,24.15,45.67,20.03,1.71-1.53-2.94-5.85-5.07-15.58-1.88-8.59-1.71-20.95,2.54-22.26,8.54-2.64,30.33,40.41,38.06,37.84,4.09-1.36-1.96-13.4,5.07-26.71,7.88-14.9,28.02-23.53,32.99-20.03,3.15,2.22-1.71,7.99-2.54,22.26-.74,12.91,2.09,28.09,7.61,28.94,3.42.52,3.77-5.07,12.69-8.9,5.66-2.43,11.12-2.41,22.06-2.36.23,0,.49,0,.78.13,3.36,1.48-3.07,13.61,0,15.58,3.17,2.03,12.41-9.39,30.45-15.58,10.61-3.64,21.63-4.56,22.84-2.23,1,1.93-5.43,4.7-10.15,13.36-.55,1.02-5.03,9.35-2.54,11.13,2.22,1.59,8.3-3.2,15.22-6.68,20.95-10.53,47.21-7.96,48.21-4.45.63,2.2-8.09,6.84-12.29,8.7-3.43,1.52-5.58,1.97-5.48,2.43.23,1.07,12.2,1.65,24.77-1.15,5.27-1.18,9.23-2.63,10.75-1.08,1.54,1.58-.29,5.37-1.12,7.1-1.94,4.02-4.45,5.61-3.95,6.26.82,1.07,7.15-3.9,15.22-4.45,12.42-.85,18.7,9.46,25.37,6.68,4.07-1.7,5.7-7.18,5.07-11.13-1.35-8.47-13.44-12.01-12.69-13.36.97-1.74,23.15.81,30.45,13.36,4.73,8.14.32,15.54,5.07,17.89,4.09,2.02,8.71-2.79,22.84-6.76,9.36-2.63,19.52-3.93,20.3-2.23.97,2.14-13.57,7.19-12.69,11.13.49,2.16,5.66,4.28,25.37,4.45l1.27,446.29H3l-1.27-428.49Z"/>
  <path class="cls-12" d="M1758.98,613.85"/>
  <path class="cls-12" d="M777.55,483.53"/>
  <path class="cls-7" d="M859.19,338.45s-73.63,50.89-118.57,62.79c-14.51,3.87-18.11,1.63-60.1,0-11.52-.45-34.98,3.03-46.12,0-11.71-3.18-32.14-17.43-41.91-24.59-10.61-7.77-41.91-31.64-41.91-31.64,0,0-35.47,7.58-47.52,8.45-11.14.8-33.61-.04-44.72-1.4-7.5-.91-22.43-4.05-29.33-7.01-10.88-4.7-29.79-19.44-39.15-26.72-9.36-7.28-28.38-21.26-34.94-30.92-6.56-9.66-16.79-43.58-16.79-43.58,0,0-41-14.67-53.09-22.51-11.22-7.24-31.04-25.66-39.15-36.27-11.75-15.39-30.05-50.4-34.94-69.16-4.89-18.76-2.46-60.25,0-80.15,2.24-18.08,13.49-53.85,23.76-68.89,8.53-12.54,46.12-39.37,46.12-39.37,0,0,32.67-18.38,44.72-21.07,9.21-2.05,37.74,0,37.74,0,0,0-3.71-54.49,1.4-71.7s27.32-43.85,39.15-56.24c12.58-13.23,44.03-33.99,61.5-39.37,13.34-4.13,41.99-1.25,55.9,0,8.83.8,34.94,6.33,34.94,6.33,0,0,4.05-41.15,5.61-54.83,1.44-12.81,4.81-38.73,9.78-50.63,5.87-14.14,25.88-38.05,36.34-49.19,9.89-10.61,33.35-28.31,46.12-35.13,15.5-8.26,49.95-17.09,67.08-21.07,11.25-2.65,34.6-5.42,46.12-4.21,11.52,1.21,46.12,14.06,46.12,14.06,0,0,31.83-31.87,44.72-39.37,17.32-10.04,57.07-19.59,76.85-22.51,16.26-2.39,49.57-.34,65.67,2.8,13.38,2.61,38.8,13.76,50.33,21.07,7.96,5.04,27.97,25.31,27.97,25.31l26.56,25.31,18.15,29.52,6.97,21.07s27.32.19,36.34,1.4c12.43,1.67,37.14,6.86,48.92,11.25,10.16,3.79,29.41,14.4,37.93,21.07,7.58,5.91,26.34,28.12,26.34,28.12l19.55,29.52,4.21,16.86,4.21,14.06h46.12c9.44,0,28.38-1.33,37.74,0,12.58,1.78,37.59,8.26,48.92,14.06,13.95,7.16,38.46,27.66,48.92,39.37,9.13,10.23,24.82,33.42,29.33,46.38,4.24,12.09,8.37,50.63,8.37,50.63v36.57l-5.61,24.94,27.97,28.46s23.12,22.28,29.33,30.92c6.21,8.64,16.64,26.6,19.55,36.57,2.39,8.15,4.21,33.73,4.21,33.73,0,0-1.25,43.85-5.61,57.64-3.64,11.56-23.76,42.18-23.76,42.18,0,0-23.08,23.46-32.14,29.52-7.69,5.12-33.54,15.46-33.54,15.46,0,0-5.15,34.45-9.78,44.98-6.06,13.76-26.07,36.83-36.34,47.79-8.37,8.94-28.04,24.29-39.15,29.52-11.1,5.23-36.49,8.75-48.92,9.85-13.95,1.21-42.56,2.69-55.9-1.4-6.59-2.05-23.76-14.06-23.76-14.06l-23.76,22.51s-17.51,20.69-25.16,25.31c-8.15,4.93-36.34,11.25-36.34,11.25,0,0-35.47,8-47.52,9.13-10.42.99-31.6,1.78-41.91,0-17.17-2.96-49.87-15.92-65.67-23.19-8.98-4.13-34.3-19.67-34.3-19.67l-15.99-15.46,15.99-32.32s22.13-22.17,42.71-42.18c9.25-9.02,39.15-33.73,39.15-33.73l18.15-12.66-25.16-23.91-13.6-9.02-36.72,9.02,8.37-59.04v-14.06l-48.58,1.55-14.32,43.47-17.7,73.18-27.02,29.44-37.74,5.61-43.31-29.52-25.16-28.12-12.58-12.66-62.91,19.67,26.56,37.97s26.72,24.75,31.76,34.98c5.68,11.52,37.9,37.9,37.9,37.9l.04-.04Z"/>
  <path class="cls-6" d="M480.84-31.3s-4.17-68.52,0-90.84c3.75-20.16,22.47-58.02,35.32-74.01,12.13-15.08,46.16-36.04,63.93-43.73,17.77-7.69,56.35-17.62,75.72-16.83,12.54.49,48.77,11.79,48.77,11.79l37.02,16.83,13.45-43.73s20.12-63.55,33.65-80.76c15.8-20.12,58.21-52.41,82.42-60.56,19.25-6.48,60.59-10.72,80.76-8.41,12.96,1.48,38.77,7.69,50.48,13.45,15.16,7.5,43.35,26.94,55.52,38.69,9.02,8.72,31.95,38.69,31.95,38.69l8.41,18.49s40.17-10.72,53.85-10.08c12.24.57,36.61,7.12,47.1,13.45,9.17,5.53,26.41,19.44,31.95,28.61,6.4,10.57,15.16,47.1,15.16,47.1v18.49s66.54,2.08,87.61,8.41c16.37,4.89,47.6,20.65,60.41,31.95,10.08,8.91,27.36,30.16,33.65,42.06,7.35,13.87,19.44,43.35,21.87,58.89,1.89,12.05,0,48.77,0,48.77,0,0,35.92,31.07,45.44,43.62,8.07,10.69,22.32,34.14,25.24,47.22,3.11,13.95,3.98,43.47,0,57.18-3.71,12.85-16.9,36.64-25.24,47.1-8.34,10.46-25.39,30.96-37.02,37.02-10.69,5.57-35.05,10.61-47.1,10.08-14.17-.61-42.14-7.09-55.52-11.79-15.16-5.31-58.89-25.62-58.89-25.62,0,0-26.94,30.81-38.69,37.4-13.26,7.43-43.69,15.76-58.89,15.16s-45.47-8-58.89-15.16c-10.31-5.49-37.02-28.61-37.02-28.61l-10.08-50.48-10.08-18.49-42.06,1.67-31.95-16.83-37.02-10.08s-16.79,14.74-21.87,20.2c-8.45,9.06-22.06,30.09-30.96,38.69-16.14,15.65-73.33,52.14-73.33,52.14l-79.05,20.2s-50.86,1.86-67.3-1.67c-13.83-2.96-52.14-21.87-52.14-21.87,0,0-45.4,26.41-62.26,30.28-18.83,4.36-58.59,4.62-77.38,0-16.45-4.05-49.53-15.69-62.26-26.91-12.73-11.22-31.95-39.64-37.02-55.52-5.08-15.88-9.74-49.23-7.58-65.6,1.97-14.89,10.16-44.72,18.49-57.18,11.82-17.66,61.39-58.89,61.39-58.89l.08-.04Z"/>
  <path class="cls-2" d="M750.54,226.58c28.12,13.98,37.48,37.93,48.32,51.95,9.7,12.58,25.73,40.47,31.07,55.44,6.9,19.4,10.57,60.97,12.09,81.51,1.63,21.94,2.24,66.13,0,88.03-2.46,24.29-10.61,72.68-17.24,96.22-5.68,20.05-18.23,60.14-28.46,78.25-10.23,18.11-52.64,68.48-52.64,68.48-29.14,22.4-53.77,37.74-132.86,76.62-5.15,2.54,13.49,11.33,18.99,13.04,14.82,4.62,62.11,0,62.11,0l86.29-14.67s-17.81,22.62-15.54,30.96c2.69,9.89,146.31-28.88,158.74-30.96,0,0,123.65,66.36,151.85,39.15,7.2-6.97-8.64-39.15-8.64-39.15,0,0,133.39,43.96,163.94,16.3,3.03-2.73,0-16.3,0-16.3,0,0-61.62-31.68-81.1-44.03-24.4-15.46-70.75-51.8-87.99-75-15.39-20.73-35.24-69.5-41.42-94.55-5.72-23.19-12.62-70.71-13.79-94.55-1.71-33.8-3.18-101.86,1.74-135.32,1.97-13.34,7.47-40.28,13.79-52.18,9.63-18.08,36.46-49.98,51.77-63.59,15.31-13.6,47.86-40.28,67.3-48.92,14.63-6.52-41.42-48.92-41.42-48.92,0,0-14.85,7.88-37.97,27.7-12.85,11.03,10.35-66.85,10.35-66.85,0,0-48.2-25.09-56.96-13.38-23.19,31.04-40.28,100.08-44.87,134.04,0,0-17.62,21.18-25.88,24.44-7.73,3.07-25.39,2.61-33.27,0-12.39-4.13-34.11-19.63-44.38-27.7-11.41-8.98-41.42-40.78-41.42-40.78,0,0-89.62,16.14-72.46,24.67l-.04.04Z"/>
  <path class="cls-5" d="M488.74-104.88"/>
  <path class="cls-1" d="M512.74-157.62c.33-.7-.2-1.11,0-2.75.12-1.04.43-1.62,1-3,1.02-2.46.96-2.78,1.5-4,1.17-2.66,2.87-4.36,4.5-6,2.52-2.53,5.13-2.54,6.25-4.75.17-.33.58-1.16.5-2.25-.03-.37-.09-1.25-.75-2-.69-.79-1.8-1.15-2.75-1-.79.12-.96.52-2.5,1.5-1.16.74-1.42.74-2.25,1.25-1.21.74-1.91,1.51-3.25,3-1.95,2.16-3.19,4.03-3.5,4.5-.7,1.07-1.77,2.71-2.75,5-1.35,3.14-.76,3.39-2.25,7.25-.89,2.32-1.34,2.84-1,3.5.94,1.84,6.35,1.63,7.25-.25Z"/>
  <path class="cls-3" d="M497.24-157.12c-2.69-2.33-4.87-4.39-6.5-6-2.44-2.4-3.26-3.38-4-4.75-.29-.54-1.41-2.69-1.75-5.75-.18-1.66.03-2.13.75-7.5.73-5.43.68-6.17,1.5-6.75.37-.26,1.12-.64,7.5,1,3.04.78,4.56,1.17,5.75,1.75,1.23.6,3.99,1.97,6.25,5,.38.5,1.67,2.3,2.5,5,.17.54.7,2.38.75,5.25.07,4.19.08,8.37-2.75,11-3.55,3.29-9.24,1.94-10,1.75Z"/>
  <path class="cls-8" d="M502.74-158.87c-1.1-1.85-.16-2.95-1-6-.32-1.16-.71-1.94-1.5-3.5-.81-1.61-1.53-2.68-2.75-4.5-1.49-2.22-2.23-3.33-2.75-3.75-1.28-1.04-2.52-1.42-3-2.75-.09-.25-.36-.99,0-1.5.18-.26.46-.38.75-.5,0,0,.61-.26,1.25-.25,1.58.02,4.25,4,4.25,4,3.42,5.1,3.04,3.8,4.25,6,2.6,4.73,3.16,8.55,3.5,11,.42,3.08.05,3.61-.25,3.75-.65.31-2.01-.76-2.75-2Z"/>
  <path class="cls-4" d="M513.74-159.87c-2.59.54-6.43.93-10.5-.5-3.46-1.21-4.03-2.67-7.5-4-5.73-2.2-11.2-.92-12.75-.5-7.1,1.92-10.98,7.13-12,8.5-8.17,10.99-3.5,26.27-1.75,32,0,0,6.18,20.23,23,28,1.28.59,3.25,1.5,5.75,1.25,2.82-.29,3.3-1.75,7-2.75,1.34-.36,4.06-1.06,7-.25,2.53.7,3.42,2.01,4.75,2.75,5.29,2.93,15.58-4.35,21-9.75,1.43-1.42,8.77-8.94,11.75-21.5,2.6-10.97.41-19.63-.25-22-1.4-5.02-2.84-10.18-7.75-13.75-5.57-4.06-12.02-3.46-14.25-3.25-7.02.65-11.75,4.26-13.5,5.75Z"/>
  <path class="cls-9" d="M517.99-159.37c-.91,6.99,12.17,10.72,13.75,18.5,2.52,12.41-23.13,34.88-42.5,31.25-2.74-.51-9.59-4.31-11.25-2.25-.43.53-.35,1.24-.25,2,.37,2.82,2.27,3.94,9,10,.89.8,2.71,2.33,5.5,3.68.24.12.47.21.74.32,5.08,1.93,8.6.51,9.25,0,.01,0,.06-.04.12-.09.29-.22,1.01-.74,2.03-1.23.32-.15.68-.3,1.1-.43.87-.27,2.98-.77,6.75.25,3.2.87,4.94,2.12,6.25,2.75,7.15,3.47,17.57-3.53,18.25-4,6.77-4.66,9.11-11.38,11.5-18.25,2.48-7.12,2.76-13.14,3-18.25.19-4.03-.02-6.7-.5-9.25-.73-3.87-1.95-6.68-2.75-8.5-1.51-3.43-2.5-5.68-4.75-8-1.12-1.16-3.07-3.14-6.25-4.25-2.9-1.01-5.54-.86-7.5-.75-1.31.07-2.23.23-3.75.5-3.1.54-4.67.83-5.75,1.75-1.62,1.38-1.9,3.51-2,4.25Z"/>
  <path class="cls-5" d="M612.74,173.12"/>
  <path class="cls-1" d="M636.74,120.38c.33-.7-.2-1.11,0-2.75.12-1.04.43-1.62,1-3,1.02-2.46.96-2.78,1.5-4,1.17-2.66,2.87-4.36,4.5-6,2.52-2.53,5.13-2.54,6.25-4.75.17-.33.58-1.16.5-2.25-.03-.37-.09-1.25-.75-2-.69-.79-1.8-1.15-2.75-1-.79.12-.96.52-2.5,1.5-1.16.74-1.42.74-2.25,1.25-1.21.74-1.91,1.51-3.25,3-1.95,2.16-3.19,4.03-3.5,4.5-.7,1.07-1.77,2.71-2.75,5-1.35,3.14-.76,3.39-2.25,7.25-.89,2.32-1.34,2.84-1,3.5.94,1.84,6.35,1.63,7.25-.25Z"/>
  <path class="cls-3" d="M621.24,120.88c-2.69-2.33-4.87-4.39-6.5-6-2.44-2.4-3.26-3.38-4-4.75-.29-.54-1.41-2.69-1.75-5.75-.18-1.66.03-2.13.75-7.5.73-5.43.68-6.17,1.5-6.75.37-.26,1.12-.64,7.5,1,3.04.78,4.56,1.17,5.75,1.75,1.23.6,3.99,1.97,6.25,5,.38.5,1.67,2.3,2.5,5,.17.54.7,2.38.75,5.25.07,4.19.08,8.37-2.75,11-3.55,3.29-9.24,1.94-10,1.75Z"/>
  <path class="cls-8" d="M626.74,119.13c-1.1-1.85-.16-2.95-1-6-.32-1.16-.71-1.94-1.5-3.5-.81-1.61-1.53-2.68-2.75-4.5-1.49-2.22-2.23-3.33-2.75-3.75-1.28-1.04-2.52-1.42-3-2.75-.09-.25-.36-.99,0-1.5.18-.26.46-.38.75-.5,0,0,.61-.26,1.25-.25,1.58.02,4.25,4,4.25,4,3.42,5.1,3.04,3.8,4.25,6,2.6,4.73,3.16,8.55,3.5,11,.42,3.08.05,3.61-.25,3.75-.65.31-2.01-.76-2.75-2Z"/>
  <path class="cls-4" d="M637.74,118.13c-2.59.54-6.43.93-10.5-.5-3.46-1.21-4.03-2.67-7.5-4-5.73-2.2-11.2-.92-12.75-.5-7.1,1.92-10.98,7.13-12,8.5-8.17,10.99-3.5,26.27-1.75,32,0,0,6.18,20.23,23,28,1.28.59,3.25,1.5,5.75,1.25,2.82-.29,3.3-1.75,7-2.75,1.34-.36,4.06-1.06,7-.25,2.53.7,3.42,2.01,4.75,2.75,5.29,2.93,15.58-4.35,21-9.75,1.43-1.42,8.77-8.94,11.75-21.5,2.6-10.97.41-19.63-.25-22-1.4-5.02-2.84-10.18-7.75-13.75-5.57-4.06-12.02-3.46-14.25-3.25-7.02.65-11.75,4.26-13.5,5.75Z"/>
  <path class="cls-9" d="M641.99,118.63c-.91,6.99,12.17,10.72,13.75,18.5,2.52,12.41-23.13,34.88-42.5,31.25-2.74-.51-9.59-4.31-11.25-2.25-.43.53-.35,1.24-.25,2,.37,2.82,2.27,3.94,9,10,.89.8,2.71,2.33,5.5,3.68.24.12.47.21.74.32,5.08,1.93,8.6.51,9.25,0,.01,0,.06-.04.12-.09.29-.22,1.01-.74,2.03-1.23.32-.15.68-.3,1.1-.43.87-.27,2.98-.77,6.75.25,3.2.87,4.94,2.12,6.25,2.75,7.15,3.47,17.57-3.53,18.25-4,6.77-4.66,9.11-11.38,11.5-18.25,2.48-7.12,2.76-13.14,3-18.25.19-4.03-.02-6.7-.5-9.25-.73-3.87-1.95-6.68-2.75-8.5-1.51-3.43-2.5-5.68-4.75-8-1.12-1.16-3.07-3.14-6.25-4.25-2.9-1.01-5.54-.86-7.5-.75-1.31.07-2.23.23-3.75.5-3.1.54-4.67.83-5.75,1.75-1.62,1.38-1.9,3.51-2,4.25Z"/>
  <path class="cls-5" d="M754.74-190.88"/>
  <path class="cls-1" d="M778.74-243.62c.33-.7-.2-1.11,0-2.75.12-1.04.43-1.62,1-3,1.02-2.46.96-2.78,1.5-4,1.17-2.66,2.87-4.36,4.5-6,2.52-2.53,5.13-2.54,6.25-4.75.17-.33.58-1.16.5-2.25-.03-.37-.09-1.25-.75-2-.69-.79-1.8-1.15-2.75-1-.79.12-.96.52-2.5,1.5-1.16.74-1.42.74-2.25,1.25-1.21.74-1.91,1.51-3.25,3-1.95,2.16-3.19,4.03-3.5,4.5-.7,1.07-1.77,2.71-2.75,5-1.35,3.14-.76,3.39-2.25,7.25-.89,2.32-1.34,2.84-1,3.5.94,1.84,6.35,1.63,7.25-.25Z"/>
  <path class="cls-3" d="M763.24-243.12c-2.69-2.33-4.87-4.39-6.5-6-2.44-2.4-3.26-3.38-4-4.75-.29-.54-1.41-2.69-1.75-5.75-.18-1.66.03-2.13.75-7.5.73-5.43.68-6.17,1.5-6.75.37-.26,1.12-.64,7.5,1,3.04.78,4.56,1.17,5.75,1.75,1.23.6,3.99,1.97,6.25,5,.38.5,1.67,2.3,2.5,5,.17.54.7,2.38.75,5.25.07,4.19.08,8.37-2.75,11-3.55,3.29-9.24,1.94-10,1.75Z"/>
  <path class="cls-8" d="M768.74-244.87c-1.1-1.85-.16-2.95-1-6-.32-1.16-.71-1.94-1.5-3.5-.81-1.61-1.53-2.68-2.75-4.5-1.49-2.22-2.23-3.33-2.75-3.75-1.28-1.04-2.52-1.42-3-2.75-.09-.25-.36-.99,0-1.5.18-.26.46-.38.75-.5,0,0,.61-.26,1.25-.25,1.58.02,4.25,4,4.25,4,3.42,5.1,3.04,3.8,4.25,6,2.6,4.73,3.16,8.55,3.5,11,.42,3.08.05,3.61-.25,3.75-.65.31-2.01-.76-2.75-2Z"/>
  <path class="cls-4" d="M779.74-245.87c-2.59.54-6.43.93-10.5-.5-3.46-1.21-4.03-2.67-7.5-4-5.73-2.2-11.2-.92-12.75-.5-7.1,1.92-10.98,7.13-12,8.5-8.17,10.99-3.5,26.27-1.75,32,0,0,6.18,20.23,23,28,1.28.59,3.25,1.5,5.75,1.25,2.82-.29,3.3-1.75,7-2.75,1.34-.36,4.06-1.06,7-.25,2.53.7,3.42,2.01,4.75,2.75,5.29,2.93,15.58-4.35,21-9.75,1.43-1.42,8.77-8.94,11.75-21.5,2.6-10.97.41-19.63-.25-22-1.4-5.02-2.84-10.18-7.75-13.75-5.57-4.06-12.02-3.46-14.25-3.25-7.02.65-11.75,4.26-13.5,5.75Z"/>
  <path class="cls-9" d="M783.99-245.37c-.91,6.99,12.17,10.72,13.75,18.5,2.52,12.41-23.13,34.88-42.5,31.25-2.74-.51-9.59-4.31-11.25-2.25-.43.53-.35,1.24-.25,2,.37,2.82,2.27,3.94,9,10,.89.8,2.71,2.33,5.5,3.68.24.12.47.21.74.32,5.08,1.93,8.6.51,9.25,0,.01,0,.06-.04.12-.09.29-.22,1.01-.74,2.03-1.23.32-.15.68-.3,1.1-.43.87-.27,2.98-.77,6.75.25,3.2.87,4.94,2.12,6.25,2.75,7.15,3.47,17.57-3.53,18.25-4,6.77-4.66,9.11-11.38,11.5-18.25,2.48-7.12,2.76-13.14,3-18.25.19-4.03-.02-6.7-.5-9.25-.73-3.87-1.95-6.68-2.75-8.5-1.51-3.43-2.5-5.68-4.75-8-1.12-1.16-3.07-3.14-6.25-4.25-2.9-1.01-5.54-.86-7.5-.75-1.31.07-2.23.23-3.75.5-3.1.54-4.67.83-5.75,1.75-1.62,1.38-1.9,3.51-2,4.25Z"/>
  <path class="cls-5" d="M857.74,37.12"/>
  <path class="cls-1" d="M881.74-15.62c.33-.7-.2-1.11,0-2.75.12-1.04.43-1.62,1-3,1.02-2.46.96-2.78,1.5-4,1.17-2.66,2.87-4.36,4.5-6,2.52-2.53,5.13-2.54,6.25-4.75.17-.33.58-1.16.5-2.25-.03-.37-.09-1.25-.75-2-.69-.79-1.8-1.15-2.75-1-.79.12-.96.52-2.5,1.5-1.16.74-1.42.74-2.25,1.25-1.21.74-1.91,1.51-3.25,3-1.95,2.16-3.19,4.03-3.5,4.5-.7,1.07-1.77,2.71-2.75,5-1.35,3.14-.76,3.39-2.25,7.25-.89,2.32-1.34,2.84-1,3.5.94,1.84,6.35,1.63,7.25-.25Z"/>
  <path class="cls-3" d="M866.24-15.12c-2.69-2.33-4.87-4.39-6.5-6-2.44-2.4-3.26-3.38-4-4.75-.29-.54-1.41-2.69-1.75-5.75-.18-1.66.03-2.13.75-7.5.73-5.43.68-6.17,1.5-6.75.37-.26,1.12-.64,7.5,1,3.04.78,4.56,1.17,5.75,1.75,1.23.6,3.99,1.97,6.25,5,.38.5,1.67,2.3,2.5,5,.17.54.7,2.38.75,5.25.07,4.19.08,8.37-2.75,11-3.55,3.29-9.24,1.94-10,1.75Z"/>
  <path class="cls-8" d="M871.74-16.87c-1.1-1.85-.16-2.95-1-6-.32-1.16-.71-1.94-1.5-3.5-.81-1.61-1.53-2.68-2.75-4.5-1.49-2.22-2.23-3.33-2.75-3.75-1.28-1.04-2.52-1.42-3-2.75-.09-.25-.36-.99,0-1.5.18-.26.46-.38.75-.5,0,0,.61-.26,1.25-.25,1.58.02,4.25,4,4.25,4,3.42,5.1,3.04,3.8,4.25,6,2.6,4.73,3.16,8.55,3.5,11,.42,3.08.05,3.61-.25,3.75-.65.31-2.01-.76-2.75-2Z"/>
  <path class="cls-4" d="M882.74-17.87c-2.59.54-6.43.93-10.5-.5-3.46-1.21-4.03-2.67-7.5-4-5.73-2.2-11.2-.92-12.75-.5-7.1,1.92-10.98,7.13-12,8.5-8.17,10.99-3.5,26.27-1.75,32,0,0,6.18,20.23,23,28,1.28.59,3.25,1.5,5.75,1.25,2.82-.29,3.3-1.75,7-2.75,1.34-.36,4.06-1.06,7-.25,2.53.7,3.42,2.01,4.75,2.75,5.29,2.93,15.58-4.35,21-9.75,1.43-1.42,8.77-8.94,11.75-21.5,2.6-10.97.41-19.63-.25-22-1.4-5.02-2.84-10.18-7.75-13.75-5.57-4.06-12.02-3.46-14.25-3.25-7.02.65-11.75,4.26-13.5,5.75Z"/>
  <path class="cls-9" d="M886.99-17.37c-.91,6.99,12.17,10.72,13.75,18.5,2.52,12.41-23.13,34.88-42.5,31.25-2.74-.51-9.59-4.31-11.25-2.25-.43.53-.35,1.24-.25,2,.37,2.82,2.27,3.94,9,10,.89.8,2.71,2.33,5.5,3.68.24.12.47.21.74.32,5.08,1.93,8.6.51,9.25,0,.01,0,.06-.04.12-.09.29-.22,1.01-.74,2.03-1.23.32-.15.68-.3,1.1-.43.87-.27,2.98-.77,6.75.25,3.2.87,4.94,2.12,6.25,2.75,7.15,3.47,17.57-3.53,18.25-4,6.77-4.66,9.11-11.38,11.5-18.25,2.48-7.12,2.76-13.14,3-18.25.19-4.03-.02-6.7-.5-9.25-.73-3.87-1.95-6.68-2.75-8.5-1.51-3.43-2.5-5.68-4.75-8-1.12-1.16-3.07-3.14-6.25-4.25-2.9-1.01-5.54-.86-7.5-.75-1.31.07-2.23.23-3.75.5-3.1.54-4.67.83-5.75,1.75-1.62,1.38-1.9,3.51-2,4.25Z"/>
  <path class="cls-5" d="M1073.74-231.88"/>
  <path class="cls-1" d="M1097.74-284.62c.33-.7-.2-1.11,0-2.75.12-1.04.43-1.62,1-3,1.02-2.46.96-2.78,1.5-4,1.17-2.66,2.87-4.36,4.5-6,2.52-2.53,5.13-2.54,6.25-4.75.17-.33.58-1.16.5-2.25-.03-.37-.09-1.25-.75-2-.69-.79-1.8-1.15-2.75-1-.79.12-.96.52-2.5,1.5-1.16.74-1.42.74-2.25,1.25-1.21.74-1.91,1.51-3.25,3-1.95,2.16-3.19,4.03-3.5,4.5-.7,1.07-1.77,2.71-2.75,5-1.35,3.14-.76,3.39-2.25,7.25-.89,2.32-1.34,2.84-1,3.5.94,1.84,6.35,1.63,7.25-.25Z"/>
  <path class="cls-3" d="M1082.24-284.12c-2.69-2.33-4.87-4.39-6.5-6-2.44-2.4-3.26-3.38-4-4.75-.29-.54-1.41-2.69-1.75-5.75-.18-1.66.03-2.13.75-7.5.73-5.43.68-6.17,1.5-6.75.37-.26,1.12-.64,7.5,1,3.04.78,4.56,1.17,5.75,1.75,1.23.6,3.99,1.97,6.25,5,.38.5,1.67,2.3,2.5,5,.17.54.7,2.38.75,5.25.07,4.19.08,8.37-2.75,11-3.55,3.29-9.24,1.94-10,1.75Z"/>
  <path class="cls-8" d="M1087.74-285.87c-1.1-1.85-.16-2.95-1-6-.32-1.16-.71-1.94-1.5-3.5-.81-1.61-1.53-2.68-2.75-4.5-1.49-2.22-2.23-3.33-2.75-3.75-1.28-1.04-2.52-1.42-3-2.75-.09-.25-.36-.99,0-1.5.18-.26.46-.38.75-.5,0,0,.61-.26,1.25-.25,1.58.02,4.25,4,4.25,4,3.42,5.1,3.04,3.8,4.25,6,2.6,4.73,3.16,8.55,3.5,11,.42,3.08.05,3.61-.25,3.75-.65.31-2.01-.76-2.75-2Z"/>
  <path class="cls-4" d="M1098.74-286.87c-2.59.54-6.43.93-10.5-.5-3.46-1.21-4.03-2.67-7.5-4-5.73-2.2-11.2-.92-12.75-.5-7.1,1.92-10.98,7.13-12,8.5-8.17,10.99-3.5,26.27-1.75,32,0,0,6.18,20.23,23,28,1.28.59,3.25,1.5,5.75,1.25,2.82-.29,3.3-1.75,7-2.75,1.34-.36,4.06-1.06,7-.25,2.53.7,3.42,2.01,4.75,2.75,5.29,2.93,15.58-4.35,21-9.75,1.43-1.42,8.77-8.94,11.75-21.5,2.6-10.97.41-19.63-.25-22-1.4-5.02-2.84-10.18-7.75-13.75-5.57-4.06-12.02-3.46-14.25-3.25-7.02.65-11.75,4.26-13.5,5.75Z"/>
  <path class="cls-9" d="M1102.99-286.37c-.91,6.99,12.17,10.72,13.75,18.5,2.52,12.41-23.13,34.88-42.5,31.25-2.74-.51-9.59-4.31-11.25-2.25-.43.53-.35,1.24-.25,2,.37,2.82,2.27,3.94,9,10,.89.8,2.71,2.33,5.5,3.68.24.12.47.21.74.32,5.08,1.93,8.6.51,9.25,0,.01,0,.06-.04.12-.09.29-.22,1.01-.74,2.03-1.23.32-.15.68-.3,1.1-.43.87-.27,2.98-.77,6.75.25,3.2.87,4.94,2.12,6.25,2.75,7.15,3.47,17.57-3.53,18.25-4,6.77-4.66,9.11-11.38,11.5-18.25,2.48-7.12,2.76-13.14,3-18.25.19-4.03-.02-6.7-.5-9.25-.73-3.87-1.95-6.68-2.75-8.5-1.51-3.43-2.5-5.68-4.75-8-1.12-1.16-3.07-3.14-6.25-4.25-2.9-1.01-5.54-.86-7.5-.75-1.31.07-2.23.23-3.75.5-3.1.54-4.67.83-5.75,1.75-1.62,1.38-1.9,3.51-2,4.25Z"/>
  <path class="cls-5" d="M1252.74,121.12"/>
  <path class="cls-5" d="M1294.74-93.88"/>
  <path class="cls-1" d="M1318.74-146.62c.33-.7-.2-1.11,0-2.75.12-1.04.43-1.62,1-3,1.02-2.46.96-2.78,1.5-4,1.17-2.66,2.87-4.36,4.5-6,2.52-2.53,5.13-2.54,6.25-4.75.17-.33.58-1.16.5-2.25-.03-.37-.09-1.25-.75-2-.69-.79-1.8-1.15-2.75-1-.79.12-.96.52-2.5,1.5-1.16.74-1.42.74-2.25,1.25-1.21.74-1.91,1.51-3.25,3-1.95,2.16-3.19,4.03-3.5,4.5-.7,1.07-1.77,2.71-2.75,5-1.35,3.14-.76,3.39-2.25,7.25-.89,2.32-1.34,2.84-1,3.5.94,1.84,6.35,1.63,7.25-.25Z"/>
  <path class="cls-3" d="M1303.24-146.12c-2.69-2.33-4.87-4.39-6.5-6-2.44-2.4-3.26-3.38-4-4.75-.29-.54-1.41-2.69-1.75-5.75-.18-1.66.03-2.13.75-7.5.73-5.43.68-6.17,1.5-6.75.37-.26,1.12-.64,7.5,1,3.04.78,4.56,1.17,5.75,1.75,1.23.6,3.99,1.97,6.25,5,.38.5,1.67,2.3,2.5,5,.17.54.7,2.38.75,5.25.07,4.19.08,8.37-2.75,11-3.55,3.29-9.24,1.94-10,1.75Z"/>
  <path class="cls-8" d="M1308.74-147.87c-1.1-1.85-.16-2.95-1-6-.32-1.16-.71-1.94-1.5-3.5-.81-1.61-1.53-2.68-2.75-4.5-1.49-2.22-2.23-3.33-2.75-3.75-1.28-1.04-2.52-1.42-3-2.75-.09-.25-.36-.99,0-1.5.18-.26.46-.38.75-.5,0,0,.61-.26,1.25-.25,1.58.02,4.25,4,4.25,4,3.42,5.1,3.04,3.8,4.25,6,2.6,4.73,3.16,8.55,3.5,11,.42,3.08.05,3.61-.25,3.75-.65.31-2.01-.76-2.75-2Z"/>
  <path class="cls-4" d="M1319.74-148.87c-2.59.54-6.43.93-10.5-.5-3.46-1.21-4.03-2.67-7.5-4-5.73-2.2-11.2-.92-12.75-.5-7.1,1.92-10.98,7.13-12,8.5-8.17,10.99-3.5,26.27-1.75,32,0,0,6.18,20.23,23,28,1.28.59,3.25,1.5,5.75,1.25,2.82-.29,3.3-1.75,7-2.75,1.34-.36,4.06-1.06,7-.25,2.53.7,3.42,2.01,4.75,2.75,5.29,2.93,15.58-4.35,21-9.75,1.43-1.42,8.77-8.94,11.75-21.5,2.6-10.97.41-19.63-.25-22-1.4-5.02-2.84-10.18-7.75-13.75-5.57-4.06-12.02-3.46-14.25-3.25-7.02.65-11.75,4.26-13.5,5.75Z"/>
  <path class="cls-9" d="M1323.99-148.37c-.91,6.99,12.17,10.72,13.75,18.5,2.52,12.41-23.13,34.88-42.5,31.25-2.74-.51-9.59-4.31-11.25-2.25-.43.53-.35,1.24-.25,2,.37,2.82,2.27,3.94,9,10,.89.8,2.71,2.33,5.5,3.68.24.12.47.21.74.32,5.08,1.93,8.6.51,9.25,0,.01,0,.06-.04.12-.09.29-.22,1.01-.74,2.03-1.23.32-.15.68-.3,1.1-.43.87-.27,2.98-.77,6.75.25,3.2.87,4.94,2.12,6.25,2.75,7.15,3.47,17.57-3.53,18.25-4,6.77-4.66,9.11-11.38,11.5-18.25,2.48-7.12,2.76-13.14,3-18.25.19-4.03-.02-6.7-.5-9.25-.73-3.87-1.95-6.68-2.75-8.5-1.51-3.43-2.5-5.68-4.75-8-1.12-1.16-3.07-3.14-6.25-4.25-2.9-1.01-5.54-.86-7.5-.75-1.31.07-2.23.23-3.75.5-3.1.54-4.67.83-5.75,1.75-1.62,1.38-1.9,3.51-2,4.25Z"/>
</svg>