<?xml version="1.0" encoding="utf-8"?>
<!-- Generator: Adobe Illustrator 25.0.0, SVG Export Plug-In . SVG Version: 6.00 Build 0)  -->
<svg version="1.1" id="Layer_1" xmlns="http://www.w3.org/2000/svg" xmlns:xlink="http://www.w3.org/1999/xlink" x="0px" y="0px"
	 viewBox="0 0 1920 1080" style="enable-background:new 0 0 1920 1080;" xml:space="preserve">
<style type="text/css">
	.st0{fill:#7DA563;}
	.st1{fill:#93B374;}
	.st2{fill:#57483E;}
</style>
<path class="st0" d="M310.49,260.11c0,0-9.41,21.67-17.82,30.6c-2.71,2.89-3.83,2.89-13.47,8.38c-2.64,1.5-7.41,5.55-10.33,6.43
	c-3.07,0.92-9.63,0.57-12.82,0.33c-3.46-0.26-13.8-1.25-13.8-1.25s-6.89,6.64-9.47,8.52c-2.39,1.73-7.54,4.68-10.22,5.92
	c-1.81,0.84-5.59,2.22-7.55,2.52c-3.09,0.46-9.38-0.2-12.5-0.53c-3.11-0.33-9.32-0.81-12.14-2.06c-2.82-1.25-9.84-7.43-9.84-7.43
	s-11.23,2.43-15.03,2.36c-3.52-0.06-10.53-1.42-13.83-2.67c-4.78-1.81-13.76-7.11-17.47-10.63s-8.95-13.16-11.17-17.96
	c-2.02-4.36-4.48-13.95-4.28-18.75c0.16-4,4.85-15.25,4.85-15.25s4.76-8.67,7.08-10.95c1.78-1.74,8.46-5.26,8.46-5.26
	s-8.43-11.69-9.68-16.26c-1.25-4.57,0.01-13.63,0.93-18.06c0.98-4.72,5.13-13.75,8.29-17.39c2.41-2.78,9.23-6.13,12.52-7.79
	c2.09-1.05,8.71-3.45,8.71-3.45s-4.83-9.79-6.39-13.07c-1.46-3.07-4.32-9.35-4.87-12.71c-0.65-3.99,0.5-12.13,1.29-16.09
	c0.74-3.76,3.53-10.99,5.44-14.3c2.32-4.01,8.81-10.79,12.09-14.07c2.15-2.16,7-6.04,9.75-7.37c2.75-1.33,12.29-3.28,12.29-3.28
	s2.69-11.58,4.53-15.05c2.48-4.66,10.06-12.34,14.08-15.76c3.31-2.8,11.06-6.98,15.11-8.52c3.36-1.28,10.61-2.33,14.21-2.29
	c2.49,0.02,9.79,1.77,9.79,1.77l9.48,1.97l8.18,4.08l4.5,3.75c0,0,6.15-3.77,8.34-4.75c3.02-1.36,9.28-3.64,12.53-4.3
	c2.8-0.57,8.6-0.87,11.44-0.57c2.52,0.27,9.82,2.63,9.82,2.63l8.5,3.89l3.29,3.19l2.9,2.56l10.33-6.43
	c2.11-1.32,6.18-4.25,8.46-5.26c3.07-1.35,9.57-3.39,12.92-3.67c4.12-0.34,12.47,0.84,16.45,2c3.47,1.02,10.22,4.03,13.04,6.31
	c2.64,2.12,8.93,10.18,8.93,10.18l5.1,8.19l2.22,6.37l10.23,2.48c0,0,8.29,1.77,10.88,2.84c2.6,1.07,7.44,3.64,9.48,5.47
	c1.67,1.49,5.64,6.97,5.64,6.97s5.83,10,6.78,13.7c0.8,3.1,0.55,12.76,0.55,12.76s-1.9,8.47-3.09,11.09
	c-1.01,2.22-5.36,8.14-5.36,8.14s3.65,8.44,4.08,11.44c0.56,3.93-0.71,11.89-1.48,15.77c-0.63,3.17-2.9,9.35-4.66,12.07
	c-1.76,2.72-6.96,7.05-9.59,9.03c-2.96,2.22-9.16,6.53-12.72,7.48c-1.76,0.46-7.28,0.16-7.28,0.16l-2.19,8.36
	c0,0-1.04,7.08-2.11,9.18c-1.14,2.24-6.57,7.59-6.57,7.59s-6.83,6.74-9.38,8.67c-2.2,1.67-6.83,4.8-9.39,5.84
	c-4.26,1.73-13.39,3.38-17.95,3.96c-2.59,0.33-10.43,0.37-10.43,0.37l-5.74-1.24l-0.92-9.47c0,0,1.87-8.05,3.69-15.4
	c0.81-3.31,4.07-13.01,4.07-13.01l2.3-5.37l-8.97-1.85l-4.31-0.12l-6.97,7.14l-6.35-14.4l-1.96-3.15l-10.67,7.12l2.85,11.74
	l6.23,18.86l-1.95,10.36l-7.68,6.52l-13.82-0.58l-9.56-2.79l-4.58-1.08l-11.35,13.17l11.24,4.81c0,0,9.44,1.82,11.99,3.41
	c2.88,1.79,13.77,3.21,13.77,3.21L310.49,260.11z"/>
<path class="st1" d="M174.18,229.99c0,0-10.48-14.77-12.66-20.35c-1.97-5.04-3.05-16.13-2.4-21.51c0.62-5.07,5.32-14.51,8.23-18.71
	c2.91-4.2,10.17-11.8,14.62-14.32c2.88-1.64,12.57-4.16,12.57-4.16l10.64-1.39l-3.08-11.67c0,0-4.35-17.04-3.72-22.79
	c0.74-6.71,5.74-19.86,10.03-25.06c3.41-4.14,12.08-10.85,16.92-13.14c3.11-1.48,9.76-3.68,13.19-4.02c4.44-0.43,13.47,0,17.83,0.93
	c3.24,0.7,12.55,4.22,12.55,4.22l4.46,2.97c0,0,7.51-8,10.66-9.76c2.82-1.58,9.2-3.51,12.43-3.55c2.83-0.04,8.63,0.67,11.15,1.96
	c2.91,1.48,9.96,8.44,9.96,8.44l2.58,4.14c0,0,15.2-8.81,20.8-10.33c4.35-1.19,13.54-2.01,17.99-1.26c3.5,0.59,10.33,2.95,13.4,4.74
	c3.58,2.08,10.4,7,13.11,10.15c2.1,2.44,6.8,10.93,6.8,10.93s12.38,1.96,16.26,3.44c3.3,1.27,9.76,4.54,12.24,7.06
	c2.64,2.69,6.95,9.19,7.97,12.81c0.96,3.4,1.32,10.57,0.91,14.07c-0.41,3.51-1.37,10.48-3.14,13.46c-1.62,2.74-6.38,7.26-9.15,8.82
	c-3.26,1.84-10.43,4.29-14.08,5.1c-4.14,0.92-16.77,2.47-16.77,2.47s-1.74,10.66-3.46,13.77c-1.94,3.51-7.59,9.62-11.08,11.6
	c-3.49,1.98-11.3,4.55-15.31,4.81c-3.08,0.21-12.28-1.25-12.28-1.25l-9.29-9.91l-4.84-2.74l-9.19,6.24l-9.5,0.68l-9.7,2.9
	c0,0-1.71,5.64-2.08,7.57c-0.63,3.21-0.75,9.82-1.54,12.98c-1.44,5.76-9.16,21.9-9.16,21.9l-14.9,15.54c0,0-11.14,7.5-15.31,9.01
	c-3.51,1.27-14.73,2.37-14.73,2.37s-6.49,12.25-9.73,15.46c-3.61,3.6-12.48,9.2-17.34,10.79c-4.25,1.38-13.28,3.39-17.7,2.65
	s-12.68-4.43-16.03-7.28s-9.04-9.67-10.84-13.64c-1.63-3.61-3.96-11.44-3.83-15.39c0.19-5.6,5.55-21.75,5.55-21.75L174.18,229.99z"
	/>
<path class="st2" d="M270.56,250.19c8.25-0.79,13.69,3.28,18.07,4.91c3.93,1.47,11.41,5.48,14.69,8.09
	c4.25,3.39,10.87,12.19,14.07,16.58c3.42,4.69,9.72,14.51,12.27,19.73c2.83,5.79,7.75,17.77,9.55,23.96
	c1.52,5.28,4.3,16.02,4.53,21.5c0.23,5.48-2.25,22.68-2.25,22.68c-3.41,9.08-6.79,15.95-19.09,35.69c-0.8,1.29,4.6,0.66,6.07,0.27
	c3.96-1.03,13.92-8.66,13.92-8.66l17.29-15.31c0,0-0.84,7.55,0.83,9.1c1.98,1.84,28.76-26.86,31.26-29.06
	c0,0,36.96-2.37,39.48-12.39c0.64-2.57-7.39-7.57-7.39-7.57s36.02-8.74,39-19.2c0.3-1.03-2.27-3.65-2.27-3.65
	s-18.22,1.49-24.31,1.44c-7.62-0.06-23.07-1.75-30.17-4.54c-6.34-2.5-17.58-10.66-22.46-15.41c-4.51-4.4-12.68-14.09-16.27-19.26
	c-5.09-7.34-14.91-22.38-18.47-30.57c-1.42-3.26-3.94-10.07-4.18-13.62c-0.36-5.39,1.2-16.28,2.74-21.46s5.11-15.7,8.26-20.34
	c2.37-3.5-16.1-5.19-16.1-5.19s-2.23,3.84-4.65,11.5c-1.34,4.26-7-16.42-7-16.42s-14.3,1.1-14.63,4.94
	c-0.87,10.19,4.92,28.04,8.63,36.29c0,0-1,7.2-2.39,9.08c-1.3,1.77-5.32,4.12-7.46,4.64c-3.35,0.8-10.38,0.36-13.8-0.02
	c-3.81-0.42-14.96-3.36-14.96-3.36s-17.83,16.11-12.8,15.63L270.56,250.19z"/>
</svg>
